<svg width="44" height="44" viewBox="0 0 44 44" fill="none" xmlns="http://www.w3.org/2000/svg">
<g clip-path="url(#clip0_2009_27)">
<path fill-rule="evenodd" clip-rule="evenodd" d="M26.179 15.6946C27.5325 15.0227 29.2544 14.0334 30.9787 12.6778C31.342 13.4296 31.3822 14.0856 31.1946 14.6151C31.0618 14.9884 30.8115 15.3131 30.483 15.5714C30.127 15.8504 29.6821 16.054 29.1905 16.1637C28.2577 16.373 27.1683 16.2506 26.179 15.6942M26.4137 22.5799L28.2052 23.6104C24.5473 25.6522 23.5526 29.4432 22.3711 33.1355C21.1901 29.4432 20.1954 25.6517 16.5375 23.6104L18.329 22.5799C18.6845 22.4461 18.9131 22.0997 18.8951 21.7216C18.7308 18.2634 19.6686 16.734 20.9336 15.7741C21.3871 15.4302 21.8824 15.2576 22.3711 15.2576C22.8599 15.2576 23.3552 15.4302 23.8087 15.7741C25.0733 16.7344 26.011 18.2634 25.8472 21.7216C25.8291 22.0997 26.0581 22.4461 26.4133 22.5799H26.4137ZM22.3716 0C24.4424 0.0554809 26.5186 0.455677 28.3203 1.23445C29.5682 1.77457 30.732 2.48766 31.7865 3.34068C32.2626 3.72579 32.6546 4.09783 33.0864 4.52618C34.2511 4.56616 35.9533 3.27786 36.7435 2.07237C35.3834 6.51207 29.1778 11.7546 24.8816 13.7609C24.8799 13.7601 24.8787 13.7593 24.8775 13.7584C24.1065 13.1722 23.2392 12.8789 22.372 12.8789C21.5047 12.8789 20.6374 13.1722 19.8664 13.7584C19.8652 13.7593 19.864 13.7605 19.8623 13.7609C15.5653 11.7546 9.3601 6.51166 8 2.07237C8.79025 3.27786 10.492 4.56656 11.6567 4.52618C12.0885 4.09824 12.4805 3.72579 12.9566 3.34068C14.0106 2.48766 15.1749 1.77457 16.4228 1.23445C18.2249 0.455677 20.3007 0.0554809 22.3716 0ZM18.5641 15.6946C17.211 15.0227 15.4887 14.0334 13.7644 12.6778C13.4011 13.4296 13.3609 14.0856 13.5481 14.6151C13.6809 14.9884 13.9312 15.3131 14.2597 15.5714C14.6161 15.8504 15.061 16.054 15.5526 16.1637C16.4854 16.373 17.5748 16.2506 18.5637 15.6942" fill="black"/>
<path fill-rule="evenodd" clip-rule="evenodd" d="M32.0782 11.0171C33.0274 10.0633 33.8639 9.00754 34.5362 8.06519L34.8779 8.70526C35.9774 10.8959 36.5489 13.078 36.5489 15.5335L36.5465 19.4302L36.5669 21.4499C36.6464 26.409 37.7242 31.4259 40.165 36.0173L35.0581 31.9167L31.4449 37.7556L27.6489 34.1971L21.5825 44.0001L15.5162 34.1975L11.7202 37.756L8.10692 31.9171L3 36.0178C5.4408 31.4263 6.51823 26.409 6.59811 21.4504L6.61859 19.4306L6.61614 15.5339C6.61614 13.078 7.18721 10.8963 8.28717 8.70566L8.62842 8.06559C9.3011 9.00754 10.1372 10.0633 11.0864 11.0175L10.7898 11.6306C10.2138 12.8214 10.0233 14.153 10.4719 15.4197C10.7612 16.2352 11.2888 16.9348 11.9693 17.4688C12.6301 17.9873 13.4121 18.3369 14.2306 18.5205C14.764 18.64 15.3072 18.6894 15.8472 18.6726C15.7214 19.3837 15.6661 20.1209 15.6628 20.8723L10.8455 23.6431L14.5629 25.7179C14.8599 25.8839 15.143 26.0736 15.4084 26.2862C18.4731 29.0263 20.3158 37.1327 21.5821 41.0922C22.8484 37.1327 24.6911 29.0263 27.7558 26.2862C28.0213 26.074 28.3044 25.8839 28.6014 25.7179L32.3187 23.6431L27.5014 20.8723C27.4977 20.1209 27.4428 19.3837 27.3171 18.6726C27.857 18.6894 28.4002 18.64 28.9336 18.5205C29.7521 18.3369 30.5342 17.9873 31.195 17.4688C31.8754 16.9348 32.4031 16.2352 32.6923 15.4197C33.1409 14.1534 32.9504 12.8219 32.3744 11.6306L32.0778 11.0175L32.0782 11.0171Z" fill="black"/>
</g>
<defs>
<clipPath id="clip0_2009_27">
<rect width="44" height="44" fill="white"/>
</clipPath>
</defs>
</svg>
