<svg xmlns="http://www.w3.org/2000/svg" xmlns:xlink="http://www.w3.org/1999/xlink" version="1.1" id="Layer_1" x="0px" y="0px" viewBox="0 0 2017 305" style="enable-background:new 0 0 2017 305;" xml:space="preserve">
<style type="text/css">
	.st0{fill:#f26938;}
	.st1{fill:#FFFFFF;filter:url(#Adobe_OpacityMaskFilter);}
	
		.st2{mask:url(#path-1-outside-1_779_2181_00000064338418711790280730000013852599493386699656_);fill:none;stroke:#000000;stroke-width:12;}
	.st3{fill:none;stroke:#000000;stroke-width:6;stroke-linecap:round;stroke-linejoin:round;}
</style>
<g>
	<g>
		<path class="st0" d="M2016.9,232.8C2016.9,232.8,2016.9,232.8,2016.9,232.8c-14.2,3.4-26.8,13-34,25.7c-0.4,0.7-1.4,0.7-1.8,0    c-5.8-10.6-13.6-20.1-22.8-27.8c-0.4-0.3-0.9-0.3-1.3,0c-5.3,4.5-9.2,10.6-11.3,17.2c-0.2,0.6-0.9,0.9-1.4,0.6    c-7-3.8-12.5-10.2-15.4-17.7c-0.2-0.6-0.8-0.8-1.4-0.6c-8,4.1-13.9,12-15.7,20.8c-0.1,0.7-0.9,1-1.5,0.7    c-8.5-4.3-16.7-9.5-24.3-15.3c-0.7-0.5-1.7,0-1.7,0.8c-0.5,5.8-3.3,11.3-7.7,15.1c-0.5,0.5-1.3,0.2-1.5-0.5    c-2.5-8.1-5.5-16.6-12.5-21.3c-7.1-4.7-19.1-2-20.7,6c-0.1,0.6-0.7,1-1.2,0.8c-6.1-1.8-10.4-8.4-9.8-14.7c0.1-0.7-0.6-1.4-1.3-1.2    c-13.7,3.1-26.3,10.9-35,21.9c-0.3,0.4-0.9,0.5-1.4,0.2c-5.8-4.4-10.6-10.2-14-16.7c-0.2-0.5-0.8-0.7-1.3-0.4    c-4,2.1-6.9,6.1-7.8,10.6c-0.2,0.9-1.4,1.4-2.1,0.7c-4.2-4.5-8.9-8.5-14.1-11.8c-0.5-0.3-1.1-0.2-1.4,0.3c-4.3,6.8-8,14-11,21.5    c-0.4,0.9-1.6,0.8-1.9,0l-8.6-24.4c-0.2-0.5-0.8-0.8-1.3-0.6c-11.9,5.4-20,18.2-20.2,31.2c0,1.1-1.6,1.6-2.3,0.8    c-10.8-12.7-30.2-17.5-45.6-10.8c-0.4,0.2-0.9,0.1-1.2-0.3c-4.8-6.1-8.3-13.2-10-20.8c-0.1-0.6-0.8-0.9-1.4-0.7    c-9.6,4-18.3,10.1-25.4,17.8c-0.3,0.4-0.9,0.4-1.3,0.1c-3.2-2.2-6-5-8.3-8.1c-0.3-0.4-0.8-0.5-1.2-0.3    c-6.1,2.9-11.2,7.8-14.5,13.8c-0.2,0.4-0.6,0.6-1,0.5c-7.6-1.2-12.6-10.6-9.8-17.6c0.3-0.7-0.2-1.5-0.9-1.5    c-20.5-0.9-39.7,7.9-49.6,25.8c-0.3,0.6-1.1,0.7-1.6,0.2c-9.6-10-13.9-24.7-11.5-38.3c0.1-0.8-0.7-1.5-1.5-1.1    c-15,8.2-27,21.7-33.5,37.5c-0.3,0.6-1.1,0.8-1.6,0.4c-6.6-5.5-13.1-11.1-19.7-16.6c-1.4-1.2-3-2.5-4.9-2.2    c-1.6,0.2-2.8,1.4-4,2.6c-3.1,3.4-6.3,6.8-9.4,10.2c-0.6,0.7-1.8,0.2-1.8-0.8c0.3-9.2-0.9-18.5-3.5-27.3c-0.2-0.6-0.8-0.9-1.4-0.6    c-13.2,6.8-24.5,17.3-32.2,30c-0.3,0.5-1,0.6-1.5,0.3l-29.2-22.2c-0.6-0.5-1.5-0.1-1.6,0.6c-1.6,9.5-4,18.8-7.3,27.8    c-0.3,0.7-1.3,0.9-1.7,0.3c-8.4-11-18.9-20.3-30.8-27.4c-0.6-0.3-1.3,0-1.5,0.6c-3,9.7-9.8,18.3-18.5,23.5    c-0.7,0.4-1.5-0.1-1.5-0.9c-0.1-5.9-2.1-11.6-5.7-16.3c-1.2-1.5-3.2-2-5-1.3c-5.4,2.2-10.2,6-13.6,10.8c-0.5,0.7-1.6,0.6-1.9-0.2    c-2.2-5.4-5.3-10.4-9.2-14.8c-0.3-0.3-0.8-0.4-1.2-0.2c-16.2,8.1-31.6,17.8-46.1,28.7c-0.5,0.4-1.2,0.2-1.5-0.4    c-3.5-6.9-8-13.3-13.4-18.9c-1.2-1.3-2.7-2.6-4.5-2.7c-1.8-0.2-3.6,1-5.1,2c-8.2,5.7-16.3,11.4-24.5,17.2    c-0.9,0.7-2.2-0.6-1.6-1.6c4.4-7.3,7.2-15.5,8.3-23.9c0.1-0.7-0.6-1.2-1.2-1.1c-18.5,5.2-35.9,14.6-50.4,27.3    c-0.5,0.4-1.2,0.3-1.5-0.2c-5.3-8.3-12.3-15.6-20.3-21.3c-0.5-0.3-1.2-0.2-1.4,0.3l-10.5,19.7c-0.5,0.9-1.8,0.6-1.9-0.4    c-1.2-10.3-3.2-14.9-15.6-15.7c-0.3,0-0.5,0.1-0.7,0.3l-26.7,24.4c-0.6,0.6-1.6,0.2-1.7-0.7l-0.8-14.8c0-0.6-0.7-1.1-1.3-0.9    c-11.3,3.6-21.3,10.7-28.4,20.2c-0.5,0.7-1.6,0.5-1.9-0.3c-4.2-13.1-15.6-23.7-29-26.9c-0.5-0.1-1,0.1-1.1,0.6    c-3.1,8.1-6.2,16.2-9.3,24.3c-0.3,0.9-1.6,0.9-1.9,0c-3.2-8-7.5-15.5-12.8-22.2c-1.4-1.8-3.2-3.2-5.3-4.2c-2.3-1-4.8-1.1-7.2-0.3    c-12.6,4.7-23.5,13.8-30.6,25.2c-0.3,0.4-0.8,0.6-1.2,0.4c-5.4-2.8-8.2-9.9-6.4-15.7c0.3-0.9-0.7-2-1.6-1.6    c-10.5,4.6-20,11.2-28,19.4c-0.6,0.6-1.7,0.2-1.8-0.6c-0.8-6.3-2.8-12.5-5.8-18.2c-2-3.8-6.3-5.9-10.6-5.3    c-16.1,2.2-30.6,15.3-33.7,31.5c-0.1,0.8-1,1.1-1.6,0.6c-12.3-9.6-24-20-35-31.1c-0.4-0.4-1-0.4-1.4,0c-4.4,4-8,8.8-10.7,14.1    c-0.4,0.7-1.3,0.8-1.8,0.1c-4.9-7.3-10.4-14-16.6-20.2c-0.4-0.4-1-0.4-1.4,0c-5.7,6.1-8.8,13.6-12.4,21.2    c-0.1,0.3-0.4,0.5-0.8,0.5c-5.8-0.4-13.6-16.8-19.2-8.5c-1.3,2-3,4.1-4.3,6.4c-0.5,0.8-1.8,0.8-2.2-0.1    c-2.6-6.2-7.1-12.4-13.3-11.1c-1.8,0.4-3.4,1.4-5,2.4c-8.5,5.8-16.1,13-22.4,21.2c-0.4,0.6-1.3,0.5-1.7-0.1l-10.3-18.4    c-0.2-0.4-0.7-0.6-1.2-0.5c-22.8,7.9-43.7,21.3-60.5,38.6c-0.5,0.6-1.5,0.3-1.7-0.4c-4.8-16.4-14.3-31.4-27.1-42.6    c-0.4-0.3-1-0.3-1.3,0c-10,9.9-17.1,22.7-20.2,36.4c-0.2,0.8-1.1,1.1-1.7,0.5L533,246.2c-0.6-0.5-1.5-0.2-1.7,0.5l-5.2,26.5    c-0.1,0.7-0.9,1-1.4,0.7c-7.4-4.3-13.5-11.9-18-19.3c-0.3-0.5-0.9-0.6-1.4-0.3c-4.9,3.4-9.1,8-11.9,13.3c-0.3,0.6-1,0.7-1.5,0.3    c-5.2-4.2-9.1-10-11.2-16.4c-0.8-2.7-1.6-5.7-5.1-6c-1.8-0.2-3.5,0.5-4.8,1.7l-33.6,28c-0.5,0.4-1.2,0.3-1.5-0.3    c-4.2-7.5-9-14.7-14.4-21.5c-4.1-5.1-9-10.4-17.1-8.1c-2.6,0.7-5,2.2-7,4.1c-5,4.9-6.9,11.7-8.5,18.4c-0.2,0.7-1,1-1.5,0.5    c-4.3-4.4-5.6-11.5-3.3-17.2c0.3-0.9-0.5-1.9-1.3-1.6c-12,4.3-22.4,12.9-28.9,23.9c-0.4,0.7-1.4,0.7-1.8,0l-10.9-20.1    c-0.4-0.7-1.3-0.7-1.7-0.1c-4.6,6.7-8.7,13.7-12.2,21.1c-0.4,0.8-1.5,0.8-1.9-0.1c-3.2-7.9-7-15.6-11.4-22.9    c-0.4-0.6-1.3-0.6-1.7,0c-3.2,5.9-5.5,12.3-6.7,18.9c-0.2,1-1.5,1.2-1.9,0.3c-3.9-7.6-6.5-14.9-12.8-21c-0.4-0.4-1.1-0.3-1.4,0.1    c-10,12.6-20.3,24.9-30.9,36.9c-0.6,0.7-1.7,0.3-1.8-0.6c-2-17.8-9-35-20.1-49.1c-0.3-0.4-0.9-0.5-1.4-0.2    c-5.6,4.6-8.9,11.9-8.8,19.2c0,1-1.3,1.6-1.9,0.7c-3.8-5.4-6.2-11.8-6.8-18.4c-0.1-0.7-0.8-1.2-1.4-0.8c-12,6-21.1,17.6-24.2,30.6    c-0.2,0.7-1,1-1.5,0.5c-4.7-4.3-6.1-11.9-3.6-17.8c0.4-0.9-0.5-2.1-1.4-1.7c-16.6,6.7-30.5,20.2-37.8,36.7c-0.4,0.9-1.7,0.8-2-0.1    c-4.8-12.8-13.4-24.2-24.4-32.3c-0.6-0.5-1.5,0-1.6,0.7c-1.1,9.9-5.4,19.4-11.9,26.8c-0.6,0.7-1.8,0.2-1.8-0.8    c-0.2-7.7-4.4-15.3-11-19.4c-0.4-0.2-0.9-0.2-1.2,0.2c-3.5,3.8-6.7,7.9-9.4,12.3c-0.3,0.4-0.8,0.6-1.3,0.3    c-3.5-2.1-5.5-6.4-5.3-10.6c0.1-1.1-1.7-2.3-2.4-1.5c-7.4,7.4-11.2,18.4-9.9,28.8c0.1,0.8-0.7,1.4-1.4,1.1    c-31.7-13.7-56.2-43.2-63.8-77c0-0.1,0-0.2,0-0.3L12.6,45.2c0-0.3,0.1-0.5,0.3-0.7c9.7-8.4,18.1-18.2,24.8-29.1    c0.5-0.7,1.6-0.6,1.8,0.2c1.7,6.1,3.5,12.3,5.2,18.4c0.2,0.7,1.1,1,1.6,0.5c5-4.5,10-9,14.9-13.6c0.6-0.5,1.5-0.2,1.7,0.6    c0.7,4.5,1.5,9,2.2,13.6c0.1,0.8,1,1.1,1.6,0.6c7-6,12-14.4,13.8-23.5c0.1-0.6,0.7-0.9,1.2-0.8c13.5,3.7,25.5,12.6,33,24.4    c0.4,0.7,1.5,0.6,1.9-0.1c1.7-3.5,4-6.8,6.8-9.5c0.5-0.5,1.3-0.3,1.6,0.3c1.7,4.1,3.8,8,6.2,11.6c0.3,0.5,0.9,0.6,1.4,0.3    c13.8-9.6,28.8-17.5,44.5-23.5c0.9-0.3,1.7,0.7,1.3,1.5c-2.3,4.7-3.3,10-2.9,15.2c0.1,0.9,1.2,1.2,1.8,0.5    c5.9-7.7,14.1-13.4,23.3-16.3c0.7-0.2,1.4,0.4,1.3,1.2c-0.9,5.5,0.2,11.4,3,16.3c0.4,0.7,1.3,0.6,1.7-0.1c2.6-4.8,6-9.1,10-12.7    c0.8-0.7,2.2,0.2,2.2,1.3c0.1,5.6,4.9,11.1,10.6,12.2c7,1.3,14.1-2.7,18.5-8.3c4.1-5.2,6.2-11.6,8-18c0.2-0.7,1.1-1,1.6-0.5    c7.8,7.2,12.2,18,11.7,28.7c0,0.9,1.1,1.5,1.8,0.9c9.1-7.6,19.9-13.3,31.4-16.4c0.8-0.2,1.5,0.6,1.3,1.4    c-1.1,3.6-1.1,7.7,0.2,11.3c0.2,0.6,1,0.8,1.6,0.4c3.9-3.3,8.6-5.7,13.6-6.9c0.9-0.2,1.7,1,1.6,1.9c-0.4,3.7,3.6,8,7.8,8    c5.2,0,9.5-3.9,13.3-7.6c5.7-5.6,11.5-11.2,17.2-16.8c0.4-0.4,1-0.4,1.4,0c7,6.7,11.7,15.8,13,25.4c0.1,0.9,1.2,1.2,1.9,0.6    c6.2-6,14.4-9.9,22.9-11c0.7-0.1,1.2,0.5,1.1,1.2c-0.5,6.2,4.5,12.6,10.9,12.9c0.3,0,0.5-0.1,0.7-0.3c6.8-7.2,15.2-12.9,24.4-16.7    c1-0.4,1.9,0.9,1.3,1.8c-5.9,9.3-4,23.1,4.5,30.1c0.5,0.4,1.2,0.2,1.5-0.4C449,42,461.5,31.6,476,28c0.6-0.2,1.3,0.4,1.3,1    c0,8.8,5.8,17.4,13.9,20.7c0.6,0.2,1.2-0.1,1.3-0.8c1.3-6.2,5.5-11.8,11-14.9c0.6-0.3,1.3,0,1.4,0.7c2.3,10,12.4,18,22.6,16.5    c9.7-1.5,16.9-12.3,14.5-21.6c-0.2-0.9,0.7-1.8,1.5-1.4c13.4,6.6,23.4,19.6,26.5,34.2c0.2,1,1.7,1.2,2.2,0.3    c5.8-11.1,16.1-19.8,28.1-23.4c0.9-0.3,1.7,0.8,1.5,1.7c-0.7,2.4-0.2,5.2,1.3,7.2c0.3,0.4,0.9,0.4,1.3,0.1    c11.9-9.2,23.8-18.4,35.7-27.7c0.5-0.4,1.3-0.2,1.5,0.4c1.9,4.9,3,10.1,3.4,15.4c0.1,1.2,3.1,1.9,3.7,0.8    c5.7-9.9,14.8-17.9,25.4-22c0.7-0.3,1.4,0.4,1.3,1.1c-1.1,5.9-1.5,12.1,0.2,17.9c1.9,6.5,7,12.5,13.8,13.6c0.4,0.1,0.8-0.1,1-0.5    c6.7-11.5,20.1-17.4,32.8-22.2c0.7-0.3,1.5,0.4,1.3,1.2c-0.8,3.8-1.5,7.7-0.7,11.5c0.9,4.4,4.3,8.6,8.8,9    c4.1,0.3,7.7-2.5,10.8-5.2c5.6-4.8,11.4-10,14.3-16.7c0.4-0.8,1.6-0.9,2-0.1c2.8,4.9,6.3,9.5,10.3,13.5c2,2.1,4.6,4.1,7.5,3.7    c1.6-0.2,3-1.3,4.1-2.4c4.3-4.3,5.5-11.2,3.7-16.9c-0.3-1.1,1.2-2.6,2.1-1.8c9.3,8,14.6,20.1,18,32.2c0.3,1,1.7,1,2.2,0.2    c3.6-6.9,10.6-11.9,18.3-13c0.8-0.1,1.3,0.7,1.1,1.4c-1.1,3.9,0.2,8.5,3.3,11.1c0.3,0.3,0.8,0.3,1.1,0    c7.8-5.7,14.1-13.4,18.2-22.1c0.3-0.6,1.2-0.8,1.6-0.3c2.6,3.1,4.4,6.7,5.4,10.6c0.3,1.2,4.1,1.9,4.8,0.9    c5.2-7.2,13.5-12.3,22.4-13.2c0.7-0.1,1.2,0.5,1.1,1.2c-0.8,5.3,0.2,10.8,2.9,15.5c1.1,1.8,2.6,3.7,4.7,3.9c1.5,0.2,3-0.5,4.4-1.2    c10.4-5.6,18.6-15.2,22.5-26.3c0.2-0.5,0.7-0.8,1.2-0.6c14,4.5,26.1,14.8,32.8,27.9c0.3,0.7,1.3,0.8,1.7,0.2    c9.8-11.8,25.8-16.3,41-19.7c0.9-0.2,1.6,0.9,1.2,1.7c-4.8,9.3-0.1,22.8,9.9,26.4c9.3,3.3,20.3-2.7,23.7-11.7    c0.4-1,2.4-1.2,2.8-0.2c1.6,4.4,3.2,8.8,4.8,13.2c0.2,0.7,1.2,0.9,1.7,0.4c10.5-10.8,23.8-18.9,38.3-23.2c0.6-0.2,1.3,0.3,1.3,0.9    c0.5,6.8,4.2,13.3,9.9,17c0.4,0.3,1,0.2,1.3-0.2c3.6-4.6,7.4-9,11.6-13.1c0.5-0.5,1.4-0.3,1.7,0.4c1.2,3.9,2.7,7.8,4.3,11.6    c0.6,1.3,1.2,2.7,2.4,3.6c2.7,2,6.4,0.3,9.3-1.3c21.5-11.9,44.4-21.2,68.1-27.5c0.8-0.2,1.5,0.5,1.2,1.3    c-1.7,5.5-2.5,11.3-2.4,17.1c0.1,2.9,0.4,6,2.4,8.1c2.8,3,8.1,2.5,11.4,0.1c3-2.2,4.9-5.6,6.6-9c0.3-0.6,1-0.7,1.4-0.3    c5.9,5.8,2.6,19.9,10.8,21.5c5.4,1.1,9.2-5,11.1-10.2c2.1-5.7,3.8-11.6,5.1-17.6c0.2-0.9,1.4-1.1,1.9-0.3    c4.1,7.1,9.4,14.2,17.3,15.2c8.5,1.1,15.9-5.4,22.8-10.5c14.8-10.8,33.1-16.6,51.4-16.3c0.7,0,1.1,0.7,0.9,1.3    c-1.7,4.9-2.8,10.1-3.1,15.3c-0.1,2.2-0.1,4.5,1,6.4c2.4,4.2,9.1,4,12.7,0.8c3-2.6,4.5-6.4,5.7-10.3c0.3-0.9,1.5-1,1.9-0.2    c2.9,5.1,6.9,10,12.5,9.3c2.3-0.3,4.3-1.6,6.2-3c7.9-6,13.7-14.7,16.2-24.2c0.2-0.6,0.9-1,1.5-0.6c17.4,9.7,31.8,24.8,40.8,42.7    c0.3,0.6,1.2,0.8,1.6,0.2c4.1-4.7,6.5-10.8,6.8-17c0.1-1,1.5-1.5,2.1-0.7c3.3,4.7,6.6,9.3,9.9,14c0.3,0.5,1,0.6,1.4,0.2    c9.4-7,20.1-12.3,31.4-15.5c0.8-0.2,1.5,0.5,1.3,1.3c-1.9,6.7-1.4,14,1.3,20.5c0.3,0.7,1.3,0.8,1.7,0.1c5.9-8.5,14-15.5,23.3-20.1    c0.8-0.4,1.7,0.5,1.5,1.3c-2.3,7.7,0.2,16.5,5.5,22.6c5.9,6.8,14.7,10.5,23.6,11.8c1.7,0.2,3.5,0.4,4.9-0.4c1.7-1,2.5-2.9,3.3-4.7    c4.4-9.4,13.1-16.7,23.1-19.5c0.8-0.2,1.4,0.5,1.2,1.3c-1.3,4.8-1.5,10.1,0.4,14.7c2.2,5.1,7.4,9.2,12.9,8.9    c4.8-0.2,8.8-3.4,12.3-6.6c5.1-4.8,10-10.8,11.1-17.6c0.2-1.1,1.9-1.5,2.5-0.6c2.7,4.7,5.4,9.4,8.1,14.2c1.2,2,2.5,4.3,4.8,4.8    c1.7,0.4,3.5-0.2,5.1-1.1c12-6.5,17.2-24.2,30-27c0.8-0.2,1.4,0.8,1,1.5c-2.8,5.2-3.1,12,0.7,16.4c4.4,5.2,14.9,4.2,16.2-2.9    c0-0.2,0.1-0.3,0.2-0.4c11-15,21.7-21.7,38.7-23.4c1-0.1,1.5,1.3,0.7,1.9c-4.9,4.1-8.6,9.6-10.4,15.7c-1.4,4.8-1.1,11.2,3.5,13.4    c3.8,1.9,8.3-0.4,11.7-2.9c5.7-4.3,10.7-9.6,14.5-15.6c-5,7.6,3.2,18.7,12.2,18.6c8.7-0.1,15.8-7.5,18.7-15.7    c0.2-0.6,0.9-0.9,1.5-0.6c10.9,6.3,19.8,16.1,25,27.5c0.3,0.7,1.2,0.8,1.7,0.3c5.7-6.5,9.8-14.5,11.9-22.9    c0.2-0.8,1.2-1.1,1.7-0.5c4.4,4.6,8.3,9.7,11.4,15.3c0.3,0.6,1.1,0.7,1.6,0.2c12.7-12,29.7-19.3,47.1-20.3c0.7,0,1.2,0.6,1,1.2    c-1.3,5.2-2,10.8-0.2,15.9c2,5.5,7.8,9.9,13.4,8.5c5.8-1.4,8.6-7.7,11.6-12.9c8.6-14.5,25.2-23.7,42-23.6c0.9,0,1.3,1.2,0.6,1.8    c-6.8,6.5-10.4,16.2-9.3,25.6c0.2,2.1,0.8,4.4,2.5,5.8c3.6,2.9,8.9-0.5,11.8-4.1c2.3-2.8,4.9-6,8.1-7c0.9-0.3,1.3,1,0.7,1.8    c-2.7,3.9-0.8,11,4.1,12.7c5.9,2,12.7-3,14-9.1c0.9-4.2-0.1-8.5-2.2-12.3c-0.6-1,0.7-2.4,1.7-1.9c23,14.1,41.2,36.1,50.6,61.4    c0,0.1,0.1,0.2,0.1,0.3L2016.9,232.8z" fill="#000000"/>
		<defs fill="#000000">
			<filter id="Adobe_OpacityMaskFilter" filterUnits="userSpaceOnUse" x="-6" y="0.8" width="2029" height="296.6" fill="#000000">
				<feColorMatrix type="matrix" values="1 0 0 0 0  0 1 0 0 0  0 0 1 0 0  0 0 0 1 0" fill="#000000"/>
			</filter>
		</defs>
		
			<mask maskUnits="userSpaceOnUse" x="-6" y="0.8" width="2029" height="296.6" id="path-1-outside-1_779_2181_00000064338418711790280730000013852599493386699656_" fill="#000000">
			<rect x="-6" class="st1" width="2029" height="298" fill="#000000"/>
			<path d="M2016.9,232.8C2016.9,232.8,2016.9,232.8,2016.9,232.8c-14.2,3.4-26.8,13-34,25.7c-0.4,0.7-1.4,0.7-1.8,0     c-5.8-10.6-13.6-20.1-22.8-27.8c-0.4-0.3-0.9-0.3-1.3,0c-5.3,4.5-9.2,10.6-11.3,17.2c-0.2,0.6-0.9,0.9-1.4,0.6     c-7-3.8-12.5-10.2-15.4-17.7c-0.2-0.6-0.8-0.8-1.4-0.6c-8,4.1-13.9,12-15.7,20.8c-0.1,0.7-0.9,1-1.5,0.7     c-8.5-4.3-16.7-9.5-24.3-15.3c-0.7-0.5-1.7,0-1.7,0.8c-0.5,5.8-3.3,11.3-7.7,15.1c-0.5,0.5-1.3,0.2-1.5-0.5     c-2.5-8.1-5.5-16.6-12.5-21.3c-7.1-4.7-19.1-2-20.7,6c-0.1,0.6-0.7,1-1.2,0.8c-6.1-1.8-10.4-8.4-9.8-14.7     c0.1-0.7-0.6-1.4-1.3-1.2c-13.7,3.1-26.3,10.9-35,21.9c-0.3,0.4-0.9,0.5-1.4,0.2c-5.8-4.4-10.6-10.2-14-16.7     c-0.2-0.5-0.8-0.7-1.3-0.4c-4,2.1-6.9,6.1-7.8,10.6c-0.2,0.9-1.4,1.4-2.1,0.7c-4.2-4.5-8.9-8.5-14.1-11.8     c-0.5-0.3-1.1-0.2-1.4,0.3c-4.3,6.8-8,14-11,21.5c-0.4,0.9-1.6,0.8-1.9,0l-8.6-24.4c-0.2-0.5-0.8-0.8-1.3-0.6     c-11.9,5.4-20,18.2-20.2,31.2c0,1.1-1.6,1.6-2.3,0.8c-10.8-12.7-30.2-17.5-45.6-10.8c-0.4,0.2-0.9,0.1-1.2-0.3     c-4.8-6.1-8.3-13.2-10-20.8c-0.1-0.6-0.8-0.9-1.4-0.7c-9.6,4-18.3,10.1-25.4,17.8c-0.3,0.4-0.9,0.4-1.3,0.1c-3.2-2.2-6-5-8.3-8.1     c-0.3-0.4-0.8-0.5-1.2-0.3c-6.1,2.9-11.2,7.8-14.5,13.8c-0.2,0.4-0.6,0.6-1,0.5c-7.6-1.2-12.6-10.6-9.8-17.6     c0.3-0.7-0.2-1.5-0.9-1.5c-20.5-0.9-39.7,7.9-49.6,25.8c-0.3,0.6-1.1,0.7-1.6,0.2c-9.6-10-13.9-24.7-11.5-38.3     c0.1-0.8-0.7-1.5-1.5-1.1c-15,8.2-27,21.7-33.5,37.5c-0.3,0.6-1.1,0.8-1.6,0.4c-6.6-5.5-13.1-11.1-19.7-16.6     c-1.4-1.2-3-2.5-4.9-2.2c-1.6,0.2-2.8,1.4-4,2.6c-3.1,3.4-6.3,6.8-9.4,10.2c-0.6,0.7-1.8,0.2-1.8-0.8c0.3-9.2-0.9-18.5-3.5-27.3     c-0.2-0.6-0.8-0.9-1.4-0.6c-13.2,6.8-24.5,17.3-32.2,30c-0.3,0.5-1,0.6-1.5,0.3l-29.2-22.2c-0.6-0.5-1.5-0.1-1.6,0.6     c-1.6,9.5-4,18.8-7.3,27.8c-0.3,0.7-1.3,0.9-1.7,0.3c-8.4-11-18.9-20.3-30.8-27.4c-0.6-0.3-1.3,0-1.5,0.6     c-3,9.7-9.8,18.3-18.5,23.5c-0.7,0.4-1.5-0.1-1.5-0.9c-0.1-5.9-2.1-11.6-5.7-16.3c-1.2-1.5-3.2-2-5-1.3     c-5.4,2.2-10.2,6-13.6,10.8c-0.5,0.7-1.6,0.6-1.9-0.2c-2.2-5.4-5.3-10.4-9.2-14.8c-0.3-0.3-0.8-0.4-1.2-0.2     c-16.2,8.1-31.6,17.8-46.1,28.7c-0.5,0.4-1.2,0.2-1.5-0.4c-3.5-6.9-8-13.3-13.4-18.9c-1.2-1.3-2.7-2.6-4.5-2.7     c-1.8-0.2-3.6,1-5.1,2c-8.2,5.7-16.3,11.4-24.5,17.2c-0.9,0.7-2.2-0.6-1.6-1.6c4.4-7.3,7.2-15.5,8.3-23.9     c0.1-0.7-0.6-1.2-1.2-1.1c-18.5,5.2-35.9,14.6-50.4,27.3c-0.5,0.4-1.2,0.3-1.5-0.2c-5.3-8.3-12.3-15.6-20.3-21.3     c-0.5-0.3-1.2-0.2-1.4,0.3l-10.5,19.7c-0.5,0.9-1.8,0.6-1.9-0.4c-1.2-10.3-3.2-14.9-15.6-15.7c-0.3,0-0.5,0.1-0.7,0.3l-26.7,24.4     c-0.6,0.6-1.6,0.2-1.7-0.7l-0.8-14.8c0-0.6-0.7-1.1-1.3-0.9c-11.3,3.6-21.3,10.7-28.4,20.2c-0.5,0.7-1.6,0.5-1.9-0.3     c-4.2-13.1-15.6-23.7-29-26.9c-0.5-0.1-1,0.1-1.1,0.6c-3.1,8.1-6.2,16.2-9.3,24.3c-0.3,0.9-1.6,0.9-1.9,0     c-3.2-8-7.5-15.5-12.8-22.2c-1.4-1.8-3.2-3.2-5.3-4.2c-2.3-1-4.8-1.1-7.2-0.3c-12.6,4.7-23.5,13.8-30.6,25.2     c-0.3,0.4-0.8,0.6-1.2,0.4c-5.4-2.8-8.2-9.9-6.4-15.7c0.3-0.9-0.7-2-1.6-1.6c-10.5,4.6-20,11.2-28,19.4c-0.6,0.6-1.7,0.2-1.8-0.6     c-0.8-6.3-2.8-12.5-5.8-18.2c-2-3.8-6.3-5.9-10.6-5.3c-16.1,2.2-30.6,15.3-33.7,31.5c-0.1,0.8-1,1.1-1.6,0.6     c-12.3-9.6-24-20-35-31.1c-0.4-0.4-1-0.4-1.4,0c-4.4,4-8,8.8-10.7,14.1c-0.4,0.7-1.3,0.8-1.8,0.1c-4.9-7.3-10.4-14-16.6-20.2     c-0.4-0.4-1-0.4-1.4,0c-5.7,6.1-8.8,13.6-12.4,21.2c-0.1,0.3-0.4,0.5-0.8,0.5c-5.8-0.4-13.6-16.8-19.2-8.5c-1.3,2-3,4.1-4.3,6.4     c-0.5,0.8-1.8,0.8-2.2-0.1c-2.6-6.2-7.1-12.4-13.3-11.1c-1.8,0.4-3.4,1.4-5,2.4c-8.5,5.8-16.1,13-22.4,21.2     c-0.4,0.6-1.3,0.5-1.7-0.1l-10.3-18.4c-0.2-0.4-0.7-0.6-1.2-0.5c-22.8,7.9-43.7,21.3-60.5,38.6c-0.5,0.6-1.5,0.3-1.7-0.4     c-4.8-16.4-14.3-31.4-27.1-42.6c-0.4-0.3-1-0.3-1.3,0c-10,9.9-17.1,22.7-20.2,36.4c-0.2,0.8-1.1,1.1-1.7,0.5L533,246.2     c-0.6-0.5-1.5-0.2-1.7,0.5l-5.2,26.5c-0.1,0.7-0.9,1-1.4,0.7c-7.4-4.3-13.5-11.9-18-19.3c-0.3-0.5-0.9-0.6-1.4-0.3     c-4.9,3.4-9.1,8-11.9,13.3c-0.3,0.6-1,0.7-1.5,0.3c-5.2-4.2-9.1-10-11.2-16.4c-0.8-2.7-1.6-5.7-5.1-6c-1.8-0.2-3.5,0.5-4.8,1.7     l-33.6,28c-0.5,0.4-1.2,0.3-1.5-0.3c-4.2-7.5-9-14.7-14.4-21.5c-4.1-5.1-9-10.4-17.1-8.1c-2.6,0.7-5,2.2-7,4.1     c-5,4.9-6.9,11.7-8.5,18.4c-0.2,0.7-1,1-1.5,0.5c-4.3-4.4-5.6-11.5-3.3-17.2c0.3-0.9-0.5-1.9-1.3-1.6     c-12,4.3-22.4,12.9-28.9,23.9c-0.4,0.7-1.4,0.7-1.8,0l-10.9-20.1c-0.4-0.7-1.3-0.7-1.7-0.1c-4.6,6.7-8.7,13.7-12.2,21.1     c-0.4,0.8-1.5,0.8-1.9-0.1c-3.2-7.9-7-15.6-11.4-22.9c-0.4-0.6-1.3-0.6-1.7,0c-3.2,5.9-5.5,12.3-6.7,18.9c-0.2,1-1.5,1.2-1.9,0.3     c-3.9-7.6-6.5-14.9-12.8-21c-0.4-0.4-1.1-0.3-1.4,0.1c-10,12.6-20.3,24.9-30.9,36.9c-0.6,0.7-1.7,0.3-1.8-0.6     c-2-17.8-9-35-20.1-49.1c-0.3-0.4-0.9-0.5-1.4-0.2c-5.6,4.6-8.9,11.9-8.8,19.2c0,1-1.3,1.6-1.9,0.7c-3.8-5.4-6.2-11.8-6.8-18.4     c-0.1-0.7-0.8-1.2-1.4-0.8c-12,6-21.1,17.6-24.2,30.6c-0.2,0.7-1,1-1.5,0.5c-4.7-4.3-6.1-11.9-3.6-17.8c0.4-0.9-0.5-2.1-1.4-1.7     c-16.6,6.7-30.5,20.2-37.8,36.7c-0.4,0.9-1.7,0.8-2-0.1c-4.8-12.8-13.4-24.2-24.4-32.3c-0.6-0.5-1.5,0-1.6,0.7     c-1.1,9.9-5.4,19.4-11.9,26.8c-0.6,0.7-1.8,0.2-1.8-0.8c-0.2-7.7-4.4-15.3-11-19.4c-0.4-0.2-0.9-0.2-1.2,0.2     c-3.5,3.8-6.7,7.9-9.4,12.3c-0.3,0.4-0.8,0.6-1.3,0.3c-3.5-2.1-5.5-6.4-5.3-10.6c0.1-1.1-1.7-2.3-2.4-1.5     c-7.4,7.4-11.2,18.4-9.9,28.8c0.1,0.8-0.7,1.4-1.4,1.1c-31.7-13.7-56.2-43.2-63.8-77c0-0.1,0-0.2,0-0.3L12.6,45.2     c0-0.3,0.1-0.5,0.3-0.7c9.7-8.4,18.1-18.2,24.8-29.1c0.5-0.7,1.6-0.6,1.8,0.2c1.7,6.1,3.5,12.3,5.2,18.4c0.2,0.7,1.1,1,1.6,0.5     c5-4.5,10-9,14.9-13.6c0.6-0.5,1.5-0.2,1.7,0.6c0.7,4.5,1.5,9,2.2,13.6c0.1,0.8,1,1.1,1.6,0.6c7-6,12-14.4,13.8-23.5     c0.1-0.6,0.7-0.9,1.2-0.8c13.5,3.7,25.5,12.6,33,24.4c0.4,0.7,1.5,0.6,1.9-0.1c1.7-3.5,4-6.8,6.8-9.5c0.5-0.5,1.3-0.3,1.6,0.3     c1.7,4.1,3.8,8,6.2,11.6c0.3,0.5,0.9,0.6,1.4,0.3c13.8-9.6,28.8-17.5,44.5-23.5c0.9-0.3,1.7,0.7,1.3,1.5     c-2.3,4.7-3.3,10-2.9,15.2c0.1,0.9,1.2,1.2,1.8,0.5c5.9-7.7,14.1-13.4,23.3-16.3c0.7-0.2,1.4,0.4,1.3,1.2     c-0.9,5.5,0.2,11.4,3,16.3c0.4,0.7,1.3,0.6,1.7-0.1c2.6-4.8,6-9.1,10-12.7c0.8-0.7,2.2,0.2,2.2,1.3c0.1,5.6,4.9,11.1,10.6,12.2     c7,1.3,14.1-2.7,18.5-8.3c4.1-5.2,6.2-11.6,8-18c0.2-0.7,1.1-1,1.6-0.5c7.8,7.2,12.2,18,11.7,28.7c0,0.9,1.1,1.5,1.8,0.9     c9.1-7.6,19.9-13.3,31.4-16.4c0.8-0.2,1.5,0.6,1.3,1.4c-1.1,3.6-1.1,7.7,0.2,11.3c0.2,0.6,1,0.8,1.6,0.4     c3.9-3.3,8.6-5.7,13.6-6.9c0.9-0.2,1.7,1,1.6,1.9c-0.4,3.7,3.6,8,7.8,8c5.2,0,9.5-3.9,13.3-7.6c5.7-5.6,11.5-11.2,17.2-16.8     c0.4-0.4,1-0.4,1.4,0c7,6.7,11.7,15.8,13,25.4c0.1,0.9,1.2,1.2,1.9,0.6c6.2-6,14.4-9.9,22.9-11c0.7-0.1,1.2,0.5,1.1,1.2     c-0.5,6.2,4.5,12.6,10.9,12.9c0.3,0,0.5-0.1,0.7-0.3c6.8-7.2,15.2-12.9,24.4-16.7c1-0.4,1.9,0.9,1.3,1.8     c-5.9,9.3-4,23.1,4.5,30.1c0.5,0.4,1.2,0.2,1.5-0.4C449,42,461.5,31.6,476,28c0.6-0.2,1.3,0.4,1.3,1c0,8.8,5.8,17.4,13.9,20.7     c0.6,0.2,1.2-0.1,1.3-0.8c1.3-6.2,5.5-11.8,11-14.9c0.6-0.3,1.3,0,1.4,0.7c2.3,10,12.4,18,22.6,16.5c9.7-1.5,16.9-12.3,14.5-21.6     c-0.2-0.9,0.7-1.8,1.5-1.4c13.4,6.6,23.4,19.6,26.5,34.2c0.2,1,1.7,1.2,2.2,0.3c5.8-11.1,16.1-19.8,28.1-23.4     c0.9-0.3,1.7,0.8,1.5,1.7c-0.7,2.4-0.2,5.2,1.3,7.2c0.3,0.4,0.9,0.4,1.3,0.1c11.9-9.2,23.8-18.4,35.7-27.7     c0.5-0.4,1.3-0.2,1.5,0.4c1.9,4.9,3,10.1,3.4,15.4c0.1,1.2,3.1,1.9,3.7,0.8c5.7-9.9,14.8-17.9,25.4-22c0.7-0.3,1.4,0.4,1.3,1.1     c-1.1,5.9-1.5,12.1,0.2,17.9c1.9,6.5,7,12.5,13.8,13.6c0.4,0.1,0.8-0.1,1-0.5c6.7-11.5,20.1-17.4,32.8-22.2     c0.7-0.3,1.5,0.4,1.3,1.2c-0.8,3.8-1.5,7.7-0.7,11.5c0.9,4.4,4.3,8.6,8.8,9c4.1,0.3,7.7-2.5,10.8-5.2c5.6-4.8,11.4-10,14.3-16.7     c0.4-0.8,1.6-0.9,2-0.1c2.8,4.9,6.3,9.5,10.3,13.5c2,2.1,4.6,4.1,7.5,3.7c1.6-0.2,3-1.3,4.1-2.4c4.3-4.3,5.5-11.2,3.7-16.9     c-0.3-1.1,1.2-2.6,2.1-1.8c9.3,8,14.6,20.1,18,32.2c0.3,1,1.7,1,2.2,0.2c3.6-6.9,10.6-11.9,18.3-13c0.8-0.1,1.3,0.7,1.1,1.4     c-1.1,3.9,0.2,8.5,3.3,11.1c0.3,0.3,0.8,0.3,1.1,0c7.8-5.7,14.1-13.4,18.2-22.1c0.3-0.6,1.2-0.8,1.6-0.3     c2.6,3.1,4.4,6.7,5.4,10.6c0.3,1.2,4.1,1.9,4.8,0.9c5.2-7.2,13.5-12.3,22.4-13.2c0.7-0.1,1.2,0.5,1.1,1.2     c-0.8,5.3,0.2,10.8,2.9,15.5c1.1,1.8,2.6,3.7,4.7,3.9c1.5,0.2,3-0.5,4.4-1.2c10.4-5.6,18.6-15.2,22.5-26.3     c0.2-0.5,0.7-0.8,1.2-0.6c14,4.5,26.1,14.8,32.8,27.9c0.3,0.7,1.3,0.8,1.7,0.2c9.8-11.8,25.8-16.3,41-19.7     c0.9-0.2,1.6,0.9,1.2,1.7c-4.8,9.3-0.1,22.8,9.9,26.4c9.3,3.3,20.3-2.7,23.7-11.7c0.4-1,2.4-1.2,2.8-0.2     c1.6,4.4,3.2,8.8,4.8,13.2c0.2,0.7,1.2,0.9,1.7,0.4c10.5-10.8,23.8-18.9,38.3-23.2c0.6-0.2,1.3,0.3,1.3,0.9     c0.5,6.8,4.2,13.3,9.9,17c0.4,0.3,1,0.2,1.3-0.2c3.6-4.6,7.4-9,11.6-13.1c0.5-0.5,1.4-0.3,1.7,0.4c1.2,3.9,2.7,7.8,4.3,11.6     c0.6,1.3,1.2,2.7,2.4,3.6c2.7,2,6.4,0.3,9.3-1.3c21.5-11.9,44.4-21.2,68.1-27.5c0.8-0.2,1.5,0.5,1.2,1.3     c-1.7,5.5-2.5,11.3-2.4,17.1c0.1,2.9,0.4,6,2.4,8.1c2.8,3,8.1,2.5,11.4,0.1c3-2.2,4.9-5.6,6.6-9c0.3-0.6,1-0.7,1.4-0.3     c5.9,5.8,2.6,19.9,10.8,21.5c5.4,1.1,9.2-5,11.1-10.2c2.1-5.7,3.8-11.6,5.1-17.6c0.2-0.9,1.4-1.1,1.9-0.3     c4.1,7.1,9.4,14.2,17.3,15.2c8.5,1.1,15.9-5.4,22.8-10.5c14.8-10.8,33.1-16.6,51.4-16.3c0.7,0,1.1,0.7,0.9,1.3     c-1.7,4.9-2.8,10.1-3.1,15.3c-0.1,2.2-0.1,4.5,1,6.4c2.4,4.2,9.1,4,12.7,0.8c3-2.6,4.5-6.4,5.7-10.3c0.3-0.9,1.5-1,1.9-0.2     c2.9,5.1,6.9,10,12.5,9.3c2.3-0.3,4.3-1.6,6.2-3c7.9-6,13.7-14.7,16.2-24.2c0.2-0.6,0.9-1,1.5-0.6c17.4,9.7,31.8,24.8,40.8,42.7     c0.3,0.6,1.2,0.8,1.6,0.2c4.1-4.7,6.5-10.8,6.8-17c0.1-1,1.5-1.5,2.1-0.7c3.3,4.7,6.6,9.3,9.9,14c0.3,0.5,1,0.6,1.4,0.2     c9.4-7,20.1-12.3,31.4-15.5c0.8-0.2,1.5,0.5,1.3,1.3c-1.9,6.7-1.4,14,1.3,20.5c0.3,0.7,1.3,0.8,1.7,0.1     c5.9-8.5,14-15.5,23.3-20.1c0.8-0.4,1.7,0.5,1.5,1.3c-2.3,7.7,0.2,16.5,5.5,22.6c5.9,6.8,14.7,10.5,23.6,11.8     c1.7,0.2,3.5,0.4,4.9-0.4c1.7-1,2.5-2.9,3.3-4.7c4.4-9.4,13.1-16.7,23.1-19.5c0.8-0.2,1.4,0.5,1.2,1.3     c-1.3,4.8-1.5,10.1,0.4,14.7c2.2,5.1,7.4,9.2,12.9,8.9c4.8-0.2,8.8-3.4,12.3-6.6c5.1-4.8,10-10.8,11.1-17.6     c0.2-1.1,1.9-1.5,2.5-0.6c2.7,4.7,5.4,9.4,8.1,14.2c1.2,2,2.5,4.3,4.8,4.8c1.7,0.4,3.5-0.2,5.1-1.1c12-6.5,17.2-24.2,30-27     c0.8-0.2,1.4,0.8,1,1.5c-2.8,5.2-3.1,12,0.7,16.4c4.4,5.2,14.9,4.2,16.2-2.9c0-0.2,0.1-0.3,0.2-0.4c11-15,21.7-21.7,38.7-23.4     c1-0.1,1.5,1.3,0.7,1.9c-4.9,4.1-8.6,9.6-10.4,15.7c-1.4,4.8-1.1,11.2,3.5,13.4c3.8,1.9,8.3-0.4,11.7-2.9     c5.7-4.3,10.7-9.6,14.5-15.6c-5,7.6,3.2,18.7,12.2,18.6c8.7-0.1,15.8-7.5,18.7-15.7c0.2-0.6,0.9-0.9,1.5-0.6     c10.9,6.3,19.8,16.1,25,27.5c0.3,0.7,1.2,0.8,1.7,0.3c5.7-6.5,9.8-14.5,11.9-22.9c0.2-0.8,1.2-1.1,1.7-0.5     c4.4,4.6,8.3,9.7,11.4,15.3c0.3,0.6,1.1,0.7,1.6,0.2c12.7-12,29.7-19.3,47.1-20.3c0.7,0,1.2,0.6,1,1.2c-1.3,5.2-2,10.8-0.2,15.9     c2,5.5,7.8,9.9,13.4,8.5c5.8-1.4,8.6-7.7,11.6-12.9c8.6-14.5,25.2-23.7,42-23.6c0.9,0,1.3,1.2,0.6,1.8     c-6.8,6.5-10.4,16.2-9.3,25.6c0.2,2.1,0.8,4.4,2.5,5.8c3.6,2.9,8.9-0.5,11.8-4.1c2.3-2.8,4.9-6,8.1-7c0.9-0.3,1.3,1,0.7,1.8     c-2.7,3.9-0.8,11,4.1,12.7c5.9,2,12.7-3,14-9.1c0.9-4.2-0.1-8.5-2.2-12.3c-0.6-1,0.7-2.4,1.7-1.9c23,14.1,41.2,36.1,50.6,61.4     c0,0.1,0.1,0.2,0.1,0.3L2016.9,232.8z" fill="#000000"/>
		</mask>
		<path class="st2" d="M2016.9,232.8C2016.9,232.8,2016.9,232.8,2016.9,232.8c-14.2,3.4-26.8,13-34,25.7c-0.4,0.7-1.4,0.7-1.8,0    c-5.8-10.6-13.6-20.1-22.8-27.8c-0.4-0.3-0.9-0.3-1.3,0c-5.3,4.5-9.2,10.6-11.3,17.2c-0.2,0.6-0.9,0.9-1.4,0.6    c-7-3.8-12.5-10.2-15.4-17.7c-0.2-0.6-0.8-0.8-1.4-0.6c-8,4.1-13.9,12-15.7,20.8c-0.1,0.7-0.9,1-1.5,0.7    c-8.5-4.3-16.7-9.5-24.3-15.3c-0.7-0.5-1.7,0-1.7,0.8c-0.5,5.8-3.3,11.3-7.7,15.1c-0.5,0.5-1.3,0.2-1.5-0.5    c-2.5-8.1-5.5-16.6-12.5-21.3c-7.1-4.7-19.1-2-20.7,6c-0.1,0.6-0.7,1-1.2,0.8c-6.1-1.8-10.4-8.4-9.8-14.7c0.1-0.7-0.6-1.4-1.3-1.2    c-13.7,3.1-26.3,10.9-35,21.9c-0.3,0.4-0.9,0.5-1.4,0.2c-5.8-4.4-10.6-10.2-14-16.7c-0.2-0.5-0.8-0.7-1.3-0.4    c-4,2.1-6.9,6.1-7.8,10.6c-0.2,0.9-1.4,1.4-2.1,0.7c-4.2-4.5-8.9-8.5-14.1-11.8c-0.5-0.3-1.1-0.2-1.4,0.3c-4.3,6.8-8,14-11,21.5    c-0.4,0.9-1.6,0.8-1.9,0l-8.6-24.4c-0.2-0.5-0.8-0.8-1.3-0.6c-11.9,5.4-20,18.2-20.2,31.2c0,1.1-1.6,1.6-2.3,0.8    c-10.8-12.7-30.2-17.5-45.6-10.8c-0.4,0.2-0.9,0.1-1.2-0.3c-4.8-6.1-8.3-13.2-10-20.8c-0.1-0.6-0.8-0.9-1.4-0.7    c-9.6,4-18.3,10.1-25.4,17.8c-0.3,0.4-0.9,0.4-1.3,0.1c-3.2-2.2-6-5-8.3-8.1c-0.3-0.4-0.8-0.5-1.2-0.3    c-6.1,2.9-11.2,7.8-14.5,13.8c-0.2,0.4-0.6,0.6-1,0.5c-7.6-1.2-12.6-10.6-9.8-17.6c0.3-0.7-0.2-1.5-0.9-1.5    c-20.5-0.9-39.7,7.9-49.6,25.8c-0.3,0.6-1.1,0.7-1.6,0.2c-9.6-10-13.9-24.7-11.5-38.3c0.1-0.8-0.7-1.5-1.5-1.1    c-15,8.2-27,21.7-33.5,37.5c-0.3,0.6-1.1,0.8-1.6,0.4c-6.6-5.5-13.1-11.1-19.7-16.6c-1.4-1.2-3-2.5-4.9-2.2    c-1.6,0.2-2.8,1.4-4,2.6c-3.1,3.4-6.3,6.8-9.4,10.2c-0.6,0.7-1.8,0.2-1.8-0.8c0.3-9.2-0.9-18.5-3.5-27.3c-0.2-0.6-0.8-0.9-1.4-0.6    c-13.2,6.8-24.5,17.3-32.2,30c-0.3,0.5-1,0.6-1.5,0.3l-29.2-22.2c-0.6-0.5-1.5-0.1-1.6,0.6c-1.6,9.5-4,18.8-7.3,27.8    c-0.3,0.7-1.3,0.9-1.7,0.3c-8.4-11-18.9-20.3-30.8-27.4c-0.6-0.3-1.3,0-1.5,0.6c-3,9.7-9.8,18.3-18.5,23.5    c-0.7,0.4-1.5-0.1-1.5-0.9c-0.1-5.9-2.1-11.6-5.7-16.3c-1.2-1.5-3.2-2-5-1.3c-5.4,2.2-10.2,6-13.6,10.8c-0.5,0.7-1.6,0.6-1.9-0.2    c-2.2-5.4-5.3-10.4-9.2-14.8c-0.3-0.3-0.8-0.4-1.2-0.2c-16.2,8.1-31.6,17.8-46.1,28.7c-0.5,0.4-1.2,0.2-1.5-0.4    c-3.5-6.9-8-13.3-13.4-18.9c-1.2-1.3-2.7-2.6-4.5-2.7c-1.8-0.2-3.6,1-5.1,2c-8.2,5.7-16.3,11.4-24.5,17.2    c-0.9,0.7-2.2-0.6-1.6-1.6c4.4-7.3,7.2-15.5,8.3-23.9c0.1-0.7-0.6-1.2-1.2-1.1c-18.5,5.2-35.9,14.6-50.4,27.3    c-0.5,0.4-1.2,0.3-1.5-0.2c-5.3-8.3-12.3-15.6-20.3-21.3c-0.5-0.3-1.2-0.2-1.4,0.3l-10.5,19.7c-0.5,0.9-1.8,0.6-1.9-0.4    c-1.2-10.3-3.2-14.9-15.6-15.7c-0.3,0-0.5,0.1-0.7,0.3l-26.7,24.4c-0.6,0.6-1.6,0.2-1.7-0.7l-0.8-14.8c0-0.6-0.7-1.1-1.3-0.9    c-11.3,3.6-21.3,10.7-28.4,20.2c-0.5,0.7-1.6,0.5-1.9-0.3c-4.2-13.1-15.6-23.7-29-26.9c-0.5-0.1-1,0.1-1.1,0.6    c-3.1,8.1-6.2,16.2-9.3,24.3c-0.3,0.9-1.6,0.9-1.9,0c-3.2-8-7.5-15.5-12.8-22.2c-1.4-1.8-3.2-3.2-5.3-4.2c-2.3-1-4.8-1.1-7.2-0.3    c-12.6,4.7-23.5,13.8-30.6,25.2c-0.3,0.4-0.8,0.6-1.2,0.4c-5.4-2.8-8.2-9.9-6.4-15.7c0.3-0.9-0.7-2-1.6-1.6    c-10.5,4.6-20,11.2-28,19.4c-0.6,0.6-1.7,0.2-1.8-0.6c-0.8-6.3-2.8-12.5-5.8-18.2c-2-3.8-6.3-5.9-10.6-5.3    c-16.1,2.2-30.6,15.3-33.7,31.5c-0.1,0.8-1,1.1-1.6,0.6c-12.3-9.6-24-20-35-31.1c-0.4-0.4-1-0.4-1.4,0c-4.4,4-8,8.8-10.7,14.1    c-0.4,0.7-1.3,0.8-1.8,0.1c-4.9-7.3-10.4-14-16.6-20.2c-0.4-0.4-1-0.4-1.4,0c-5.7,6.1-8.8,13.6-12.4,21.2    c-0.1,0.3-0.4,0.5-0.8,0.5c-5.8-0.4-13.6-16.8-19.2-8.5c-1.3,2-3,4.1-4.3,6.4c-0.5,0.8-1.8,0.8-2.2-0.1    c-2.6-6.2-7.1-12.4-13.3-11.1c-1.8,0.4-3.4,1.4-5,2.4c-8.5,5.8-16.1,13-22.4,21.2c-0.4,0.6-1.3,0.5-1.7-0.1l-10.3-18.4    c-0.2-0.4-0.7-0.6-1.2-0.5c-22.8,7.9-43.7,21.3-60.5,38.6c-0.5,0.6-1.5,0.3-1.7-0.4c-4.8-16.4-14.3-31.4-27.1-42.6    c-0.4-0.3-1-0.3-1.3,0c-10,9.9-17.1,22.7-20.2,36.4c-0.2,0.8-1.1,1.1-1.7,0.5L533,246.2c-0.6-0.5-1.5-0.2-1.7,0.5l-5.2,26.5    c-0.1,0.7-0.9,1-1.4,0.7c-7.4-4.3-13.5-11.9-18-19.3c-0.3-0.5-0.9-0.6-1.4-0.3c-4.9,3.4-9.1,8-11.9,13.3c-0.3,0.6-1,0.7-1.5,0.3    c-5.2-4.2-9.1-10-11.2-16.4c-0.8-2.7-1.6-5.7-5.1-6c-1.8-0.2-3.5,0.5-4.8,1.7l-33.6,28c-0.5,0.4-1.2,0.3-1.5-0.3    c-4.2-7.5-9-14.7-14.4-21.5c-4.1-5.1-9-10.4-17.1-8.1c-2.6,0.7-5,2.2-7,4.1c-5,4.9-6.9,11.7-8.5,18.4c-0.2,0.7-1,1-1.5,0.5    c-4.3-4.4-5.6-11.5-3.3-17.2c0.3-0.9-0.5-1.9-1.3-1.6c-12,4.3-22.4,12.9-28.9,23.9c-0.4,0.7-1.4,0.7-1.8,0l-10.9-20.1    c-0.4-0.7-1.3-0.7-1.7-0.1c-4.6,6.7-8.7,13.7-12.2,21.1c-0.4,0.8-1.5,0.8-1.9-0.1c-3.2-7.9-7-15.6-11.4-22.9    c-0.4-0.6-1.3-0.6-1.7,0c-3.2,5.9-5.5,12.3-6.7,18.9c-0.2,1-1.5,1.2-1.9,0.3c-3.9-7.6-6.5-14.9-12.8-21c-0.4-0.4-1.1-0.3-1.4,0.1    c-10,12.6-20.3,24.9-30.9,36.9c-0.6,0.7-1.7,0.3-1.8-0.6c-2-17.8-9-35-20.1-49.1c-0.3-0.4-0.9-0.5-1.4-0.2    c-5.6,4.6-8.9,11.9-8.8,19.2c0,1-1.3,1.6-1.9,0.7c-3.8-5.4-6.2-11.8-6.8-18.4c-0.1-0.7-0.8-1.2-1.4-0.8c-12,6-21.1,17.6-24.2,30.6    c-0.2,0.7-1,1-1.5,0.5c-4.7-4.3-6.1-11.9-3.6-17.8c0.4-0.9-0.5-2.1-1.4-1.7c-16.6,6.7-30.5,20.2-37.8,36.7c-0.4,0.9-1.7,0.8-2-0.1    c-4.8-12.8-13.4-24.2-24.4-32.3c-0.6-0.5-1.5,0-1.6,0.7c-1.1,9.9-5.4,19.4-11.9,26.8c-0.6,0.7-1.8,0.2-1.8-0.8    c-0.2-7.7-4.4-15.3-11-19.4c-0.4-0.2-0.9-0.2-1.2,0.2c-3.5,3.8-6.7,7.9-9.4,12.3c-0.3,0.4-0.8,0.6-1.3,0.3    c-3.5-2.1-5.5-6.4-5.3-10.6c0.1-1.1-1.7-2.3-2.4-1.5c-7.4,7.4-11.2,18.4-9.9,28.8c0.1,0.8-0.7,1.4-1.4,1.1    c-31.7-13.7-56.2-43.2-63.8-77c0-0.1,0-0.2,0-0.3L12.6,45.2c0-0.3,0.1-0.5,0.3-0.7c9.7-8.4,18.1-18.2,24.8-29.1    c0.5-0.7,1.6-0.6,1.8,0.2c1.7,6.1,3.5,12.3,5.2,18.4c0.2,0.7,1.1,1,1.6,0.5c5-4.5,10-9,14.9-13.6c0.6-0.5,1.5-0.2,1.7,0.6    c0.7,4.5,1.5,9,2.2,13.6c0.1,0.8,1,1.1,1.6,0.6c7-6,12-14.4,13.8-23.5c0.1-0.6,0.7-0.9,1.2-0.8c13.5,3.7,25.5,12.6,33,24.4    c0.4,0.7,1.5,0.6,1.9-0.1c1.7-3.5,4-6.8,6.8-9.5c0.5-0.5,1.3-0.3,1.6,0.3c1.7,4.1,3.8,8,6.2,11.6c0.3,0.5,0.9,0.6,1.4,0.3    c13.8-9.6,28.8-17.5,44.5-23.5c0.9-0.3,1.7,0.7,1.3,1.5c-2.3,4.7-3.3,10-2.9,15.2c0.1,0.9,1.2,1.2,1.8,0.5    c5.9-7.7,14.1-13.4,23.3-16.3c0.7-0.2,1.4,0.4,1.3,1.2c-0.9,5.5,0.2,11.4,3,16.3c0.4,0.7,1.3,0.6,1.7-0.1c2.6-4.8,6-9.1,10-12.7    c0.8-0.7,2.2,0.2,2.2,1.3c0.1,5.6,4.9,11.1,10.6,12.2c7,1.3,14.1-2.7,18.5-8.3c4.1-5.2,6.2-11.6,8-18c0.2-0.7,1.1-1,1.6-0.5    c7.8,7.2,12.2,18,11.7,28.7c0,0.9,1.1,1.5,1.8,0.9c9.1-7.6,19.9-13.3,31.4-16.4c0.8-0.2,1.5,0.6,1.3,1.4    c-1.1,3.6-1.1,7.7,0.2,11.3c0.2,0.6,1,0.8,1.6,0.4c3.9-3.3,8.6-5.7,13.6-6.9c0.9-0.2,1.7,1,1.6,1.9c-0.4,3.7,3.6,8,7.8,8    c5.2,0,9.5-3.9,13.3-7.6c5.7-5.6,11.5-11.2,17.2-16.8c0.4-0.4,1-0.4,1.4,0c7,6.7,11.7,15.8,13,25.4c0.1,0.9,1.2,1.2,1.9,0.6    c6.2-6,14.4-9.9,22.9-11c0.7-0.1,1.2,0.5,1.1,1.2c-0.5,6.2,4.5,12.6,10.9,12.9c0.3,0,0.5-0.1,0.7-0.3c6.8-7.2,15.2-12.9,24.4-16.7    c1-0.4,1.9,0.9,1.3,1.8c-5.9,9.3-4,23.1,4.5,30.1c0.5,0.4,1.2,0.2,1.5-0.4C449,42,461.5,31.6,476,28c0.6-0.2,1.3,0.4,1.3,1    c0,8.8,5.8,17.4,13.9,20.7c0.6,0.2,1.2-0.1,1.3-0.8c1.3-6.2,5.5-11.8,11-14.9c0.6-0.3,1.3,0,1.4,0.7c2.3,10,12.4,18,22.6,16.5    c9.7-1.5,16.9-12.3,14.5-21.6c-0.2-0.9,0.7-1.8,1.5-1.4c13.4,6.6,23.4,19.6,26.5,34.2c0.2,1,1.7,1.2,2.2,0.3    c5.8-11.1,16.1-19.8,28.1-23.4c0.9-0.3,1.7,0.8,1.5,1.7c-0.7,2.4-0.2,5.2,1.3,7.2c0.3,0.4,0.9,0.4,1.3,0.1    c11.9-9.2,23.8-18.4,35.7-27.7c0.5-0.4,1.3-0.2,1.5,0.4c1.9,4.9,3,10.1,3.4,15.4c0.1,1.2,3.1,1.9,3.7,0.8    c5.7-9.9,14.8-17.9,25.4-22c0.7-0.3,1.4,0.4,1.3,1.1c-1.1,5.9-1.5,12.1,0.2,17.9c1.9,6.5,7,12.5,13.8,13.6c0.4,0.1,0.8-0.1,1-0.5    c6.7-11.5,20.1-17.4,32.8-22.2c0.7-0.3,1.5,0.4,1.3,1.2c-0.8,3.8-1.5,7.7-0.7,11.5c0.9,4.4,4.3,8.6,8.8,9    c4.1,0.3,7.7-2.5,10.8-5.2c5.6-4.8,11.4-10,14.3-16.7c0.4-0.8,1.6-0.9,2-0.1c2.8,4.9,6.3,9.5,10.3,13.5c2,2.1,4.6,4.1,7.5,3.7    c1.6-0.2,3-1.3,4.1-2.4c4.3-4.3,5.5-11.2,3.7-16.9c-0.3-1.1,1.2-2.6,2.1-1.8c9.3,8,14.6,20.1,18,32.2c0.3,1,1.7,1,2.2,0.2    c3.6-6.9,10.6-11.9,18.3-13c0.8-0.1,1.3,0.7,1.1,1.4c-1.1,3.9,0.2,8.5,3.3,11.1c0.3,0.3,0.8,0.3,1.1,0    c7.8-5.7,14.1-13.4,18.2-22.1c0.3-0.6,1.2-0.8,1.6-0.3c2.6,3.1,4.4,6.7,5.4,10.6c0.3,1.2,4.1,1.9,4.8,0.9    c5.2-7.2,13.5-12.3,22.4-13.2c0.7-0.1,1.2,0.5,1.1,1.2c-0.8,5.3,0.2,10.8,2.9,15.5c1.1,1.8,2.6,3.7,4.7,3.9c1.5,0.2,3-0.5,4.4-1.2    c10.4-5.6,18.6-15.2,22.5-26.3c0.2-0.5,0.7-0.8,1.2-0.6c14,4.5,26.1,14.8,32.8,27.9c0.3,0.7,1.3,0.8,1.7,0.2    c9.8-11.8,25.8-16.3,41-19.7c0.9-0.2,1.6,0.9,1.2,1.7c-4.8,9.3-0.1,22.8,9.9,26.4c9.3,3.3,20.3-2.7,23.7-11.7    c0.4-1,2.4-1.2,2.8-0.2c1.6,4.4,3.2,8.8,4.8,13.2c0.2,0.7,1.2,0.9,1.7,0.4c10.5-10.8,23.8-18.9,38.3-23.2c0.6-0.2,1.3,0.3,1.3,0.9    c0.5,6.8,4.2,13.3,9.9,17c0.4,0.3,1,0.2,1.3-0.2c3.6-4.6,7.4-9,11.6-13.1c0.5-0.5,1.4-0.3,1.7,0.4c1.2,3.9,2.7,7.8,4.3,11.6    c0.6,1.3,1.2,2.7,2.4,3.6c2.7,2,6.4,0.3,9.3-1.3c21.5-11.9,44.4-21.2,68.1-27.5c0.8-0.2,1.5,0.5,1.2,1.3    c-1.7,5.5-2.5,11.3-2.4,17.1c0.1,2.9,0.4,6,2.4,8.1c2.8,3,8.1,2.5,11.4,0.1c3-2.2,4.9-5.6,6.6-9c0.3-0.6,1-0.7,1.4-0.3    c5.9,5.8,2.6,19.9,10.8,21.5c5.4,1.1,9.2-5,11.1-10.2c2.1-5.7,3.8-11.6,5.1-17.6c0.2-0.9,1.4-1.1,1.9-0.3    c4.1,7.1,9.4,14.2,17.3,15.2c8.5,1.1,15.9-5.4,22.8-10.5c14.8-10.8,33.1-16.6,51.4-16.3c0.7,0,1.1,0.7,0.9,1.3    c-1.7,4.9-2.8,10.1-3.1,15.3c-0.1,2.2-0.1,4.5,1,6.4c2.4,4.2,9.1,4,12.7,0.8c3-2.6,4.5-6.4,5.7-10.3c0.3-0.9,1.5-1,1.9-0.2    c2.9,5.1,6.9,10,12.5,9.3c2.3-0.3,4.3-1.6,6.2-3c7.9-6,13.7-14.7,16.2-24.2c0.2-0.6,0.9-1,1.5-0.6c17.4,9.7,31.8,24.8,40.8,42.7    c0.3,0.6,1.2,0.8,1.6,0.2c4.1-4.7,6.5-10.8,6.8-17c0.1-1,1.5-1.5,2.1-0.7c3.3,4.7,6.6,9.3,9.9,14c0.3,0.5,1,0.6,1.4,0.2    c9.4-7,20.1-12.3,31.4-15.5c0.8-0.2,1.5,0.5,1.3,1.3c-1.9,6.7-1.4,14,1.3,20.5c0.3,0.7,1.3,0.8,1.7,0.1c5.9-8.5,14-15.5,23.3-20.1    c0.8-0.4,1.7,0.5,1.5,1.3c-2.3,7.7,0.2,16.5,5.5,22.6c5.9,6.8,14.7,10.5,23.6,11.8c1.7,0.2,3.5,0.4,4.9-0.4c1.7-1,2.5-2.9,3.3-4.7    c4.4-9.4,13.1-16.7,23.1-19.5c0.8-0.2,1.4,0.5,1.2,1.3c-1.3,4.8-1.5,10.1,0.4,14.7c2.2,5.1,7.4,9.2,12.9,8.9    c4.8-0.2,8.8-3.4,12.3-6.6c5.1-4.8,10-10.8,11.1-17.6c0.2-1.1,1.9-1.5,2.5-0.6c2.7,4.7,5.4,9.4,8.1,14.2c1.2,2,2.5,4.3,4.8,4.8    c1.7,0.4,3.5-0.2,5.1-1.1c12-6.5,17.2-24.2,30-27c0.8-0.2,1.4,0.8,1,1.5c-2.8,5.2-3.1,12,0.7,16.4c4.4,5.2,14.9,4.2,16.2-2.9    c0-0.2,0.1-0.3,0.2-0.4c11-15,21.7-21.7,38.7-23.4c1-0.1,1.5,1.3,0.7,1.9c-4.9,4.1-8.6,9.6-10.4,15.7c-1.4,4.8-1.1,11.2,3.5,13.4    c3.8,1.9,8.3-0.4,11.7-2.9c5.7-4.3,10.7-9.6,14.5-15.6c-5,7.6,3.2,18.7,12.2,18.6c8.7-0.1,15.8-7.5,18.7-15.7    c0.2-0.6,0.9-0.9,1.5-0.6c10.9,6.3,19.8,16.1,25,27.5c0.3,0.7,1.2,0.8,1.7,0.3c5.7-6.5,9.8-14.5,11.9-22.9    c0.2-0.8,1.2-1.1,1.7-0.5c4.4,4.6,8.3,9.7,11.4,15.3c0.3,0.6,1.1,0.7,1.6,0.2c12.7-12,29.7-19.3,47.1-20.3c0.7,0,1.2,0.6,1,1.2    c-1.3,5.2-2,10.8-0.2,15.9c2,5.5,7.8,9.9,13.4,8.5c5.8-1.4,8.6-7.7,11.6-12.9c8.6-14.5,25.2-23.7,42-23.6c0.9,0,1.3,1.2,0.6,1.8    c-6.8,6.5-10.4,16.2-9.3,25.6c0.2,2.1,0.8,4.4,2.5,5.8c3.6,2.9,8.9-0.5,11.8-4.1c2.3-2.8,4.9-6,8.1-7c0.9-0.3,1.3,1,0.7,1.8    c-2.7,3.9-0.8,11,4.1,12.7c5.9,2,12.7-3,14-9.1c0.9-4.2-0.1-8.5-2.2-12.3c-0.6-1,0.7-2.4,1.7-1.9c23,14.1,41.2,36.1,50.6,61.4    c0,0.1,0.1,0.2,0.1,0.3L2016.9,232.8z" fill="#000000"/>
		<path class="st3" d="M159,69.5c-5.5,8.3-16.2,29.2-15,46c3-2,11.2-6.8,20-10 M100,148c4.8,9.5,14.7,32,15.5,46    c-3.3-3.5-11.7-11-18.5-13 M221.5,120.5c-2.5,0-32,36-29.5,69.5c3.8-1.7,13.3-6.1,20.5-10.5c-3.2,5.2-9.3,17.8-8.5,27    c2.2-1.3,7.4-4.3,11-5.5 M1302,92c-9.7,7.3-29.8,29.7-33,60.5c5.5-6.3,19.8-19.6,33-22c-2,4.2-5.4,15.9-3,29.5    c2.8-3.3,10.1-10.6,16.5-13 M1434.5,113c-9.7,8.7-30.3,32.1-35.5,56.5c1.8-2.5,10-8.5,28-12.5 M1507,145c-4.3,9.3-13,32.4-13,50    c3.2-5.8,10.9-18.3,16.5-21.5 M1227,135c-2.7,9.3-7.7,31.7-6.5,46.5 M1382,54.5c3.5,6.2,10.6,21,11,31 M1599.5,157    c-8.5,10.2-26.6,35.5-31,55.5 M1687.5,127c10,12.3,21.2,26.9,24,42.5c1.8-17.8,2.7-57.5-8.5-73.5 M1651.5,160    c0.2,5.8,1.5,21,5.5,35 M1817.5,101c5.5,6,16.9,22.1,18.5,38.5 M1885.5,109c12.5,10.5,38.9,34.8,44.5,48c-6.2-1-20.7-2.4-29.5,0     M1781.5,152.5c4.7,8.3,14,28.5,14,42.5 M1583,101c-2,4.8-6,16-6,22 M353.5,42c-5.2,3.7-15.5,13.1-15.5,21.5 M548,58.5    c2.8,4.7,8.7,15.6,9.5,22 M608,217.5c6.2,5.7,18.6,18.9,19,26.5c3.7-7.3,13.2-22.9,22-26.5 M808.5,201c1.3,2.5,5.7,9.3,12.5,16.5     M926.5,48.5c-6.8,4.7-20.9,15.8-22.5,23 M704.5,80.5c3.3-5.3,12.4-17.2,22-22l6.5,13 M1917.5,180c0,2.8,0,10.9,0,20.5     M1970,119.5c10.3,12.7,32.3,43.5,37.5,65.5" fill="#000000"/>
	</g>
</g>
</svg>