<svg width="44" height="44" viewBox="0 0 44 44" fill="none" xmlns="http://www.w3.org/2000/svg">
<g clip-path="url(#clip0_2009_37)">
<path fill-rule="evenodd" clip-rule="evenodd" d="M17.1317 2.4881C14.5286 3.85343 12.399 5.00892 12.3996 5.05596C12.4008 5.17719 18.6468 8.36262 18.8685 8.35487C18.9693 8.35152 19.7009 8.01234 20.4942 7.60146L21.9367 6.85439L23.5119 7.66982L25.0872 8.48543L27.667 7.31813C31.5542 5.55918 31.9579 5.36642 31.8947 5.30176C31.8108 5.21577 30.4166 4.46166 26.6338 2.4562C24.8057 1.48695 23.0313 0.536733 22.6906 0.344328C22.3498 0.151747 22.0247 -0.00295254 21.9678 4.27739e-05C21.9109 0.00303809 19.7346 1.12258 17.1315 2.48792L17.1317 2.4881ZM5.71489 8.4412L3.00525 9.85077V16.0364C3.00525 19.4386 3.04077 22.2221 3.08451 22.2221C3.12826 22.2221 4.4612 21.6402 6.04698 20.9289L8.93037 19.6356V13.1155L10.3394 13.8885C11.4251 14.4836 12.5117 15.0774 13.5987 15.6701L15.4488 16.6789L16.2721 16.3039C16.7884 16.0683 17.3037 15.8307 17.818 15.5905C18.2153 15.4041 19.1908 14.9617 19.9857 14.6072C20.7806 14.2525 21.5164 13.8957 21.6207 13.8145C21.7592 13.7064 20.0693 12.7661 15.3701 10.336C11.8279 8.50428 8.81611 7.01138 8.67718 7.0186C8.53825 7.02583 7.20531 7.66577 5.71489 8.44103V8.4412ZM32.3827 8.83694C30.5373 9.6758 29.0261 10.3957 29.0243 10.4368C29.0227 10.4778 30.0285 11.0801 31.2596 11.775C32.4905 12.4701 33.4978 13.0758 33.4978 13.1215C33.4978 13.1671 32.4085 13.6985 31.0773 14.3029C29.7457 14.907 26.3805 16.4375 23.5986 17.7038L14.2772 21.9466C11.9324 23.014 9.81888 23.976 9.5804 24.0847C4.79103 26.2679 3.4747 26.8737 3.29396 26.9776C3.11216 27.0823 3.07104 27.6905 3.03867 30.7433L3 34.3844L5.42321 35.6276L7.84624 36.8708L11.2062 35.3439C13.0543 34.5042 14.5663 33.7731 14.5663 33.7192C14.5663 33.6653 14.2247 33.4415 13.8076 33.2211C13.3903 33.0007 12.5285 32.513 11.8927 32.1368C11.2568 31.7606 10.6229 31.4156 10.4836 31.3698C10.3445 31.3242 10.2327 31.2444 10.235 31.1922C10.2372 31.1403 11.7168 30.4327 13.5227 29.6195C17.0302 28.0403 19.7145 26.8231 25.4772 24.199C28.0541 23.0258 30.6314 21.8537 33.2088 20.6817C35.474 19.652 38.1079 18.4496 39.0616 18.0095L40.7958 17.2094L40.8343 13.5269L40.873 9.8446L38.4153 8.57441C37.0634 7.87579 35.9081 7.30598 35.8476 7.30809C35.787 7.31003 34.2277 7.99807 32.3824 8.83711L32.3827 8.83694ZM40.1376 22.1219C39.7754 22.3 39.0601 22.6336 38.5479 22.863C38.0358 23.0924 37.064 23.5339 36.3882 23.8444L35.1599 24.4085L35.1319 27.6414C35.1165 29.4194 35.0514 30.8663 34.9874 30.8569C34.842 30.8351 32.5397 29.6461 30.2255 28.3974C28.5552 27.4962 28.4502 27.4604 28.0577 27.6562C27.8308 27.7695 26.4746 28.3819 25.0438 29.0175C23.6131 29.653 22.396 30.2145 22.3386 30.2653C22.2815 30.316 25.1609 31.8875 28.7375 33.7578L35.2402 37.1582L38.0181 35.7111C39.5458 34.9154 40.8448 34.1895 40.9046 34.0982C41.0394 33.893 41.0278 21.7697 40.8929 21.7861C40.8396 21.7926 40.4996 21.9436 40.1374 22.1217L40.1376 22.1219ZM24.7548 36.3516C24.2729 36.5602 23.7912 36.7692 23.3097 36.9783C21.8555 37.6119 22.1403 37.6329 20.4102 36.7656C19.2578 36.1881 18.7611 36.0098 18.5455 36.0963C18.3838 36.1611 16.9919 36.7917 15.4523 37.4976C13.9127 38.2034 12.5997 38.7808 12.5345 38.7808C11.8885 38.7808 12.9625 39.4269 17.1062 41.5317L21.9659 44L24.0106 42.9836C25.1352 42.4245 27.4035 41.3048 29.0514 40.4957C30.6991 39.6863 32.027 39.003 32.0022 38.9772C31.9772 38.9515 30.5964 38.2376 28.9338 37.3908L25.9108 35.8512L24.7548 36.3519V36.3516Z" fill="#08A2C9"/>
</g>
<defs>
<clipPath id="clip0_2009_37">
<rect width="44" height="44" fill="white"/>
</clipPath>
</defs>
</svg>
