<svg xmlns="http://www.w3.org/2000/svg" xmlns:xlink="http://www.w3.org/1999/xlink" version="1.1" id="Layer_1" x="0px" y="0px" viewBox="0 0 1443 296.9" style="enable-background:new 0 0 1443 296.9;" xml:space="preserve">
<style type="text/css">
	.st0{fill:#f26938;}
	.st1{fill:#FFFFFF;filter:url(#Adobe_OpacityMaskFilter);}
	
		.st2{mask:url(#path-2-outside-1_779_2194_00000057109390271190255000000005057730965888162212_);fill:none;stroke:#000000;stroke-width:12;}
	.st3{fill:none;stroke:#000000;stroke-width:6;stroke-linecap:round;stroke-linejoin:round;}
</style>
<g>
	<g>
		<path class="st0" d="M1443,211.9C1443,211.9,1443,211.9,1443,211.9c-8.7,6.3-16.2,14-22.3,22.6c-0.3,0.4-0.9,0.6-1.4,0.3    c-7.4-5-13.3-12-17-19.8c-0.2-0.5-0.8-0.7-1.3-0.5c-12.1,5.9-22.5,14.9-29.7,25.8c-0.3,0.5-1,0.6-1.4,0.3    c-5.3-4.1-9.8-9.3-12.8-15.2c-0.5-0.9-2-0.7-2.2,0.3c-1.4,7.9-4.6,15.5-9.2,22.2c-0.5,0.8-1.8,0.4-1.8-0.5    c-0.8-8.5-4.3-16.8-10-23.4c-0.2-0.3-0.6-0.4-1-0.3c-4.1,1.2-7.7,3.7-10.1,7c-0.3,0.4-1,0.6-1.4,0.2c-7.1-5.3-10.5-14.8-8.3-23.1    c0.2-0.8-0.5-1.6-1.3-1.3c-7.9,2.3-15.7,5.5-22,10.6c-6.3,5-11,12.2-11.6,20c-0.1,0.8-1,1.3-1.6,0.8c-9.8-7.3-16.2-18.5-17.3-30.2    c-0.1-0.7-0.8-1.1-1.4-0.9c-9.6,4.1-18.2,10.3-25,17.9c-0.6,0.6-1.7,0.4-1.8-0.5c-1-4.1-2.9-8-5.4-11.5c-0.4-0.5-1.2-0.5-1.6,0.1    c-4.4,6.7-7.7,14.1-9.8,21.7c-0.2,0.6-0.8,0.9-1.4,0.6c-11.8-5.8-22.8-12.9-32.9-21.1c-0.7-0.6-1.9,0.1-1.8,1    c1.1,10-2.1,20.3-8.8,28.2c-0.5,0.6-1.5,0.4-1.7-0.4c-2.3-8.5-7.1-16.4-13.7-22.6c-0.3-0.3-0.7-0.3-1.1-0.1    c-4.1,2.3-6.7,6.6-6.8,11.1c0,0.7-0.7,1.3-1.4,1c-8.6-3.7-14.9-11.7-16.3-20.5c-0.1-0.6-0.7-1-1.3-0.8    c-17.1,5.4-31.8,17.3-40.2,32.5c-0.4,0.7-1.5,0.7-1.9,0c-3.5-7.2-9.2-13.4-16.2-17.8c-0.4-0.3-1-0.2-1.3,0.2    c-2.6,3.2-5.3,6.4-7.9,9.6c-0.5,0.6-1.5,0.4-1.8-0.4c-2.1-7.1-5.7-14.5-10.8-19.8c-0.3-0.3-0.7-0.4-1.1-0.2    c-18.2,6.8-34.2,19-45.2,34.4c-0.4,0.6-1.3,0.6-1.7-0.1c-5.8-9.5-12.9-18.3-21-26.1c-0.8-0.8-2.7,0.5-2.5,1.7    c1,6.1-1.1,12.7-5.8,17c-0.6,0.5-1.5,0.2-1.6-0.6c-0.7-3.5-2.1-7-4.1-10c-0.7-1.1-1.6-2.1-2.9-2.4c-1.3-0.3-2.7,0.3-3.9,0.9    c-10.3,4.9-21.7,11.2-25.2,21.3c-0.3,0.8-1.4,1-1.9,0.3c-4.6-8-5.9-17.7-3.5-26.5c0.2-0.8-0.5-1.5-1.2-1.3    c-15.8,4-30.8,11.2-43.5,20.9c-0.8,0.6-2-0.2-1.8-1.2c0.6-3,0.6-6.1,0.2-9.2c-0.1-0.6-0.8-1-1.3-0.7c-4,1.8-7.6,4.3-10.6,7.4    c-0.4,0.4-0.9,0.4-1.3,0.1c-5.6-4.6-10.1-11.2-10.7-17.5c-0.1-1.2-4.8-4.5-5.8-3.8c-8.3,6-16.7,12.1-25,18.2    c-0.4,0.3-0.9,0.3-1.2,0c-3.6-2.9-7.8-5.1-12.3-6.3c-0.5-0.1-1,0.1-1.2,0.6c-1.4,3.6-2.7,7.3-4.1,10.9c-0.2,0.5-0.8,0.8-1.3,0.6    c-11.4-5.1-21.9-11.8-31.2-19.9c-0.7-0.6-1.8,0-1.8,0.9c0.5,12.3-5.6,24.8-15.8,32.5c-0.8,0.6-2-0.4-1.8-1.4c1.3-5,0-10.5-2.7-15    c-3.1-5.3-7.9-9.6-12.8-13.7c-0.5-0.4-1.2-0.3-1.5,0.3c-1.6,3.6-1.3,7.8,0.5,11.3c0.4,0.8-0.2,1.9-1.1,1.8    c-7.5-1.6-14.5-5-20.2-9.9c-0.5-0.4-1.3-0.3-1.6,0.3c-2.5,4.7-4.9,9.4-7.4,14.1c-0.4,0.8-1.6,0.7-2.1-0.1c-2-3.7-5.9-6.5-10.2-7.2    c-0.4-0.1-0.9,0.2-1.1,0.6c-2.6,6.1-6.9,11.6-12.4,15.7c-0.6,0.5-1.5,0.1-1.6-0.7c-1.4-13-5.9-25.8-12.9-37.1    c-0.3-0.5-1.1-0.6-1.5-0.2c-11.3,10.9-23.7,20.6-37.2,28.9c-0.7,0.4-1.6-0.1-1.5-0.9c0.2-3.8,0.4-7.7,0.6-11.5    c0-1-1.2-1.5-1.9-0.7c-6.5,7.8-14.8,14.2-24.2,18.7c-0.6,0.3-1.4-0.1-1.4-0.9c-0.8-9-5-17.7-11.8-24.2c-0.4-0.4-0.9-0.4-1.3,0    c-8.5,7.3-17,14.7-25.6,22c-0.6,0.5-1.6,0.1-1.7-0.7c-0.7-4.6-2.6-9.1-5.5-12.8c-0.3-0.4-0.9-0.5-1.4-0.1    c-6.1,4.8-12.2,9.7-18.3,14.5c-0.7,0.6-1.8,0-1.7-1c0.7-9.3-2.7-18.9-9.3-25.9c-0.4-0.4-1-0.4-1.4,0    c-10.8,11.2-22.6,21.7-35.1,31.2c-0.6,0.4-1.4,0.2-1.6-0.5c-2.3-7.9-5.6-15.6-9.7-22.8c-0.4-0.7-1.3-0.7-1.7,0    c-3.3,5.5-7.3,10.7-12,15.3c-0.5,0.5-1.3,0.3-1.6-0.3c-2-4.7-4.1-9.4-6.1-14.1c-0.4-0.9-1.6-0.8-1.9,0.1    c-3.1,9.4-7.9,18.4-13.9,26.4c-0.4,0.6-1.4,0.5-1.7-0.2c-6-11.8-14.1-20.7-26.1-27.4c-2.1-1.2-4.4-2.3-6.9-2    c-2.7,0.3-4.8,2.2-6.7,4c-11,10.2-22.1,20.5-33.1,30.7c-0.7,0.6-1.7,0.1-1.8-0.8c-0.1-7.4-2.3-14.8-6.4-21.2    c-0.3-0.5-1.1-0.6-1.5-0.2c-5.9,5.8-12.6,10.9-19.9,15.1c-0.8,0.4-1.7-0.3-1.5-1.1c1.1-5.5,0.9-11.3-0.6-16.7    c-0.2-0.7-1-0.9-1.6-0.5c-10.4,8.3-21.2,16-32.4,23.2c-0.6,0.4-1.4,0-1.5-0.7c-1.1-6.3-2.1-12.5-3.2-18.8c-0.1-0.7-1-1.1-1.6-0.6    c-7.4,6-13.7,13.1-18.8,20.9c-0.3,0.5-1.1,0.6-1.5,0.2c-7.9-7.3-13.4-17-15.6-27.3c-0.2-0.8-1.1-1.1-1.7-0.5    c-7,6.9-12.2,15.4-15.1,24.5c-0.3,0.8-1.3,1-1.8,0.3c-4-5.7-8-11.3-12-17c-0.3-0.4-0.9-0.6-1.4-0.2c-5.4,3.9-9.5,9.2-11.9,15.2    c-0.3,0.8-1.4,0.9-1.8,0.2c-3.9-6.8-6-14.5-6-22.2c0-0.7-0.7-1.2-1.4-0.9c-11.3,4.8-20.9,13-27.2,23.1c-0.4,0.6-1.3,0.7-1.7,0    c-2.4-4.2-3.4-8.9-3-13.6c0.1-0.9-0.9-1.5-1.7-1c-6.5,4.8-12,10.9-16.2,17.7c-0.6,0.9-2.4,0.5-2.6-0.6    c-1.3-8.6-7.2-16.5-15.5-20.3c-0.4-0.2-0.9-0.1-1.2,0.3c-6.5,9-13,17.9-19.5,26.9c-0.3,0.4-0.9,0.5-1.4,0.2    c-5.2-3.7-9.6-8.5-12.7-13.9c-0.3-0.5-0.9-0.7-1.3-0.4c-2.3,1.6-3.7,4.2-3.8,6.9c0,0.8-0.9,1.5-1.6,1.1c-5.4-3.4-9.1-9.2-9.7-15.3    c-0.1-0.7-0.8-1.2-1.4-0.9c-10.1,4.6-18,13.4-21.1,23.5c-0.2,0.7-1,1-1.6,0.5c-2.5-2.2-4.5-5-5.8-8c-0.3-0.6-1-0.9-1.6-0.5    c-6,4.5-10.9,10.3-14.4,16.7c-0.4,0.7-1.4,0.7-1.8,0c-4.5-9.5-5.7-20.3-3.4-30.5c0.2-0.7-0.5-1.4-1.3-1.2    c-7.3,2.1-14.4,5-21.1,8.6c-0.8,0.4-1.7-0.3-1.4-1.1c4.9-15.8,15.2-30,28.8-40.1c0.7-0.5,0.5-1.6-0.4-1.7    c-4.4-0.4-8.8,0.4-12.8,2.2c-0.7,0.3-1.6-0.2-1.4-1c1.2-6.9,5.6-13.2,11.8-16.9c0.5-0.3,0.7-1,0.3-1.5c-5-6.6-13.3-10.8-21.9-11.2    c-0.9,0-1.4-1.2-0.7-1.8c8.9-7.4,20.9-11.5,32.9-11.2c0.5,0,1-0.3,1-0.9c1.1-9.8-5.1-19.9-14.5-24.1c-0.9-0.4-0.9-1.6,0-1.9    c8.2-2.4,17.6-0.9,24.3,4.2c-10.9-7.4-11.7-23.8-9-35.4c0.2-0.9,1.6-1,2-0.1c4.3,8.7,14.3,14.9,24.6,14.8c0.7,0,1.1-0.7,0.9-1.3    c-4.2-12.4-1.1-26.6,7.7-36.5c0.6-0.7,1.7-0.2,1.8,0.7c0.4,7.7,4.1,15.2,10,20.5c0.6,0.6,1.7,0.1,1.7-0.8    c0.7-7.6,7.4-14.4,15.4-15.5c0.5-0.1,1,0.3,1.1,0.8c0.8,4.9,2.7,9.6,5.6,13.7c0.4,0.6,1.4,0.5,1.7-0.2c1.5-2.9,3.5-5.6,5.8-8    c0.4-0.4,1.2-0.3,1.5,0.2c2.7,3.9,7.3,7.7,11.1,5.2c1.3-0.9,2.1-2.4,2.7-3.8c2.1-4.5,4.3-9.1,6.4-13.6c0.2-0.5,0.8-0.7,1.3-0.5    c9.2,4.6,16.6,12.2,20.7,21.1c0.4,0.8,1.7,0.8,2.1,0c3.3-6.6,9.5-11.8,16.8-14.1c0.7-0.2,1.3,0.4,1.3,1.1    c-0.2,3.4,0.4,6.9,1.8,10.1c0.3,0.7,1.2,0.7,1.7,0.1c4.3-6.4,9.4-12.3,15.1-17.7c0.7-0.7,1.8,0,1.7,0.9c-0.6,4.6-0.5,9.3,0.2,13.9    c0.1,0.9,1.3,1.1,1.8,0.4C218,93.1,225,86.9,233,82.5c0.7-0.4,1.6,0.3,1.4,1.1c-0.8,3.8-1.4,7.8-0.6,11.6c0.9,4.5,4.3,8.9,9.1,9.7    c8.3,1.4,13.8-7.7,15.2-15.8c0.1-0.7,0.9-1.1,1.5-0.7c5.6,3.2,10.3,7.8,13.6,13.1c0.4,0.7,1.4,0.7,1.8,0c5.2-7.7,13-14,21.9-17.6    c0.7-0.3,1.4,0.3,1.4,1.1c-0.4,5.4,1.2,11,4.4,15.6c0.3,0.5,1.1,0.5,1.5,0.1c4.4-4.2,9.5-7.8,15.1-10.5c0.6-0.3,1.3,0.1,1.4,0.7    c0.8,2.8,2.4,5.5,4.7,7.5c0.3,0.3,0.8,0.3,1.1,0.1c11.3-6.5,21.7-14.3,30.9-23.3c0.6-0.6,1.5-0.3,1.7,0.5c1.6,6.9,4,13.7,7.1,20.1    c0.3,0.7,1.2,0.7,1.7,0.2c3.1-3.8,6.8-7.1,11-9.7c0.3-0.2,0.8-0.2,1.1,0c2,1.4,3.7,3.2,5.1,5.2c0.4,0.6,1.4,0.6,1.8,0    c6.1-8.7,15.4-15.5,25.9-18.8c0.6-0.2,1.3,0.3,1.3,0.9c0.8,8,7,15.5,15.3,17.6c0.5,0.1,1-0.1,1.2-0.6c4.1-10.4,12.9-19,23.7-23.4    c1-0.4,2,1.1,1.7,2.1c-2.3,6.5,3.1,15.2,10.9,16c8.8,0.9,16.7-6.8,17.4-15c0.1-0.7,0.7-1.2,1.3-0.9c9.8,3.3,18.1,10.5,22.4,19.4    c0.3,0.6,1,0.8,1.5,0.3c5.1-4.5,8.3-11,8.7-17.6c0-0.8,0.9-1.3,1.6-0.9c8.7,5.1,16.8,11,24.3,17.5c0.4,0.4,1,0.3,1.4-0.1    c7.9-8.5,17.8-15.4,28.9-19.9c0.6-0.3,1.3,0.2,1.4,0.8c0.8,5.6,3.3,11,7.3,15.3c0.3,0.4,0.9,0.4,1.3,0.1    c4.2-2.9,7.8-6.6,10.5-10.8c0.6-0.9,2.5-0.5,2.8,0.5c0.7,2.5,2.1,4.9,3.9,6.8c0.4,0.4,1,0.4,1.4,0c7.6-7.2,15.2-14.4,22.8-21.6    c1.6-1.5,3.4-3.1,5.6-3.1c1.6,0,3.1,0.8,4.4,1.7c7.4,5,12.8,12.5,15,20.8c0.2,0.8,1.4,1.1,1.9,0.4c5.1-6.6,11.5-12.2,18.9-16.4    c1-0.6,2.3,1,1.9,2c-1.6,3.6-1.7,7.8-0.4,11.5c0.3,0.7,1.1,0.8,1.6,0.2c3.7-4.4,8.1-8.2,13.1-11.3c0.9-0.5,2.1,0.6,2,1.6    c-0.5,6.5,7.2,13.3,14.6,12c8.2-1.4,13.6-9.6,13.7-17.5c0-0.7,0.6-1.2,1.3-1c13.1,3.1,24.9,11.1,32.2,21.9c0.4,0.6,1.3,0.6,1.7,0    c4.9-6.8,11.7-12.5,19.6-16.2c0.6-0.3,1.3,0.1,1.4,0.8c1.1,6.2,4.6,11.9,9.6,16c0.4,0.3,1,0.3,1.4-0.1c5-5.4,11.6-9.4,18.9-11.6    c0.8-0.2,1.5,0.5,1.3,1.3c-0.4,2.2-0.1,4.5,0.9,6.5c0.2,0.4,0.7,0.6,1.1,0.5c14.1-4.4,25.6-15.7,29.9-29.1    c0.2-0.6,0.8-0.9,1.4-0.6c10.9,5.1,20.1,13.4,25.9,23.5c0.4,0.7,1.5,0.7,1.9-0.1c3.7-6.9,10-12.6,17.5-15.7c0.7-0.3,1.4,0.3,1.5,1    c0.8,5.3,7.2,9.6,12.8,7.9c5-1.5,7.7-7.3,6.3-12c-0.3-0.9,0.6-2.1,1.5-1.8c14.8,4.7,27.3,15.8,33,29.5c0.3,0.8,1.5,0.9,2,0.1    c8.8-16.8,26-29.6,45.4-33.6c0.9-0.2,1.5,0.8,1.1,1.6c-3,6.2-2.1,13.9,2.1,19.5c0.4,0.6,1.3,0.4,1.6-0.1c2.5-3.9,6.6-6.8,11.2-8    c0.5-0.1,1.1,0.2,1.3,0.8c1.8,4.9,10.4,5.8,14.6,1.8c3.9-3.7,4.5-9.4,3.8-14.7c-0.1-0.8,0.7-1.4,1.4-1.1    c11.9,6.1,21,16.9,24.7,29.2c0.2,0.8,1.3,1,1.8,0.4c13.9-17.2,31.4-30.7,52.6-38.8c1-0.4,1.9,0.9,1.3,1.8c-4.4,7-5,16-1.5,23.4    c0.3,0.6,1.2,0.7,1.6,0.2c4.9-5.7,11.1-10.4,18.1-13.7c0.8-0.4,1.7,0.4,1.6,1.3c-0.2,3.3,1.4,6.8,4.2,8.7c0.4,0.3,0.9,0.2,1.2-0.2    c8.2-9.5,19.2-16.9,31.4-21.2c0.8-0.3,1.6,0.6,1.4,1.5c-1.4,5.5,1.4,12,6.7,14.7c0.4,0.2,1,0.1,1.2-0.4c4-6,9.5-10.9,16-14.4    c0.9-0.5,2.1,0.8,2.1,1.8c-0.1,4.5,4.8,9.2,10,9.2c6.5,0.1,12-4.7,15.4-9.9c3.9-5.9,6-12.9,6.1-19.8c0-0.9,1-1.4,1.7-0.8    c10,8.5,17.6,19.4,21.7,31.5c0.3,0.9,1.7,1,2.1,0.1c2.5-5.7,6.2-10.2,11.8-13.5c0.8-0.4,1.7,0.3,1.7,1.2    c-0.1,5.1,4.3,10.1,9.8,10.7c6.3,0.7,12.5-4.3,13.1-10.2c0.3-3-0.7-5.9-2.6-8.3c-0.7-0.9,0.2-3.4,1.4-3.1    c9.8,3.3,21.8,10.8,29.2,18.9c0.5,0.5,1.3,0.4,1.7-0.2c5-8.9,13.7-15.9,23.8-19c1-0.3,1.8,1.1,1.3,2c-2.2,4-1.9,9.2,0.8,12.9    c0.4,0.5,1.2,0.4,1.6-0.1c3.7-6,10.1-10.6,17.2-12.4c0.8-0.2,1.5,0.7,1.2,1.5c-1.4,3.8-1.3,8.7,2.7,8.9c1.7,0.1,3.2-1,4.5-2    c12.8-9.5,27.3-17,42.8-22c0.7-0.2,1.4,0.3,1.4,1c-0.1,4.4,0.8,17,12.1,22.4c0.3,0.2,0.5,0.4,0.6,0.8L1443,211.9    C1443,212,1443,212,1443,211.9z" fill="#000000"/>
		<defs fill="#000000">
			<filter id="Adobe_OpacityMaskFilter" filterUnits="userSpaceOnUse" x="3.6" y="11.6" width="1445.3" height="269.4" fill="#000000">
				<feColorMatrix type="matrix" values="1 0 0 0 0  0 1 0 0 0  0 0 1 0 0  0 0 0 1 0" fill="#000000"/>
			</filter>
		</defs>
		
			<mask maskUnits="userSpaceOnUse" x="3.6" y="11.6" width="1445.3" height="269.4" id="path-2-outside-1_779_2194_00000057109390271190255000000005057730965888162212_" fill="#000000">
			<rect x="3" y="11.2" class="st1" width="1447" height="270" fill="#000000"/>
			<path d="M1443,211.9C1443,211.9,1443,211.9,1443,211.9c-8.7,6.3-16.2,14-22.3,22.6c-0.3,0.4-0.9,0.6-1.4,0.3     c-7.4-5-13.3-12-17-19.8c-0.2-0.5-0.8-0.7-1.3-0.5c-12.1,5.9-22.5,14.9-29.7,25.8c-0.3,0.5-1,0.6-1.4,0.3     c-5.3-4.1-9.8-9.3-12.8-15.2c-0.5-0.9-2-0.7-2.2,0.3c-1.4,7.9-4.6,15.5-9.2,22.2c-0.5,0.8-1.8,0.4-1.8-0.5     c-0.8-8.5-4.3-16.8-10-23.4c-0.2-0.3-0.6-0.4-1-0.3c-4.1,1.2-7.7,3.7-10.1,7c-0.3,0.4-1,0.6-1.4,0.2c-7.1-5.3-10.5-14.8-8.3-23.1     c0.2-0.8-0.5-1.6-1.3-1.3c-7.9,2.3-15.7,5.5-22,10.6c-6.3,5-11,12.2-11.6,20c-0.1,0.8-1,1.3-1.6,0.8     c-9.8-7.3-16.2-18.5-17.3-30.2c-0.1-0.7-0.8-1.1-1.4-0.9c-9.6,4.1-18.2,10.3-25,17.9c-0.6,0.6-1.7,0.4-1.8-0.5     c-1-4.1-2.9-8-5.4-11.5c-0.4-0.5-1.2-0.5-1.6,0.1c-4.4,6.7-7.7,14.1-9.8,21.7c-0.2,0.6-0.8,0.9-1.4,0.6     c-11.8-5.8-22.8-12.9-32.9-21.1c-0.7-0.6-1.9,0.1-1.8,1c1.1,10-2.1,20.3-8.8,28.2c-0.5,0.6-1.5,0.4-1.7-0.4     c-2.3-8.5-7.1-16.4-13.7-22.6c-0.3-0.3-0.7-0.3-1.1-0.1c-4.1,2.3-6.7,6.6-6.8,11.1c0,0.7-0.7,1.3-1.4,1     c-8.6-3.7-14.9-11.7-16.3-20.5c-0.1-0.6-0.7-1-1.3-0.8c-17.1,5.4-31.8,17.3-40.2,32.5c-0.4,0.7-1.5,0.7-1.9,0     c-3.5-7.2-9.2-13.4-16.2-17.8c-0.4-0.3-1-0.2-1.3,0.2c-2.6,3.2-5.3,6.4-7.9,9.6c-0.5,0.6-1.5,0.4-1.8-0.4     c-2.1-7.1-5.7-14.5-10.8-19.8c-0.3-0.3-0.7-0.4-1.1-0.2c-18.2,6.8-34.2,19-45.2,34.4c-0.4,0.6-1.3,0.6-1.7-0.1     c-5.8-9.5-12.9-18.3-21-26.1c-0.8-0.8-2.7,0.5-2.5,1.7c1,6.1-1.1,12.7-5.8,17c-0.6,0.5-1.5,0.2-1.6-0.6c-0.7-3.5-2.1-7-4.1-10     c-0.7-1.1-1.6-2.1-2.9-2.4c-1.3-0.3-2.7,0.3-3.9,0.9c-10.3,4.9-21.7,11.2-25.2,21.3c-0.3,0.8-1.4,1-1.9,0.3     c-4.6-8-5.9-17.7-3.5-26.5c0.2-0.8-0.5-1.5-1.2-1.3c-15.8,4-30.8,11.2-43.5,20.9c-0.8,0.6-2-0.2-1.8-1.2c0.6-3,0.6-6.1,0.2-9.2     c-0.1-0.6-0.8-1-1.3-0.7c-4,1.8-7.6,4.3-10.6,7.4c-0.4,0.4-0.9,0.4-1.3,0.1c-5.6-4.6-10.1-11.2-10.7-17.5     c-0.1-1.2-4.8-4.5-5.8-3.8c-8.3,6-16.7,12.1-25,18.2c-0.4,0.3-0.9,0.3-1.2,0c-3.6-2.9-7.8-5.1-12.3-6.3c-0.5-0.1-1,0.1-1.2,0.6     c-1.4,3.6-2.7,7.3-4.1,10.9c-0.2,0.5-0.8,0.8-1.3,0.6c-11.4-5.1-21.9-11.8-31.2-19.9c-0.7-0.6-1.8,0-1.8,0.9     c0.5,12.3-5.6,24.8-15.8,32.5c-0.8,0.6-2-0.4-1.8-1.4c1.3-5,0-10.5-2.7-15c-3.1-5.3-7.9-9.6-12.8-13.7c-0.5-0.4-1.2-0.3-1.5,0.3     c-1.6,3.6-1.3,7.8,0.5,11.3c0.4,0.8-0.2,1.9-1.1,1.8c-7.5-1.6-14.5-5-20.2-9.9c-0.5-0.4-1.3-0.3-1.6,0.3     c-2.5,4.7-4.9,9.4-7.4,14.1c-0.4,0.8-1.6,0.7-2.1-0.1c-2-3.7-5.9-6.5-10.2-7.2c-0.4-0.1-0.9,0.2-1.1,0.6     c-2.6,6.1-6.9,11.6-12.4,15.7c-0.6,0.5-1.5,0.1-1.6-0.7c-1.4-13-5.9-25.8-12.9-37.1c-0.3-0.5-1.1-0.6-1.5-0.2     c-11.3,10.9-23.7,20.6-37.2,28.9c-0.7,0.4-1.6-0.1-1.5-0.9c0.2-3.8,0.4-7.7,0.6-11.5c0-1-1.2-1.5-1.9-0.7     c-6.5,7.8-14.8,14.2-24.2,18.7c-0.6,0.3-1.4-0.1-1.4-0.9c-0.8-9-5-17.7-11.8-24.2c-0.4-0.4-0.9-0.4-1.3,0     c-8.5,7.3-17,14.7-25.6,22c-0.6,0.5-1.6,0.1-1.7-0.7c-0.7-4.6-2.6-9.1-5.5-12.8c-0.3-0.4-0.9-0.5-1.4-0.1     c-6.1,4.8-12.2,9.7-18.3,14.5c-0.7,0.6-1.8,0-1.7-1c0.7-9.3-2.7-18.9-9.3-25.9c-0.4-0.4-1-0.4-1.4,0     c-10.8,11.2-22.6,21.7-35.1,31.2c-0.6,0.4-1.4,0.2-1.6-0.5c-2.3-7.9-5.6-15.6-9.7-22.8c-0.4-0.7-1.3-0.7-1.7,0     c-3.3,5.5-7.3,10.7-12,15.3c-0.5,0.5-1.3,0.3-1.6-0.3c-2-4.7-4.1-9.4-6.1-14.1c-0.4-0.9-1.6-0.8-1.9,0.1     c-3.1,9.4-7.9,18.4-13.9,26.4c-0.4,0.6-1.4,0.5-1.7-0.2c-6-11.8-14.1-20.7-26.1-27.4c-2.1-1.2-4.4-2.3-6.9-2     c-2.7,0.3-4.8,2.2-6.7,4c-11,10.2-22.1,20.5-33.1,30.7c-0.7,0.6-1.7,0.1-1.8-0.8c-0.1-7.4-2.3-14.8-6.4-21.2     c-0.3-0.5-1.1-0.6-1.5-0.2c-5.9,5.8-12.6,10.9-19.9,15.1c-0.8,0.4-1.7-0.3-1.5-1.1c1.1-5.5,0.9-11.3-0.6-16.7     c-0.2-0.7-1-0.9-1.6-0.5c-10.4,8.3-21.2,16-32.4,23.2c-0.6,0.4-1.4,0-1.5-0.7c-1.1-6.3-2.1-12.5-3.2-18.8c-0.1-0.7-1-1.1-1.6-0.6     c-7.4,6-13.7,13.1-18.8,20.9c-0.3,0.5-1.1,0.6-1.5,0.2c-7.9-7.3-13.4-17-15.6-27.3c-0.2-0.8-1.1-1.1-1.7-0.5     c-7,6.9-12.2,15.4-15.1,24.5c-0.3,0.8-1.3,1-1.8,0.3c-4-5.7-8-11.3-12-17c-0.3-0.4-0.9-0.6-1.4-0.2c-5.4,3.9-9.5,9.2-11.9,15.2     c-0.3,0.8-1.4,0.9-1.8,0.2c-3.9-6.8-6-14.5-6-22.2c0-0.7-0.7-1.2-1.4-0.9c-11.3,4.8-20.9,13-27.2,23.1c-0.4,0.6-1.3,0.7-1.7,0     c-2.4-4.2-3.4-8.9-3-13.6c0.1-0.9-0.9-1.5-1.7-1c-6.5,4.8-12,10.9-16.2,17.7c-0.6,0.9-2.4,0.5-2.6-0.6     c-1.3-8.6-7.2-16.5-15.5-20.3c-0.4-0.2-0.9-0.1-1.2,0.3c-6.5,9-13,17.9-19.5,26.9c-0.3,0.4-0.9,0.5-1.4,0.2     c-5.2-3.7-9.6-8.5-12.7-13.9c-0.3-0.5-0.9-0.7-1.3-0.4c-2.3,1.6-3.7,4.2-3.8,6.9c0,0.8-0.9,1.5-1.6,1.1     c-5.4-3.4-9.1-9.2-9.7-15.3c-0.1-0.7-0.8-1.2-1.4-0.9c-10.1,4.6-18,13.4-21.1,23.5c-0.2,0.7-1,1-1.6,0.5c-2.5-2.2-4.5-5-5.8-8     c-0.3-0.6-1-0.9-1.6-0.5c-6,4.5-10.9,10.3-14.4,16.7c-0.4,0.7-1.4,0.7-1.8,0c-4.5-9.5-5.7-20.3-3.4-30.5c0.2-0.7-0.5-1.4-1.3-1.2     c-7.3,2.1-14.4,5-21.1,8.6c-0.8,0.4-1.7-0.3-1.4-1.1c4.9-15.8,15.2-30,28.8-40.1c0.7-0.5,0.5-1.6-0.4-1.7     c-4.4-0.4-8.8,0.4-12.8,2.2c-0.7,0.3-1.6-0.2-1.4-1c1.2-6.9,5.6-13.2,11.8-16.9c0.5-0.3,0.7-1,0.3-1.5     c-5-6.6-13.3-10.8-21.9-11.2c-0.9,0-1.4-1.2-0.7-1.8c8.9-7.4,20.9-11.5,32.9-11.2c0.5,0,1-0.3,1-0.9c1.1-9.8-5.1-19.9-14.5-24.1     c-0.9-0.4-0.9-1.6,0-1.9c8.2-2.4,17.6-0.9,24.3,4.2c-10.9-7.4-11.7-23.8-9-35.4c0.2-0.9,1.6-1,2-0.1c4.3,8.7,14.3,14.9,24.6,14.8     c0.7,0,1.1-0.7,0.9-1.3c-4.2-12.4-1.1-26.6,7.7-36.5c0.6-0.7,1.7-0.2,1.8,0.7c0.4,7.7,4.1,15.2,10,20.5c0.6,0.6,1.7,0.1,1.7-0.8     c0.7-7.6,7.4-14.4,15.4-15.5c0.5-0.1,1,0.3,1.1,0.8c0.8,4.9,2.7,9.6,5.6,13.7c0.4,0.6,1.4,0.5,1.7-0.2c1.5-2.9,3.5-5.6,5.8-8     c0.4-0.4,1.2-0.3,1.5,0.2c2.7,3.9,7.3,7.7,11.1,5.2c1.3-0.9,2.1-2.4,2.7-3.8c2.1-4.5,4.3-9.1,6.4-13.6c0.2-0.5,0.8-0.7,1.3-0.5     c9.2,4.6,16.6,12.2,20.7,21.1c0.4,0.8,1.7,0.8,2.1,0c3.3-6.6,9.5-11.8,16.8-14.1c0.7-0.2,1.3,0.4,1.3,1.1     c-0.2,3.4,0.4,6.9,1.8,10.1c0.3,0.7,1.2,0.7,1.7,0.1c4.3-6.4,9.4-12.3,15.1-17.7c0.7-0.7,1.8,0,1.7,0.9     c-0.6,4.6-0.5,9.3,0.2,13.9c0.1,0.9,1.3,1.1,1.8,0.4C218,93.1,225,86.9,233,82.5c0.7-0.4,1.6,0.3,1.4,1.1     c-0.8,3.8-1.4,7.8-0.6,11.6c0.9,4.5,4.3,8.9,9.1,9.7c8.3,1.4,13.8-7.7,15.2-15.8c0.1-0.7,0.9-1.1,1.5-0.7     c5.6,3.2,10.3,7.8,13.6,13.1c0.4,0.7,1.4,0.7,1.8,0c5.2-7.7,13-14,21.9-17.6c0.7-0.3,1.4,0.3,1.4,1.1c-0.4,5.4,1.2,11,4.4,15.6     c0.3,0.5,1.1,0.5,1.5,0.1c4.4-4.2,9.5-7.8,15.1-10.5c0.6-0.3,1.3,0.1,1.4,0.7c0.8,2.8,2.4,5.5,4.7,7.5c0.3,0.3,0.8,0.3,1.1,0.1     c11.3-6.5,21.7-14.3,30.9-23.3c0.6-0.6,1.5-0.3,1.7,0.5c1.6,6.9,4,13.7,7.1,20.1c0.3,0.7,1.2,0.7,1.7,0.2c3.1-3.8,6.8-7.1,11-9.7     c0.3-0.2,0.8-0.2,1.1,0c2,1.4,3.7,3.2,5.1,5.2c0.4,0.6,1.4,0.6,1.8,0c6.1-8.7,15.4-15.5,25.9-18.8c0.6-0.2,1.3,0.3,1.3,0.9     c0.8,8,7,15.5,15.3,17.6c0.5,0.1,1-0.1,1.2-0.6c4.1-10.4,12.9-19,23.7-23.4c1-0.4,2,1.1,1.7,2.1c-2.3,6.5,3.1,15.2,10.9,16     c8.8,0.9,16.7-6.8,17.4-15c0.1-0.7,0.7-1.2,1.3-0.9c9.8,3.3,18.1,10.5,22.4,19.4c0.3,0.6,1,0.8,1.5,0.3c5.1-4.5,8.3-11,8.7-17.6     c0-0.8,0.9-1.3,1.6-0.9c8.7,5.1,16.8,11,24.3,17.5c0.4,0.4,1,0.3,1.4-0.1c7.9-8.5,17.8-15.4,28.9-19.9c0.6-0.3,1.3,0.2,1.4,0.8     c0.8,5.6,3.3,11,7.3,15.3c0.3,0.4,0.9,0.4,1.3,0.1c4.2-2.9,7.8-6.6,10.5-10.8c0.6-0.9,2.5-0.5,2.8,0.5c0.7,2.5,2.1,4.9,3.9,6.8     c0.4,0.4,1,0.4,1.4,0c7.6-7.2,15.2-14.4,22.8-21.6c1.6-1.5,3.4-3.1,5.6-3.1c1.6,0,3.1,0.8,4.4,1.7c7.4,5,12.8,12.5,15,20.8     c0.2,0.8,1.4,1.1,1.9,0.4c5.1-6.6,11.5-12.2,18.9-16.4c1-0.6,2.3,1,1.9,2c-1.6,3.6-1.7,7.8-0.4,11.5c0.3,0.7,1.1,0.8,1.6,0.2     c3.7-4.4,8.1-8.2,13.1-11.3c0.9-0.5,2.1,0.6,2,1.6c-0.5,6.5,7.2,13.3,14.6,12c8.2-1.4,13.6-9.6,13.7-17.5c0-0.7,0.6-1.2,1.3-1     c13.1,3.1,24.9,11.1,32.2,21.9c0.4,0.6,1.3,0.6,1.7,0c4.9-6.8,11.7-12.5,19.6-16.2c0.6-0.3,1.3,0.1,1.4,0.8     c1.1,6.2,4.6,11.9,9.6,16c0.4,0.3,1,0.3,1.4-0.1c5-5.4,11.6-9.4,18.9-11.6c0.8-0.2,1.5,0.5,1.3,1.3c-0.4,2.2-0.1,4.5,0.9,6.5     c0.2,0.4,0.7,0.6,1.1,0.5c14.1-4.4,25.6-15.7,29.9-29.1c0.2-0.6,0.8-0.9,1.4-0.6c10.9,5.1,20.1,13.4,25.9,23.5     c0.4,0.7,1.5,0.7,1.9-0.1c3.7-6.9,10-12.6,17.5-15.7c0.7-0.3,1.4,0.3,1.5,1c0.8,5.3,7.2,9.6,12.8,7.9c5-1.5,7.7-7.3,6.3-12     c-0.3-0.9,0.6-2.1,1.5-1.8c14.8,4.7,27.3,15.8,33,29.5c0.3,0.8,1.5,0.9,2,0.1c8.8-16.8,26-29.6,45.4-33.6     c0.9-0.2,1.5,0.8,1.1,1.6c-3,6.2-2.1,13.9,2.1,19.5c0.4,0.6,1.3,0.4,1.6-0.1c2.5-3.9,6.6-6.8,11.2-8c0.5-0.1,1.1,0.2,1.3,0.8     c1.8,4.9,10.4,5.8,14.6,1.8c3.9-3.7,4.5-9.4,3.8-14.7c-0.1-0.8,0.7-1.4,1.4-1.1c11.9,6.1,21,16.9,24.7,29.2     c0.2,0.8,1.3,1,1.8,0.4c13.9-17.2,31.4-30.7,52.6-38.8c1-0.4,1.9,0.9,1.3,1.8c-4.4,7-5,16-1.5,23.4c0.3,0.6,1.2,0.7,1.6,0.2     c4.9-5.7,11.1-10.4,18.1-13.7c0.8-0.4,1.7,0.4,1.6,1.3c-0.2,3.3,1.4,6.8,4.2,8.7c0.4,0.3,0.9,0.2,1.2-0.2     c8.2-9.5,19.2-16.9,31.4-21.2c0.8-0.3,1.6,0.6,1.4,1.5c-1.4,5.5,1.4,12,6.7,14.7c0.4,0.2,1,0.1,1.2-0.4c4-6,9.5-10.9,16-14.4     c0.9-0.5,2.1,0.8,2.1,1.8c-0.1,4.5,4.8,9.2,10,9.2c6.5,0.1,12-4.7,15.4-9.9c3.9-5.9,6-12.9,6.1-19.8c0-0.9,1-1.4,1.7-0.8     c10,8.5,17.6,19.4,21.7,31.5c0.3,0.9,1.7,1,2.1,0.1c2.5-5.7,6.2-10.2,11.8-13.5c0.8-0.4,1.7,0.3,1.7,1.2     c-0.1,5.1,4.3,10.1,9.8,10.7c6.3,0.7,12.5-4.3,13.1-10.2c0.3-3-0.7-5.9-2.6-8.3c-0.7-0.9,0.2-3.4,1.4-3.1     c9.8,3.3,21.8,10.8,29.2,18.9c0.5,0.5,1.3,0.4,1.7-0.2c5-8.9,13.7-15.9,23.8-19c1-0.3,1.8,1.1,1.3,2c-2.2,4-1.9,9.2,0.8,12.9     c0.4,0.5,1.2,0.4,1.6-0.1c3.7-6,10.1-10.6,17.2-12.4c0.8-0.2,1.5,0.7,1.2,1.5c-1.4,3.8-1.3,8.7,2.7,8.9c1.7,0.1,3.2-1,4.5-2     c12.8-9.5,27.3-17,42.8-22c0.7-0.2,1.4,0.3,1.4,1c-0.1,4.4,0.8,17,12.1,22.4c0.3,0.2,0.5,0.4,0.6,0.8L1443,211.9     C1443,212,1443,212,1443,211.9z" fill="#000000"/>
		</mask>
		<path class="st2" d="M1443,211.9C1443,211.9,1443,211.9,1443,211.9c-8.7,6.3-16.2,14-22.3,22.6c-0.3,0.4-0.9,0.6-1.4,0.3    c-7.4-5-13.3-12-17-19.8c-0.2-0.5-0.8-0.7-1.3-0.5c-12.1,5.9-22.5,14.9-29.7,25.8c-0.3,0.5-1,0.6-1.4,0.3    c-5.3-4.1-9.8-9.3-12.8-15.2c-0.5-0.9-2-0.7-2.2,0.3c-1.4,7.9-4.6,15.5-9.2,22.2c-0.5,0.8-1.8,0.4-1.8-0.5    c-0.8-8.5-4.3-16.8-10-23.4c-0.2-0.3-0.6-0.4-1-0.3c-4.1,1.2-7.7,3.7-10.1,7c-0.3,0.4-1,0.6-1.4,0.2c-7.1-5.3-10.5-14.8-8.3-23.1    c0.2-0.8-0.5-1.6-1.3-1.3c-7.9,2.3-15.7,5.5-22,10.6c-6.3,5-11,12.2-11.6,20c-0.1,0.8-1,1.3-1.6,0.8c-9.8-7.3-16.2-18.5-17.3-30.2    c-0.1-0.7-0.8-1.1-1.4-0.9c-9.6,4.1-18.2,10.3-25,17.9c-0.6,0.6-1.7,0.4-1.8-0.5c-1-4.1-2.9-8-5.4-11.5c-0.4-0.5-1.2-0.5-1.6,0.1    c-4.4,6.7-7.7,14.1-9.8,21.7c-0.2,0.6-0.8,0.9-1.4,0.6c-11.8-5.8-22.8-12.9-32.9-21.1c-0.7-0.6-1.9,0.1-1.8,1    c1.1,10-2.1,20.3-8.8,28.2c-0.5,0.6-1.5,0.4-1.7-0.4c-2.3-8.5-7.1-16.4-13.7-22.6c-0.3-0.3-0.7-0.3-1.1-0.1    c-4.1,2.3-6.7,6.6-6.8,11.1c0,0.7-0.7,1.3-1.4,1c-8.6-3.7-14.9-11.7-16.3-20.5c-0.1-0.6-0.7-1-1.3-0.8    c-17.1,5.4-31.8,17.3-40.2,32.5c-0.4,0.7-1.5,0.7-1.9,0c-3.5-7.2-9.2-13.4-16.2-17.8c-0.4-0.3-1-0.2-1.3,0.2    c-2.6,3.2-5.3,6.4-7.9,9.6c-0.5,0.6-1.5,0.4-1.8-0.4c-2.1-7.1-5.7-14.5-10.8-19.8c-0.3-0.3-0.7-0.4-1.1-0.2    c-18.2,6.8-34.2,19-45.2,34.4c-0.4,0.6-1.3,0.6-1.7-0.1c-5.8-9.5-12.9-18.3-21-26.1c-0.8-0.8-2.7,0.5-2.5,1.7    c1,6.1-1.1,12.7-5.8,17c-0.6,0.5-1.5,0.2-1.6-0.6c-0.7-3.5-2.1-7-4.1-10c-0.7-1.1-1.6-2.1-2.9-2.4c-1.3-0.3-2.7,0.3-3.9,0.9    c-10.3,4.9-21.7,11.2-25.2,21.3c-0.3,0.8-1.4,1-1.9,0.3c-4.6-8-5.9-17.7-3.5-26.5c0.2-0.8-0.5-1.5-1.2-1.3    c-15.8,4-30.8,11.2-43.5,20.9c-0.8,0.6-2-0.2-1.8-1.2c0.6-3,0.6-6.1,0.2-9.2c-0.1-0.6-0.8-1-1.3-0.7c-4,1.8-7.6,4.3-10.6,7.4    c-0.4,0.4-0.9,0.4-1.3,0.1c-5.6-4.6-10.1-11.2-10.7-17.5c-0.1-1.2-4.8-4.5-5.8-3.8c-8.3,6-16.7,12.1-25,18.2    c-0.4,0.3-0.9,0.3-1.2,0c-3.6-2.9-7.8-5.1-12.3-6.3c-0.5-0.1-1,0.1-1.2,0.6c-1.4,3.6-2.7,7.3-4.1,10.9c-0.2,0.5-0.8,0.8-1.3,0.6    c-11.4-5.1-21.9-11.8-31.2-19.9c-0.7-0.6-1.8,0-1.8,0.9c0.5,12.3-5.6,24.8-15.8,32.5c-0.8,0.6-2-0.4-1.8-1.4c1.3-5,0-10.5-2.7-15    c-3.1-5.3-7.9-9.6-12.8-13.7c-0.5-0.4-1.2-0.3-1.5,0.3c-1.6,3.6-1.3,7.8,0.5,11.3c0.4,0.8-0.2,1.9-1.1,1.8    c-7.5-1.6-14.5-5-20.2-9.9c-0.5-0.4-1.3-0.3-1.6,0.3c-2.5,4.7-4.9,9.4-7.4,14.1c-0.4,0.8-1.6,0.7-2.1-0.1c-2-3.7-5.9-6.5-10.2-7.2    c-0.4-0.1-0.9,0.2-1.1,0.6c-2.6,6.1-6.9,11.6-12.4,15.7c-0.6,0.5-1.5,0.1-1.6-0.7c-1.4-13-5.9-25.8-12.9-37.1    c-0.3-0.5-1.1-0.6-1.5-0.2c-11.3,10.9-23.7,20.6-37.2,28.9c-0.7,0.4-1.6-0.1-1.5-0.9c0.2-3.8,0.4-7.7,0.6-11.5    c0-1-1.2-1.5-1.9-0.7c-6.5,7.8-14.8,14.2-24.2,18.7c-0.6,0.3-1.4-0.1-1.4-0.9c-0.8-9-5-17.7-11.8-24.2c-0.4-0.4-0.9-0.4-1.3,0    c-8.5,7.3-17,14.7-25.6,22c-0.6,0.5-1.6,0.1-1.7-0.7c-0.7-4.6-2.6-9.1-5.5-12.8c-0.3-0.4-0.9-0.5-1.4-0.1    c-6.1,4.8-12.2,9.7-18.3,14.5c-0.7,0.6-1.8,0-1.7-1c0.7-9.3-2.7-18.9-9.3-25.9c-0.4-0.4-1-0.4-1.4,0    c-10.8,11.2-22.6,21.7-35.1,31.2c-0.6,0.4-1.4,0.2-1.6-0.5c-2.3-7.9-5.6-15.6-9.7-22.8c-0.4-0.7-1.3-0.7-1.7,0    c-3.3,5.5-7.3,10.7-12,15.3c-0.5,0.5-1.3,0.3-1.6-0.3c-2-4.7-4.1-9.4-6.1-14.1c-0.4-0.9-1.6-0.8-1.9,0.1    c-3.1,9.4-7.9,18.4-13.9,26.4c-0.4,0.6-1.4,0.5-1.7-0.2c-6-11.8-14.1-20.7-26.1-27.4c-2.1-1.2-4.4-2.3-6.9-2    c-2.7,0.3-4.8,2.2-6.7,4c-11,10.2-22.1,20.5-33.1,30.7c-0.7,0.6-1.7,0.1-1.8-0.8c-0.1-7.4-2.3-14.8-6.4-21.2    c-0.3-0.5-1.1-0.6-1.5-0.2c-5.9,5.8-12.6,10.9-19.9,15.1c-0.8,0.4-1.7-0.3-1.5-1.1c1.1-5.5,0.9-11.3-0.6-16.7    c-0.2-0.7-1-0.9-1.6-0.5c-10.4,8.3-21.2,16-32.4,23.2c-0.6,0.4-1.4,0-1.5-0.7c-1.1-6.3-2.1-12.5-3.2-18.8c-0.1-0.7-1-1.1-1.6-0.6    c-7.4,6-13.7,13.1-18.8,20.9c-0.3,0.5-1.1,0.6-1.5,0.2c-7.9-7.3-13.4-17-15.6-27.3c-0.2-0.8-1.1-1.1-1.7-0.5    c-7,6.9-12.2,15.4-15.1,24.5c-0.3,0.8-1.3,1-1.8,0.3c-4-5.7-8-11.3-12-17c-0.3-0.4-0.9-0.6-1.4-0.2c-5.4,3.9-9.5,9.2-11.9,15.2    c-0.3,0.8-1.4,0.9-1.8,0.2c-3.9-6.8-6-14.5-6-22.2c0-0.7-0.7-1.2-1.4-0.9c-11.3,4.8-20.9,13-27.2,23.1c-0.4,0.6-1.3,0.7-1.7,0    c-2.4-4.2-3.4-8.9-3-13.6c0.1-0.9-0.9-1.5-1.7-1c-6.5,4.8-12,10.9-16.2,17.7c-0.6,0.9-2.4,0.5-2.6-0.6    c-1.3-8.6-7.2-16.5-15.5-20.3c-0.4-0.2-0.9-0.1-1.2,0.3c-6.5,9-13,17.9-19.5,26.9c-0.3,0.4-0.9,0.5-1.4,0.2    c-5.2-3.7-9.6-8.5-12.7-13.9c-0.3-0.5-0.9-0.7-1.3-0.4c-2.3,1.6-3.7,4.2-3.8,6.9c0,0.8-0.9,1.5-1.6,1.1c-5.4-3.4-9.1-9.2-9.7-15.3    c-0.1-0.7-0.8-1.2-1.4-0.9c-10.1,4.6-18,13.4-21.1,23.5c-0.2,0.7-1,1-1.6,0.5c-2.5-2.2-4.5-5-5.8-8c-0.3-0.6-1-0.9-1.6-0.5    c-6,4.5-10.9,10.3-14.4,16.7c-0.4,0.7-1.4,0.7-1.8,0c-4.5-9.5-5.7-20.3-3.4-30.5c0.2-0.7-0.5-1.4-1.3-1.2    c-7.3,2.1-14.4,5-21.1,8.6c-0.8,0.4-1.7-0.3-1.4-1.1c4.9-15.8,15.2-30,28.8-40.1c0.7-0.5,0.5-1.6-0.4-1.7    c-4.4-0.4-8.8,0.4-12.8,2.2c-0.7,0.3-1.6-0.2-1.4-1c1.2-6.9,5.6-13.2,11.8-16.9c0.5-0.3,0.7-1,0.3-1.5c-5-6.6-13.3-10.8-21.9-11.2    c-0.9,0-1.4-1.2-0.7-1.8c8.9-7.4,20.9-11.5,32.9-11.2c0.5,0,1-0.3,1-0.9c1.1-9.8-5.1-19.9-14.5-24.1c-0.9-0.4-0.9-1.6,0-1.9    c8.2-2.4,17.6-0.9,24.3,4.2c-10.9-7.4-11.7-23.8-9-35.4c0.2-0.9,1.6-1,2-0.1c4.3,8.7,14.3,14.9,24.6,14.8c0.7,0,1.1-0.7,0.9-1.3    c-4.2-12.4-1.1-26.6,7.7-36.5c0.6-0.7,1.7-0.2,1.8,0.7c0.4,7.7,4.1,15.2,10,20.5c0.6,0.6,1.7,0.1,1.7-0.8    c0.7-7.6,7.4-14.4,15.4-15.5c0.5-0.1,1,0.3,1.1,0.8c0.8,4.9,2.7,9.6,5.6,13.7c0.4,0.6,1.4,0.5,1.7-0.2c1.5-2.9,3.5-5.6,5.8-8    c0.4-0.4,1.2-0.3,1.5,0.2c2.7,3.9,7.3,7.7,11.1,5.2c1.3-0.9,2.1-2.4,2.7-3.8c2.1-4.5,4.3-9.1,6.4-13.6c0.2-0.5,0.8-0.7,1.3-0.5    c9.2,4.6,16.6,12.2,20.7,21.1c0.4,0.8,1.7,0.8,2.1,0c3.3-6.6,9.5-11.8,16.8-14.1c0.7-0.2,1.3,0.4,1.3,1.1    c-0.2,3.4,0.4,6.9,1.8,10.1c0.3,0.7,1.2,0.7,1.7,0.1c4.3-6.4,9.4-12.3,15.1-17.7c0.7-0.7,1.8,0,1.7,0.9c-0.6,4.6-0.5,9.3,0.2,13.9    c0.1,0.9,1.3,1.1,1.8,0.4C218,93.1,225,86.9,233,82.5c0.7-0.4,1.6,0.3,1.4,1.1c-0.8,3.8-1.4,7.8-0.6,11.6c0.9,4.5,4.3,8.9,9.1,9.7    c8.3,1.4,13.8-7.7,15.2-15.8c0.1-0.7,0.9-1.1,1.5-0.7c5.6,3.2,10.3,7.8,13.6,13.1c0.4,0.7,1.4,0.7,1.8,0c5.2-7.7,13-14,21.9-17.6    c0.7-0.3,1.4,0.3,1.4,1.1c-0.4,5.4,1.2,11,4.4,15.6c0.3,0.5,1.1,0.5,1.5,0.1c4.4-4.2,9.5-7.8,15.1-10.5c0.6-0.3,1.3,0.1,1.4,0.7    c0.8,2.8,2.4,5.5,4.7,7.5c0.3,0.3,0.8,0.3,1.1,0.1c11.3-6.5,21.7-14.3,30.9-23.3c0.6-0.6,1.5-0.3,1.7,0.5c1.6,6.9,4,13.7,7.1,20.1    c0.3,0.7,1.2,0.7,1.7,0.2c3.1-3.8,6.8-7.1,11-9.7c0.3-0.2,0.8-0.2,1.1,0c2,1.4,3.7,3.2,5.1,5.2c0.4,0.6,1.4,0.6,1.8,0    c6.1-8.7,15.4-15.5,25.9-18.8c0.6-0.2,1.3,0.3,1.3,0.9c0.8,8,7,15.5,15.3,17.6c0.5,0.1,1-0.1,1.2-0.6c4.1-10.4,12.9-19,23.7-23.4    c1-0.4,2,1.1,1.7,2.1c-2.3,6.5,3.1,15.2,10.9,16c8.8,0.9,16.7-6.8,17.4-15c0.1-0.7,0.7-1.2,1.3-0.9c9.8,3.3,18.1,10.5,22.4,19.4    c0.3,0.6,1,0.8,1.5,0.3c5.1-4.5,8.3-11,8.7-17.6c0-0.8,0.9-1.3,1.6-0.9c8.7,5.1,16.8,11,24.3,17.5c0.4,0.4,1,0.3,1.4-0.1    c7.9-8.5,17.8-15.4,28.9-19.9c0.6-0.3,1.3,0.2,1.4,0.8c0.8,5.6,3.3,11,7.3,15.3c0.3,0.4,0.9,0.4,1.3,0.1    c4.2-2.9,7.8-6.6,10.5-10.8c0.6-0.9,2.5-0.5,2.8,0.5c0.7,2.5,2.1,4.9,3.9,6.8c0.4,0.4,1,0.4,1.4,0c7.6-7.2,15.2-14.4,22.8-21.6    c1.6-1.5,3.4-3.1,5.6-3.1c1.6,0,3.1,0.8,4.4,1.7c7.4,5,12.8,12.5,15,20.8c0.2,0.8,1.4,1.1,1.9,0.4c5.1-6.6,11.5-12.2,18.9-16.4    c1-0.6,2.3,1,1.9,2c-1.6,3.6-1.7,7.8-0.4,11.5c0.3,0.7,1.1,0.8,1.6,0.2c3.7-4.4,8.1-8.2,13.1-11.3c0.9-0.5,2.1,0.6,2,1.6    c-0.5,6.5,7.2,13.3,14.6,12c8.2-1.4,13.6-9.6,13.7-17.5c0-0.7,0.6-1.2,1.3-1c13.1,3.1,24.9,11.1,32.2,21.9c0.4,0.6,1.3,0.6,1.7,0    c4.9-6.8,11.7-12.5,19.6-16.2c0.6-0.3,1.3,0.1,1.4,0.8c1.1,6.2,4.6,11.9,9.6,16c0.4,0.3,1,0.3,1.4-0.1c5-5.4,11.6-9.4,18.9-11.6    c0.8-0.2,1.5,0.5,1.3,1.3c-0.4,2.2-0.1,4.5,0.9,6.5c0.2,0.4,0.7,0.6,1.1,0.5c14.1-4.4,25.6-15.7,29.9-29.1    c0.2-0.6,0.8-0.9,1.4-0.6c10.9,5.1,20.1,13.4,25.9,23.5c0.4,0.7,1.5,0.7,1.9-0.1c3.7-6.9,10-12.6,17.5-15.7c0.7-0.3,1.4,0.3,1.5,1    c0.8,5.3,7.2,9.6,12.8,7.9c5-1.5,7.7-7.3,6.3-12c-0.3-0.9,0.6-2.1,1.5-1.8c14.8,4.7,27.3,15.8,33,29.5c0.3,0.8,1.5,0.9,2,0.1    c8.8-16.8,26-29.6,45.4-33.6c0.9-0.2,1.5,0.8,1.1,1.6c-3,6.2-2.1,13.9,2.1,19.5c0.4,0.6,1.3,0.4,1.6-0.1c2.5-3.9,6.6-6.8,11.2-8    c0.5-0.1,1.1,0.2,1.3,0.8c1.8,4.9,10.4,5.8,14.6,1.8c3.9-3.7,4.5-9.4,3.8-14.7c-0.1-0.8,0.7-1.4,1.4-1.1    c11.9,6.1,21,16.9,24.7,29.2c0.2,0.8,1.3,1,1.8,0.4c13.9-17.2,31.4-30.7,52.6-38.8c1-0.4,1.9,0.9,1.3,1.8c-4.4,7-5,16-1.5,23.4    c0.3,0.6,1.2,0.7,1.6,0.2c4.9-5.7,11.1-10.4,18.1-13.7c0.8-0.4,1.7,0.4,1.6,1.3c-0.2,3.3,1.4,6.8,4.2,8.7c0.4,0.3,0.9,0.2,1.2-0.2    c8.2-9.5,19.2-16.9,31.4-21.2c0.8-0.3,1.6,0.6,1.4,1.5c-1.4,5.5,1.4,12,6.7,14.7c0.4,0.2,1,0.1,1.2-0.4c4-6,9.5-10.9,16-14.4    c0.9-0.5,2.1,0.8,2.1,1.8c-0.1,4.5,4.8,9.2,10,9.2c6.5,0.1,12-4.7,15.4-9.9c3.9-5.9,6-12.9,6.1-19.8c0-0.9,1-1.4,1.7-0.8    c10,8.5,17.6,19.4,21.7,31.5c0.3,0.9,1.7,1,2.1,0.1c2.5-5.7,6.2-10.2,11.8-13.5c0.8-0.4,1.7,0.3,1.7,1.2    c-0.1,5.1,4.3,10.1,9.8,10.7c6.3,0.7,12.5-4.3,13.1-10.2c0.3-3-0.7-5.9-2.6-8.3c-0.7-0.9,0.2-3.4,1.4-3.1    c9.8,3.3,21.8,10.8,29.2,18.9c0.5,0.5,1.3,0.4,1.7-0.2c5-8.9,13.7-15.9,23.8-19c1-0.3,1.8,1.1,1.3,2c-2.2,4-1.9,9.2,0.8,12.9    c0.4,0.5,1.2,0.4,1.6-0.1c3.7-6,10.1-10.6,17.2-12.4c0.8-0.2,1.5,0.7,1.2,1.5c-1.4,3.8-1.3,8.7,2.7,8.9c1.7,0.1,3.2-1,4.5-2    c12.8-9.5,27.3-17,42.8-22c0.7-0.2,1.4,0.3,1.4,1c-0.1,4.4,0.8,17,12.1,22.4c0.3,0.2,0.5,0.4,0.6,0.8L1443,211.9    C1443,212,1443,212,1443,211.9z" fill="#000000"/>
		<path class="st3" d="M1246.7,116c4.8,6.8,14.3,24,13.8,38.1c-2.6-1.6-9.6-5.4-17-7.8 M1362.1,124.4c2.1-0.1,27.8,29.3,26.6,57.4    c-3.2-1.3-11.3-4.8-17.4-8.2c2.8,4.2,8.3,14.7,7.8,22.4c-1.8-1.1-6.3-3.4-9.4-4.3 M575.3,79c-2.8,5.3-8.3,17.9-8.4,26.3     M211.7,129.6c-4.4,5.2-13.6,19-14.5,32.7 M155,138.1c-10.2,9.1-31.7,30.2-36,41.4c5.1-1,17.3-2.6,24.7-0.8 M243.3,171.8    c-3.7,7.1-11,24.2-10.6,36 M1360.4,68.5c4.4,2.9,13.3,10.6,13.6,17.6 M1273.9,60.1c-2.2,4-6.9,13.3-7.4,18.7 M1227.9,194.9    c-5,4.9-15.1,16.3-15.2,22.7c-3.3-6-11.7-18.8-19.1-21.6 M1059.5,186.4c-1.1,2.1-4.5,7.9-10,14.2 M973,85.2    c5.8,3.7,17.9,12.7,19.5,18.7 M1181.5,103.9c-2.9-4.4-10.8-14.1-19-17.8l-5.1,11.1 M130.1,198.4c0.1,2.4,0.3,9.1,0.5,17.2     M84.5,149.2C76.2,160,58.6,186.5,54.8,205" fill="#000000"/>
	</g>
</g>
</svg>