<svg width="44" height="44" viewBox="0 0 44 44" fill="none" xmlns="http://www.w3.org/2000/svg">
<path fill-rule="evenodd" clip-rule="evenodd" d="M39.4423 5.25997C39.9833 5.02978 40.5755 4.95039 41.1571 5.03006C41.7387 5.10973 42.2886 5.34555 42.7495 5.71297C43.2104 6.08039 43.5655 6.56599 43.7777 7.11921C43.99 7.67244 44.0517 8.27306 43.9565 8.85858L38.9914 39.3051C38.5098 42.242 35.3223 43.9262 32.6581 42.4633C30.4295 41.2394 27.1194 39.3538 24.1421 37.3863C22.6535 36.4014 18.0934 33.2477 18.6538 31.0035C19.1354 29.0847 26.7976 21.8742 31.176 17.5873C32.8945 15.9031 32.1108 14.9315 30.0814 16.4807C25.0419 20.3272 16.9506 26.1766 14.2754 27.8232C11.9155 29.275 10.6852 29.5229 9.21404 29.275C6.5301 28.8235 4.04099 28.1242 2.00943 27.2721C-0.735812 26.1213 -0.602272 22.3058 2.00724 21.1948L39.4423 5.25997Z" fill="#00D1FF"/>
</svg>
