<svg xmlns="http://www.w3.org/2000/svg" xmlns:xlink="http://www.w3.org/1999/xlink" version="1.1" id="Layer_1" x="0px" y="0px" viewBox="0 0 2172 271.5" style="enable-background:new 0 0 2172 271.5;" xml:space="preserve">
<style type="text/css">
	.st0{fill:#f26938;}
	.st1{fill:#FFFFFF;filter:url(#Adobe_OpacityMaskFilter);}
	
		.st2{mask:url(#path-1-outside-1_779_2154_00000034070998940051597180000012268762998386973830_);fill:none;stroke:#000000;stroke-width:12;}
	.st3{fill:none;stroke:#000000;stroke-width:6;stroke-linecap:round;stroke-linejoin:round;}
</style>
<g>
	<g>
		<path class="st0" d="M16.9,91.6c0-1.1,1.8-1.6,2.5-0.8c7.7,8.6,26.7,17.3,28.1,16.2c7.4-5.9,10.4-16.5,12.2-25.5    c0.2-0.8,1.1-1.1,1.7-0.5c4.5,4.6,8.3,10,11.1,15.9c0.3,0.7,1.3,0.8,1.7,0.1c3.8-6,6.5-12.8,7.8-19.8c0.2-0.8,1.1-1.1,1.7-0.5    c3,3.1,5.7,6.5,8,10.1c0.4,0.6,1.4,0.6,1.8,0c4-6.9,8.7-13.4,14-19.4c0.4-0.5,1.2-0.4,1.6,0.1c9.9,13.7,24,24.4,39.8,30.4    c0.8,0.3,1.5-0.4,1.3-1.2c-2.9-12.2-0.4-25.5,6.6-35.9c0.5-0.8,1.7-0.4,1.9,0.5c2.8,14.8,19.4,23.7,34.4,27.9    c2.7,0.7,5.6,1.4,8.4,1.1c8.5-1.1,12.4-10.6,14.2-19.4c0.2-0.9,1.4-1.1,1.8-0.3c2.7,5.7,4.3,11.9,4.7,18.2    c0.1,0.9,1.2,1.3,1.8,0.7c5.1-5.5,9.6-11.6,13.3-18.2c0.4-0.7,1.4-0.7,1.7,0c2.2,4.1,3.6,8.5,4.3,13.1c0.1,0.8,1.1,1.2,1.6,0.6    c6.4-5.7,11.2-13,13.9-21.1c0.2-0.7,1-0.9,1.6-0.5c11.4,8.8,23.4,16.8,36,23.9c0.7,0.4,1.5-0.1,1.5-0.9c0-11.3,4.7-22.6,12.8-30.5    c0.6-0.6,1.6-0.2,1.7,0.6c2,11.8,13.4,21.5,25.4,21.4c0.5,0,0.9-0.4,1-0.9c1.2-8.4,5.2-16.4,11.3-22.4c0.4-0.4,1.1-0.3,1.5,0.1    c7.1,9.6,16.9,17.4,27.9,22.1c2.1,0.9,4.4,1.7,6.5,0.9c1.7-0.7,2.9-2.3,3.8-3.9c4.1-6.4,7.4-13.3,9.8-20.5    c0.2-0.7,1.2-0.9,1.7-0.4c11.8,12.3,25.8,22.5,41.1,30c0.7,0.3,1.5-0.2,1.5-0.9c0.1-11.5,6.1-22.8,15.7-29.2    c0.5-0.4,1.3-0.1,1.5,0.5c3.2,8.3,9.9,15.2,18.2,18.5c0.5,0.2,1.1-0.1,1.3-0.6c1.9-5.5,3.1-11.2,3.7-17c0.1-0.9,1.2-1.3,1.7-0.6    c4.5,5.2,8.4,11.1,11.4,17.4c0.2,0.5,0.9,0.7,1.4,0.5c15.9-8.7,30.3-20.1,42.3-33.7c0.5-0.5,1.3-0.4,1.6,0.2    c5.8,11.3,7.5,24.7,4.6,37.2c-0.2,0.9,0.7,1.6,1.5,1.1c9.3-6,16.4-15.3,19.8-25.8c0.3-0.9,1.7-1,2.1-0.2    c5.8,11.5,17.1,20.1,29.8,22.6c0.7,0.1,1.4-0.6,1.1-1.3c-1.8-6.5-0.8-13.8,2.8-19.6c0.4-0.6,1.3-0.6,1.7,0.1    c4.3,7.5,11.7,13.1,20,15.2c0.6,0.1,1.1-0.3,1.2-0.9c0.7-5.8,3.3-11.5,7.4-15.8c0.4-0.4,1.1-0.4,1.5,0.1c6,8,9.6,17.6,10.4,27.5    c0.1,0.7,0.8,1.2,1.5,0.8c21.9-11.2,40.3-28.9,52.2-50.4c0.4-0.8,1.6-0.7,1.9,0.2c6.8,20.3,26.4,35.8,47.8,37.6    c0.6,0.1,1.2-0.5,1.1-1.2c-1.4-10.6,3.7-21.9,12.6-27.8c0.6-0.4,1.5,0.1,1.6,0.8c0.6,9.1,8.1,17.5,17.1,19.1    c0.7,0.1,1.2-0.5,1.1-1.2c-1.3-6.8,2.3-14.3,8.4-17.5c0.6-0.3,1.2,0.1,1.4,0.7c2.8,13.7,15.2,25,29.1,26.4c0.4,0,0.8-0.2,1-0.6    c2.3-5.5,3.6-11.3,3.9-17.2c0-0.8,1-1.3,1.7-0.8c19.5,14.6,42.5,24.6,66.5,28.9c0.6,0.1,1.2-0.4,1.2-1c0-9.3,1.9-18.5,5.4-27    c0.3-0.7,1.1-0.8,1.6-0.3c8.7,8.9,19.8,15.5,31.8,18.7c0.7,0.2,1.4-0.4,1.3-1.2c-1.1-7.9,1.8-16.2,7.4-21.7c0.7-0.7,1.8,0,1.7,0.9    c-0.3,7.5,4.3,15,11.2,17.8c0.5,0.2,1.1-0.1,1.3-0.7c2.1-7.5,6.4-14.3,12.2-19.4c0.4-0.4,1.1-0.3,1.5,0.2    c13.5,18.7,35,31.4,57.8,34.1c0.1,0,0.3,0,0.4,0c16-4.8,29.9-16.3,37.8-31c0.3-0.6,1.2-0.7,1.6-0.2c6.5,7.5,10.5,17.1,11.2,27    c0.1,0.8,1,1.3,1.6,0.7c7.5-6.3,13.2-14.8,16.2-24.1c0.2-0.7,1.2-1,1.7-0.4c6.7,7.3,11.7,16.2,14.5,25.7c0.2,0.7,1,1,1.6,0.5    c16.4-12.5,32.8-25,49.2-37.5c0.8-0.6,1.9,0.2,1.7,1.2c-0.8,3.5-1.1,7.2-0.8,10.8c0.7,7.7,4.8,15.8,12.2,18    c5.8,1.8,12.7-2.2,14.4-7.5c0.3-1,2.4-1.9,3.1-1.1c1.9,2.2,3.9,4.4,5.8,6.6c0.4,0.4,1,0.5,1.4,0.1c7.7-7.5,12.9-17.5,14.6-28.1    c0.2-0.9,1.5-1.2,2-0.4c7.5,10.9,19.1,19.1,32,22.4c0.6,0.2,1.2-0.3,1.2-0.9c1.1-9.1,6.9-17.4,14.8-21.8c0.8-0.4,1.7,0.3,1.6,1.2    c-0.6,5.3,2.8,10.8,7.4,13.9c4.7,3.1,10.4,4.3,16.1,5.3c0.8,0.1,1.4-0.7,1.2-1.4c-1.4-5.5,1-11.9,5.8-15c0.5-0.3,1.2-0.1,1.4,0.5    c5,13.7,16.7,24.8,30.6,28.9c0.3,0.1,0.7,0,0.9-0.2c9.8-8.2,16-20.4,17-33.1c0.1-0.9,1.2-1.3,1.8-0.7c18.1,18,42.6,29.4,68,31.6    c0.5,0,1-0.3,1.1-0.8c1.3-7.6,3.8-15,7.3-21.8c0.3-0.6,1.2-0.7,1.7-0.2c8.8,9.6,23,13.9,35.6,10.9c0.3-0.1,0.6-0.3,0.7-0.7    c2-6.3,5.5-12.1,10.1-16.9c0.5-0.5,1.3-0.3,1.6,0.3c6.1,14.5,19.1,26,34.3,30.2c1.8,0.5,3.7,0.9,5.5,0.2c1.5-0.6,2.5-1.9,3.5-3.1    c8.5-10.5,17-21,25.5-31.5c0.5-0.6,1.4-0.4,1.7,0.3c4.6,11,13.5,20.1,24.4,24.9c0.5,0.2,1.1,0,1.3-0.6    c3.9-9.9,11.1-18.6,20.2-24.2c0.7-0.4,1.6,0.1,1.6,0.9c0,9.2,7,17.5,14.9,22.7c13,8.6,29.6,11.6,44.9,8.3c0.2-0.1,0.5-0.2,0.6-0.4    c5.1-8.1,3.3-19.7-3.3-26.5c-0.8-0.8-0.1-2.5,1-2.2c12.7,2.8,24.5,9.4,33.4,18.8c0.5,0.5,1.3,0.4,1.6-0.2    c2.6-4.8,4.8-9.9,6.7-15.1c0.2-0.7,1-0.9,1.6-0.4c8.3,7.1,14.9,16.1,19.3,26.1c0.3,0.8,1.5,0.8,1.9,0.1    c7.4-14,19.4-25.5,33.7-32.3c0.4-0.2,1-0.1,1.2,0.3c13.7,18.3,39.3,27,61.3,20.5c0.4-0.1,0.7-0.4,0.7-0.8    c1.7-11.5,7.1-22.5,15.3-30.8c0.5-0.5,1.5-0.3,1.7,0.4c3.6,11,14.1,19.6,25.6,20.9c0.5,0.1,0.9-0.3,1-0.7c1.1-5.3,0.8-10.9-1-16    c-0.3-0.9,0.6-1.8,1.5-1.3c8.7,4.7,16.3,11.2,22.4,19c0.5,0.6,1.4,0.5,1.7-0.2c4.4-8.5,10.7-16,18.3-21.9c0.7-0.5,1.6,0,1.6,0.8    c-0.1,3.8,0,7.7,1.7,11c2,4,7,6.8,11,4.9c1.6-0.8,2.9-2.2,4-3.6c4.6-5.6,8.6-11.7,11.8-18.1c0.3-0.7,1.3-0.8,1.7-0.2    c6.6,8.3,14.7,15.5,23.7,21.1c4.3,2.7,9.1,5,14.2,5.1c5.1,0.1,10.6-2.7,12.1-7.6c1.5-4.6-0.8-9.7-4.3-12.9c-1.4-1.3-3-2.3-4.6-3.2    c-1-0.6-0.6-2.2,0.6-1.9c19.4,4.4,37.3,15.3,50,30.6c0.6,0.7,1.8,0.3,1.9-0.6c1.2-9.8,6.9-19.1,15.2-24.5c0.8-0.5,1.8,0.3,1.7,1.3    c-1.2,8.8,9.2,17.7,18.2,15.2c8.7-2.4,13.6-12.3,12.6-21.3c-0.1-1,1.4-1.9,2.2-1.3c20.9,17.6,52.4,21.8,77.1,9.9    c0.7-0.3,1.5,0.2,1.5,0.9l-1.7,149.4c0,1.1-1.8,1.5-2.4,0.7c-7.2-9.2-24.6-20.4-26.6-19.6c-1.9,0.8-3.2,2.6-4.2,4.4    c-4.4,7.6-7.7,15.9-9.5,24.6c-0.2,0.8-1.1,1.1-1.7,0.5c-4.5-4.6-8.3-10-11.1-15.9c-0.3-0.7-1.3-0.8-1.7-0.1    c-3.8,6-6.5,12.8-7.8,19.8c-0.1,0.8-1.1,1.1-1.7,0.5c-3-3.1-5.7-6.5-8-10.1c-0.4-0.6-1.4-0.6-1.8,0c-4,6.9-8.7,13.4-14,19.4    c-0.4,0.5-1.2,0.4-1.6-0.1c-9.9-13.7-23.9-24.4-39.8-30.4c-0.8-0.3-1.5,0.4-1.3,1.2c2.9,12.2,0.4,25.5-6.6,35.9    c-0.5,0.8-1.7,0.4-1.9-0.5c-2.8-14.8-19.4-23.7-34.4-27.9c-2.8-0.7-5.6-1.4-8.4-1.1c-8.5,1.1-12.3,10.6-14.2,19.4    c-0.2,0.9-1.4,1.1-1.8,0.3c-2.7-5.7-4.3-11.9-4.8-18.2c-0.1-0.9-1.2-1.3-1.8-0.7c-5.1,5.5-9.6,11.6-13.4,18.2    c-0.4,0.7-1.4,0.7-1.7,0c-2.2-4.1-3.6-8.5-4.3-13.1c-0.1-0.8-1.1-1.2-1.7-0.6c-6.4,5.7-11.2,13-14,21.1c-0.2,0.7-1,0.9-1.6,0.5    c-11.4-8.8-23.4-16.8-36-23.9c-0.7-0.4-1.5,0.1-1.5,0.9c0,11.3-4.7,22.6-12.8,30.5c-0.6,0.6-1.6,0.2-1.7-0.6    c-2-11.8-13.4-21.5-25.4-21.4c-0.5,0-0.9,0.4-0.9,0.9c-1.2,8.4-5.2,16.4-11.3,22.4c-0.4,0.4-1.1,0.3-1.5-0.1    c-7.1-9.6-16.9-17.4-27.9-22.1c-2.1-0.9-4.4-1.7-6.5-0.9c-1.7,0.7-2.9,2.3-3.8,3.9c-4,6.4-7.4,13.3-9.8,20.5    c-0.2,0.7-1.2,0.9-1.7,0.4c-11.8-12.3-25.8-22.5-41.1-30c-0.7-0.3-1.5,0.2-1.5,0.9c0,11.5-6.1,22.8-15.7,29.2    c-0.5,0.4-1.2,0.1-1.5-0.5c-3.2-8.3-9.9-15.2-18.2-18.5c-0.5-0.2-1.1,0.1-1.3,0.6c-1.9,5.5-3.2,11.2-3.7,17    c-0.1,0.9-1.2,1.3-1.7,0.6c-4.6-5.2-8.4-11.1-11.4-17.4c-0.2-0.5-0.9-0.7-1.4-0.5c-15.9,8.7-30.3,20.1-42.3,33.7    c-0.5,0.5-1.3,0.4-1.6-0.2c-5.8-11.3-7.5-24.7-4.6-37.2c0.2-0.9-0.7-1.6-1.5-1.1c-9.3,6-16.4,15.3-19.8,25.8    c-0.3,0.9-1.7,1-2.1,0.2c-5.8-11.5-17.1-20.1-29.8-22.6c-0.7-0.1-1.3,0.6-1.1,1.3c1.8,6.5,0.8,13.8-2.8,19.6    c-0.4,0.6-1.3,0.6-1.7-0.1c-4.3-7.5-11.7-13.1-20-15.2c-0.6-0.1-1.2,0.3-1.2,0.9c-0.7,5.8-3.3,11.5-7.3,15.8    c-0.4,0.4-1.1,0.4-1.5-0.1c-6-8-9.6-17.6-10.4-27.5c-0.1-0.7-0.8-1.2-1.5-0.8c-21.9,11.2-40.3,29-52.2,50.4    c-0.4,0.8-1.6,0.7-1.9-0.2c-6.8-20.3-26.4-35.8-47.8-37.5c-0.6-0.1-1.2,0.5-1.1,1.2c1.4,10.6-3.8,21.9-12.6,27.8    c-0.7,0.4-1.5-0.1-1.6-0.8c-0.6-9.1-8.1-17.5-17.1-19.1c-0.7-0.1-1.2,0.5-1.1,1.2c1.3,6.8-2.3,14.3-8.4,17.5    c-0.6,0.3-1.2-0.1-1.4-0.7c-2.8-13.7-15.2-25-29.1-26.4c-0.4,0-0.8,0.2-1,0.6c-2.3,5.5-3.6,11.3-3.9,17.2c0,0.8-1,1.3-1.6,0.8    c-19.5-14.6-42.5-24.6-66.5-28.9c-0.6-0.1-1.2,0.4-1.2,1c0,9.3-1.9,18.5-5.4,27c-0.3,0.7-1.1,0.8-1.6,0.3    c-8.7-8.9-19.8-15.5-31.8-18.7c-0.7-0.2-1.4,0.4-1.3,1.2c1.1,7.9-1.8,16.2-7.4,21.7c-0.7,0.6-1.8,0-1.7-0.9    c0.3-7.5-4.3-15-11.2-17.8c-0.5-0.2-1.1,0.1-1.3,0.7c-2.1,7.5-6.4,14.3-12.2,19.4c-0.4,0.4-1.1,0.3-1.5-0.2    c-13.5-18.7-35-31.4-57.8-34.1c-0.1,0-0.3,0-0.4,0c-16,4.8-29.9,16.3-37.8,31c-0.3,0.6-1.2,0.7-1.6,0.2    c-6.5-7.5-10.5-17.1-11.2-27c-0.1-0.8-1-1.3-1.6-0.7c-7.5,6.3-13.2,14.8-16.2,24.1c-0.2,0.7-1.2,1-1.7,0.4    c-6.7-7.3-11.7-16.2-14.5-25.7c-0.2-0.7-1-1-1.6-0.5c-16.4,12.5-32.8,25-49.2,37.5c-0.8,0.6-1.9-0.2-1.7-1.2    c0.8-3.5,1.1-7.2,0.8-10.8c-0.7-7.7-4.9-15.8-12.2-18c-5.7-1.8-12.7,2.2-14.3,7.5c-0.3,1-2.4,1.9-3.1,1.1    c-1.9-2.2-3.9-4.4-5.8-6.6c-0.4-0.4-1-0.5-1.4-0.1c-7.7,7.5-12.9,17.5-14.6,28.1c-0.2,0.9-1.5,1.2-2,0.5    c-7.5-10.9-19.1-19.1-32-22.4c-0.6-0.2-1.2,0.3-1.3,0.9c-1.1,9.1-6.9,17.4-14.8,21.8c-0.8,0.4-1.6-0.3-1.6-1.2    c0.6-5.3-2.8-10.8-7.4-13.9c-4.7-3.1-10.4-4.3-16.1-5.3c-0.8-0.1-1.4,0.7-1.2,1.4c1.4,5.5-1,12-5.8,15c-0.5,0.3-1.2,0.1-1.4-0.5    c-5-13.7-16.7-24.8-30.6-28.9c-0.3-0.1-0.7,0-0.9,0.2c-9.8,8.2-16,20.4-17,33.1c-0.1,0.9-1.2,1.3-1.8,0.7    c-18.1-18-42.5-29.4-68-31.6c-0.5,0-1,0.3-1.1,0.8c-1.3,7.6-3.7,15-7.3,21.8c-0.3,0.6-1.2,0.7-1.7,0.2c-8.8-9.6-23-13.9-35.6-10.9    c-0.3,0.1-0.6,0.3-0.7,0.7c-2,6.3-5.5,12.1-10.1,16.9c-0.5,0.5-1.4,0.3-1.6-0.3c-6.1-14.5-19.1-26-34.3-30.2    c-1.8-0.5-3.7-0.9-5.5-0.2c-1.5,0.6-2.5,1.9-3.5,3.1c-8.5,10.5-17,21-25.5,31.5c-0.5,0.6-1.4,0.4-1.7-0.3    c-4.6-11-13.5-20.1-24.4-24.9c-0.5-0.2-1.1,0-1.3,0.6c-3.9,9.9-11.1,18.6-20.2,24.2c-0.7,0.4-1.6-0.1-1.6-0.9    c0-9.2-7-17.5-14.9-22.7c-13-8.6-29.6-11.6-44.9-8.3c-0.3,0.1-0.5,0.2-0.6,0.4c-5.1,8.1-3.3,19.7,3.3,26.5c0.8,0.8,0.1,2.5-1,2.2    c-12.7-2.8-24.5-9.4-33.4-18.8c-0.5-0.5-1.3-0.4-1.6,0.2c-2.6,4.8-4.8,9.9-6.7,15.1c-0.2,0.7-1.1,0.9-1.6,0.4    c-8.3-7.1-14.9-16.1-19.3-26.1c-0.3-0.8-1.5-0.8-1.9-0.1c-7.4,14-19.4,25.5-33.7,32.3c-0.4,0.2-0.9,0.1-1.2-0.3    c-13.7-18.3-39.3-27-61.3-20.5c-0.4,0.1-0.6,0.4-0.7,0.8c-1.7,11.5-7.1,22.5-15.3,30.8c-0.5,0.5-1.5,0.3-1.7-0.4    c-3.6-11.1-14.1-19.6-25.6-20.9c-0.5-0.1-0.9,0.3-1,0.7c-1.1,5.3-0.8,10.9,1,16c0.3,0.9-0.6,1.8-1.5,1.3    c-8.6-4.7-16.3-11.2-22.4-19c-0.5-0.6-1.4-0.5-1.7,0.2c-4.4,8.5-10.7,16-18.3,21.9c-0.7,0.5-1.6,0-1.6-0.8c0.1-3.8,0-7.7-1.7-11    c-2-4-7-6.8-11-4.9c-1.5,0.7-11.7,14.2-15.8,21.7c-0.4,0.7-1.3,0.7-1.7,0.2c-6.6-8.3-14.7-15.5-23.7-21.1c-4.3-2.7-9.1-5-14.2-5.1    c-5.1-0.1-10.6,2.7-12.1,7.6c-1.5,4.6,0.8,9.7,4.4,12.9c1.4,1.3,3,2.3,4.6,3.2c1,0.6,0.6,2.2-0.6,1.9c-19.4-4.4-37.3-15.3-50-30.6    c-0.6-0.7-1.8-0.3-1.9,0.6c-1.2,9.8-6.9,19.1-15.2,24.5c-0.8,0.5-1.8-0.3-1.7-1.3c1.2-8.8-9.2-17.7-18.2-15.2    c-8.7,2.4-13.6,12.3-12.6,21.3c0.1,1-1.4,1.9-2.2,1.3c-20.9-17.6-52.4-21.8-77-9.9c-0.7,0.3-1.5-0.2-1.5-0.9L16.9,91.6z" fill="#000000"/>
		<defs fill="#000000">
			<filter id="Adobe_OpacityMaskFilter" filterUnits="userSpaceOnUse" x="9.2" y="12.2" width="2152.8" height="246.2" fill="#000000">
				<feColorMatrix type="matrix" values="1 0 0 0 0  0 1 0 0 0  0 0 1 0 0  0 0 0 1 0" fill="#000000"/>
			</filter>
		</defs>
		
			<mask maskUnits="userSpaceOnUse" x="9.2" y="12.2" width="2152.8" height="246.2" id="path-1-outside-1_779_2154_00000034070998940051597180000012268762998386973830_" fill="#000000">
			<rect x="2.3" y="-29.4" class="st1" width="2166.6" height="329.2" fill="#000000"/>
			<path d="M16.9,91.6c0-1.1,1.8-1.6,2.5-0.8c7.7,8.6,26.7,17.3,28.1,16.2c7.4-5.9,10.4-16.5,12.2-25.5c0.2-0.8,1.1-1.1,1.7-0.5     c4.5,4.6,8.3,10,11.1,15.9c0.3,0.7,1.3,0.8,1.7,0.1c3.8-6,6.5-12.8,7.8-19.8c0.2-0.8,1.1-1.1,1.7-0.5c3,3.1,5.7,6.5,8,10.1     c0.4,0.6,1.4,0.6,1.8,0c4-6.9,8.7-13.4,14-19.4c0.4-0.5,1.2-0.4,1.6,0.1c9.9,13.7,24,24.4,39.8,30.4c0.8,0.3,1.5-0.4,1.3-1.2     c-2.9-12.2-0.4-25.5,6.6-35.9c0.5-0.8,1.7-0.4,1.9,0.5c2.8,14.8,19.4,23.7,34.4,27.9c2.7,0.7,5.6,1.4,8.4,1.1     c8.5-1.1,12.4-10.6,14.2-19.4c0.2-0.9,1.4-1.1,1.8-0.3c2.7,5.7,4.3,11.9,4.7,18.2c0.1,0.9,1.2,1.3,1.8,0.7     c5.1-5.5,9.6-11.6,13.3-18.2c0.4-0.7,1.4-0.7,1.7,0c2.2,4.1,3.6,8.5,4.3,13.1c0.1,0.8,1.1,1.2,1.6,0.6c6.4-5.7,11.2-13,13.9-21.1     c0.2-0.7,1-0.9,1.6-0.5c11.4,8.8,23.4,16.8,36,23.9c0.7,0.4,1.5-0.1,1.5-0.9c0-11.3,4.7-22.6,12.8-30.5c0.6-0.6,1.6-0.2,1.7,0.6     c2,11.8,13.4,21.5,25.4,21.4c0.5,0,0.9-0.4,1-0.9c1.2-8.4,5.2-16.4,11.3-22.4c0.4-0.4,1.1-0.3,1.5,0.1     c7.1,9.6,16.9,17.4,27.9,22.1c2.1,0.9,4.4,1.7,6.5,0.9c1.7-0.7,2.9-2.3,3.8-3.9c4.1-6.4,7.4-13.3,9.8-20.5     c0.2-0.7,1.2-0.9,1.7-0.4c11.8,12.3,25.8,22.5,41.1,30c0.7,0.3,1.5-0.2,1.5-0.9c0.1-11.5,6.1-22.8,15.7-29.2     c0.5-0.4,1.3-0.1,1.5,0.5c3.2,8.3,9.9,15.2,18.2,18.5c0.5,0.2,1.1-0.1,1.3-0.6c1.9-5.5,3.1-11.2,3.7-17c0.1-0.9,1.2-1.3,1.7-0.6     c4.5,5.2,8.4,11.1,11.4,17.4c0.2,0.5,0.9,0.7,1.4,0.5c15.9-8.7,30.3-20.1,42.3-33.7c0.5-0.5,1.3-0.4,1.6,0.2     c5.8,11.3,7.5,24.7,4.6,37.2c-0.2,0.9,0.7,1.6,1.5,1.1c9.3-6,16.4-15.3,19.8-25.8c0.3-0.9,1.7-1,2.1-0.2     c5.8,11.5,17.1,20.1,29.8,22.6c0.7,0.1,1.4-0.6,1.1-1.3c-1.8-6.5-0.8-13.8,2.8-19.6c0.4-0.6,1.3-0.6,1.7,0.1     c4.3,7.5,11.7,13.1,20,15.2c0.6,0.1,1.1-0.3,1.2-0.9c0.7-5.8,3.3-11.5,7.4-15.8c0.4-0.4,1.1-0.4,1.5,0.1c6,8,9.6,17.6,10.4,27.5     c0.1,0.7,0.8,1.2,1.5,0.8c21.9-11.2,40.3-28.9,52.2-50.4c0.4-0.8,1.6-0.7,1.9,0.2c6.8,20.3,26.4,35.8,47.8,37.6     c0.6,0.1,1.2-0.5,1.1-1.2c-1.4-10.6,3.7-21.9,12.6-27.8c0.6-0.4,1.5,0.1,1.6,0.8c0.6,9.1,8.1,17.5,17.1,19.1     c0.7,0.1,1.2-0.5,1.1-1.2c-1.3-6.8,2.3-14.3,8.4-17.5c0.6-0.3,1.2,0.1,1.4,0.7c2.8,13.7,15.2,25,29.1,26.4c0.4,0,0.8-0.2,1-0.6     c2.3-5.5,3.6-11.3,3.9-17.2c0-0.8,1-1.3,1.7-0.8c19.5,14.6,42.5,24.6,66.5,28.9c0.6,0.1,1.2-0.4,1.2-1c0-9.3,1.9-18.5,5.4-27     c0.3-0.7,1.1-0.8,1.6-0.3c8.7,8.9,19.8,15.5,31.8,18.7c0.7,0.2,1.4-0.4,1.3-1.2c-1.1-7.9,1.8-16.2,7.4-21.7     c0.7-0.7,1.8,0,1.7,0.9c-0.3,7.5,4.3,15,11.2,17.8c0.5,0.2,1.1-0.1,1.3-0.7c2.1-7.5,6.4-14.3,12.2-19.4c0.4-0.4,1.1-0.3,1.5,0.2     c13.5,18.7,35,31.4,57.8,34.1c0.1,0,0.3,0,0.4,0c16-4.8,29.9-16.3,37.8-31c0.3-0.6,1.2-0.7,1.6-0.2c6.5,7.5,10.5,17.1,11.2,27     c0.1,0.8,1,1.3,1.6,0.7c7.5-6.3,13.2-14.8,16.2-24.1c0.2-0.7,1.2-1,1.7-0.4c6.7,7.3,11.7,16.2,14.5,25.7c0.2,0.7,1,1,1.6,0.5     c16.4-12.5,32.8-25,49.2-37.5c0.8-0.6,1.9,0.2,1.7,1.2c-0.8,3.5-1.1,7.2-0.8,10.8c0.7,7.7,4.8,15.8,12.2,18     c5.8,1.8,12.7-2.2,14.4-7.5c0.3-1,2.4-1.9,3.1-1.1c1.9,2.2,3.9,4.4,5.8,6.6c0.4,0.4,1,0.5,1.4,0.1c7.7-7.5,12.9-17.5,14.6-28.1     c0.2-0.9,1.5-1.2,2-0.4c7.5,10.9,19.1,19.1,32,22.4c0.6,0.2,1.2-0.3,1.2-0.9c1.1-9.1,6.9-17.4,14.8-21.8c0.8-0.4,1.7,0.3,1.6,1.2     c-0.6,5.3,2.8,10.8,7.4,13.9c4.7,3.1,10.4,4.3,16.1,5.3c0.8,0.1,1.4-0.7,1.2-1.4c-1.4-5.5,1-11.9,5.8-15c0.5-0.3,1.2-0.1,1.4,0.5     c5,13.7,16.7,24.8,30.6,28.9c0.3,0.1,0.7,0,0.9-0.2c9.8-8.2,16-20.4,17-33.1c0.1-0.9,1.2-1.3,1.8-0.7c18.1,18,42.6,29.4,68,31.6     c0.5,0,1-0.3,1.1-0.8c1.3-7.6,3.8-15,7.3-21.8c0.3-0.6,1.2-0.7,1.7-0.2c8.8,9.6,23,13.9,35.6,10.9c0.3-0.1,0.6-0.3,0.7-0.7     c2-6.3,5.5-12.1,10.1-16.9c0.5-0.5,1.3-0.3,1.6,0.3c6.1,14.5,19.1,26,34.3,30.2c1.8,0.5,3.7,0.9,5.5,0.2c1.5-0.6,2.5-1.9,3.5-3.1     c8.5-10.5,17-21,25.5-31.5c0.5-0.6,1.4-0.4,1.7,0.3c4.6,11,13.5,20.1,24.4,24.9c0.5,0.2,1.1,0,1.3-0.6     c3.9-9.9,11.1-18.6,20.2-24.2c0.7-0.4,1.6,0.1,1.6,0.9c0,9.2,7,17.5,14.9,22.7c13,8.6,29.6,11.6,44.9,8.3     c0.2-0.1,0.5-0.2,0.6-0.4c5.1-8.1,3.3-19.7-3.3-26.5c-0.8-0.8-0.1-2.5,1-2.2c12.7,2.8,24.5,9.4,33.4,18.8     c0.5,0.5,1.3,0.4,1.6-0.2c2.6-4.8,4.8-9.9,6.7-15.1c0.2-0.7,1-0.9,1.6-0.4c8.3,7.1,14.9,16.1,19.3,26.1c0.3,0.8,1.5,0.8,1.9,0.1     c7.4-14,19.4-25.5,33.7-32.3c0.4-0.2,1-0.1,1.2,0.3c13.7,18.3,39.3,27,61.3,20.5c0.4-0.1,0.7-0.4,0.7-0.8     c1.7-11.5,7.1-22.5,15.3-30.8c0.5-0.5,1.5-0.3,1.7,0.4c3.6,11,14.1,19.6,25.6,20.9c0.5,0.1,0.9-0.3,1-0.7c1.1-5.3,0.8-10.9-1-16     c-0.3-0.9,0.6-1.8,1.5-1.3c8.7,4.7,16.3,11.2,22.4,19c0.5,0.6,1.4,0.5,1.7-0.2c4.4-8.5,10.7-16,18.3-21.9c0.7-0.5,1.6,0,1.6,0.8     c-0.1,3.8,0,7.7,1.7,11c2,4,7,6.8,11,4.9c1.6-0.8,2.9-2.2,4-3.6c4.6-5.6,8.6-11.7,11.8-18.1c0.3-0.7,1.3-0.8,1.7-0.2     c6.6,8.3,14.7,15.5,23.7,21.1c4.3,2.7,9.1,5,14.2,5.1c5.1,0.1,10.6-2.7,12.1-7.6c1.5-4.6-0.8-9.7-4.3-12.9     c-1.4-1.3-3-2.3-4.6-3.2c-1-0.6-0.6-2.2,0.6-1.9c19.4,4.4,37.3,15.3,50,30.6c0.6,0.7,1.8,0.3,1.9-0.6c1.2-9.8,6.9-19.1,15.2-24.5     c0.8-0.5,1.8,0.3,1.7,1.3c-1.2,8.8,9.2,17.7,18.2,15.2c8.7-2.4,13.6-12.3,12.6-21.3c-0.1-1,1.4-1.9,2.2-1.3     c20.9,17.6,52.4,21.8,77.1,9.9c0.7-0.3,1.5,0.2,1.5,0.9l-1.7,149.4c0,1.1-1.8,1.5-2.4,0.7c-7.2-9.2-24.6-20.4-26.6-19.6     c-1.9,0.8-3.2,2.6-4.2,4.4c-4.4,7.6-7.7,15.9-9.5,24.6c-0.2,0.8-1.1,1.1-1.7,0.5c-4.5-4.6-8.3-10-11.1-15.9     c-0.3-0.7-1.3-0.8-1.7-0.1c-3.8,6-6.5,12.8-7.8,19.8c-0.1,0.8-1.1,1.1-1.7,0.5c-3-3.1-5.7-6.5-8-10.1c-0.4-0.6-1.4-0.6-1.8,0     c-4,6.9-8.7,13.4-14,19.4c-0.4,0.5-1.2,0.4-1.6-0.1c-9.9-13.7-23.9-24.4-39.8-30.4c-0.8-0.3-1.5,0.4-1.3,1.2     c2.9,12.2,0.4,25.5-6.6,35.9c-0.5,0.8-1.7,0.4-1.9-0.5c-2.8-14.8-19.4-23.7-34.4-27.9c-2.8-0.7-5.6-1.4-8.4-1.1     c-8.5,1.1-12.3,10.6-14.2,19.4c-0.2,0.9-1.4,1.1-1.8,0.3c-2.7-5.7-4.3-11.9-4.8-18.2c-0.1-0.9-1.2-1.3-1.8-0.7     c-5.1,5.5-9.6,11.6-13.4,18.2c-0.4,0.7-1.4,0.7-1.7,0c-2.2-4.1-3.6-8.5-4.3-13.1c-0.1-0.8-1.1-1.2-1.7-0.6     c-6.4,5.7-11.2,13-14,21.1c-0.2,0.7-1,0.9-1.6,0.5c-11.4-8.8-23.4-16.8-36-23.9c-0.7-0.4-1.5,0.1-1.5,0.9     c0,11.3-4.7,22.6-12.8,30.5c-0.6,0.6-1.6,0.2-1.7-0.6c-2-11.8-13.4-21.5-25.4-21.4c-0.5,0-0.9,0.4-0.9,0.9     c-1.2,8.4-5.2,16.4-11.3,22.4c-0.4,0.4-1.1,0.3-1.5-0.1c-7.1-9.6-16.9-17.4-27.9-22.1c-2.1-0.9-4.4-1.7-6.5-0.9     c-1.7,0.7-2.9,2.3-3.8,3.9c-4,6.4-7.4,13.3-9.8,20.5c-0.2,0.7-1.2,0.9-1.7,0.4c-11.8-12.3-25.8-22.5-41.1-30     c-0.7-0.3-1.5,0.2-1.5,0.9c0,11.5-6.1,22.8-15.7,29.2c-0.5,0.4-1.2,0.1-1.5-0.5c-3.2-8.3-9.9-15.2-18.2-18.5     c-0.5-0.2-1.1,0.1-1.3,0.6c-1.9,5.5-3.2,11.2-3.7,17c-0.1,0.9-1.2,1.3-1.7,0.6c-4.6-5.2-8.4-11.1-11.4-17.4     c-0.2-0.5-0.9-0.7-1.4-0.5c-15.9,8.7-30.3,20.1-42.3,33.7c-0.5,0.5-1.3,0.4-1.6-0.2c-5.8-11.3-7.5-24.7-4.6-37.2     c0.2-0.9-0.7-1.6-1.5-1.1c-9.3,6-16.4,15.3-19.8,25.8c-0.3,0.9-1.7,1-2.1,0.2c-5.8-11.5-17.1-20.1-29.8-22.6     c-0.7-0.1-1.3,0.6-1.1,1.3c1.8,6.5,0.8,13.8-2.8,19.6c-0.4,0.6-1.3,0.6-1.7-0.1c-4.3-7.5-11.7-13.1-20-15.2     c-0.6-0.1-1.2,0.3-1.2,0.9c-0.7,5.8-3.3,11.5-7.3,15.8c-0.4,0.4-1.1,0.4-1.5-0.1c-6-8-9.6-17.6-10.4-27.5     c-0.1-0.7-0.8-1.2-1.5-0.8c-21.9,11.2-40.3,29-52.2,50.4c-0.4,0.8-1.6,0.7-1.9-0.2c-6.8-20.3-26.4-35.8-47.8-37.5     c-0.6-0.1-1.2,0.5-1.1,1.2c1.4,10.6-3.8,21.9-12.6,27.8c-0.7,0.4-1.5-0.1-1.6-0.8c-0.6-9.1-8.1-17.5-17.1-19.1     c-0.7-0.1-1.2,0.5-1.1,1.2c1.3,6.8-2.3,14.3-8.4,17.5c-0.6,0.3-1.2-0.1-1.4-0.7c-2.8-13.7-15.2-25-29.1-26.4     c-0.4,0-0.8,0.2-1,0.6c-2.3,5.5-3.6,11.3-3.9,17.2c0,0.8-1,1.3-1.6,0.8c-19.5-14.6-42.5-24.6-66.5-28.9c-0.6-0.1-1.2,0.4-1.2,1     c0,9.3-1.9,18.5-5.4,27c-0.3,0.7-1.1,0.8-1.6,0.3c-8.7-8.9-19.8-15.5-31.8-18.7c-0.7-0.2-1.4,0.4-1.3,1.2     c1.1,7.9-1.8,16.2-7.4,21.7c-0.7,0.6-1.8,0-1.7-0.9c0.3-7.5-4.3-15-11.2-17.8c-0.5-0.2-1.1,0.1-1.3,0.7     c-2.1,7.5-6.4,14.3-12.2,19.4c-0.4,0.4-1.1,0.3-1.5-0.2c-13.5-18.7-35-31.4-57.8-34.1c-0.1,0-0.3,0-0.4,0     c-16,4.8-29.9,16.3-37.8,31c-0.3,0.6-1.2,0.7-1.6,0.2c-6.5-7.5-10.5-17.1-11.2-27c-0.1-0.8-1-1.3-1.6-0.7     c-7.5,6.3-13.2,14.8-16.2,24.1c-0.2,0.7-1.2,1-1.7,0.4c-6.7-7.3-11.7-16.2-14.5-25.7c-0.2-0.7-1-1-1.6-0.5     c-16.4,12.5-32.8,25-49.2,37.5c-0.8,0.6-1.9-0.2-1.7-1.2c0.8-3.5,1.1-7.2,0.8-10.8c-0.7-7.7-4.9-15.8-12.2-18     c-5.7-1.8-12.7,2.2-14.3,7.5c-0.3,1-2.4,1.9-3.1,1.1c-1.9-2.2-3.9-4.4-5.8-6.6c-0.4-0.4-1-0.5-1.4-0.1     c-7.7,7.5-12.9,17.5-14.6,28.1c-0.2,0.9-1.5,1.2-2,0.5c-7.5-10.9-19.1-19.1-32-22.4c-0.6-0.2-1.2,0.3-1.3,0.9     c-1.1,9.1-6.9,17.4-14.8,21.8c-0.8,0.4-1.6-0.3-1.6-1.2c0.6-5.3-2.8-10.8-7.4-13.9c-4.7-3.1-10.4-4.3-16.1-5.3     c-0.8-0.1-1.4,0.7-1.2,1.4c1.4,5.5-1,12-5.8,15c-0.5,0.3-1.2,0.1-1.4-0.5c-5-13.7-16.7-24.8-30.6-28.9c-0.3-0.1-0.7,0-0.9,0.2     c-9.8,8.2-16,20.4-17,33.1c-0.1,0.9-1.2,1.3-1.8,0.7c-18.1-18-42.5-29.4-68-31.6c-0.5,0-1,0.3-1.1,0.8c-1.3,7.6-3.7,15-7.3,21.8     c-0.3,0.6-1.2,0.7-1.7,0.2c-8.8-9.6-23-13.9-35.6-10.9c-0.3,0.1-0.6,0.3-0.7,0.7c-2,6.3-5.5,12.1-10.1,16.9     c-0.5,0.5-1.4,0.3-1.6-0.3c-6.1-14.5-19.1-26-34.3-30.2c-1.8-0.5-3.7-0.9-5.5-0.2c-1.5,0.6-2.5,1.9-3.5,3.1     c-8.5,10.5-17,21-25.5,31.5c-0.5,0.6-1.4,0.4-1.7-0.3c-4.6-11-13.5-20.1-24.4-24.9c-0.5-0.2-1.1,0-1.3,0.6     c-3.9,9.9-11.1,18.6-20.2,24.2c-0.7,0.4-1.6-0.1-1.6-0.9c0-9.2-7-17.5-14.9-22.7c-13-8.6-29.6-11.6-44.9-8.3     c-0.3,0.1-0.5,0.2-0.6,0.4c-5.1,8.1-3.3,19.7,3.3,26.5c0.8,0.8,0.1,2.5-1,2.2c-12.7-2.8-24.5-9.4-33.4-18.8     c-0.5-0.5-1.3-0.4-1.6,0.2c-2.6,4.8-4.8,9.9-6.7,15.1c-0.2,0.7-1.1,0.9-1.6,0.4c-8.3-7.1-14.9-16.1-19.3-26.1     c-0.3-0.8-1.5-0.8-1.9-0.1c-7.4,14-19.4,25.5-33.7,32.3c-0.4,0.2-0.9,0.1-1.2-0.3c-13.7-18.3-39.3-27-61.3-20.5     c-0.4,0.1-0.6,0.4-0.7,0.8c-1.7,11.5-7.1,22.5-15.3,30.8c-0.5,0.5-1.5,0.3-1.7-0.4c-3.6-11.1-14.1-19.6-25.6-20.9     c-0.5-0.1-0.9,0.3-1,0.7c-1.1,5.3-0.8,10.9,1,16c0.3,0.9-0.6,1.8-1.5,1.3c-8.6-4.7-16.3-11.2-22.4-19c-0.5-0.6-1.4-0.5-1.7,0.2     c-4.4,8.5-10.7,16-18.3,21.9c-0.7,0.5-1.6,0-1.6-0.8c0.1-3.8,0-7.7-1.7-11c-2-4-7-6.8-11-4.9c-1.5,0.7-11.7,14.2-15.8,21.7     c-0.4,0.7-1.3,0.7-1.7,0.2c-6.6-8.3-14.7-15.5-23.7-21.1c-4.3-2.7-9.1-5-14.2-5.1c-5.1-0.1-10.6,2.7-12.1,7.6     c-1.5,4.6,0.8,9.7,4.4,12.9c1.4,1.3,3,2.3,4.6,3.2c1,0.6,0.6,2.2-0.6,1.9c-19.4-4.4-37.3-15.3-50-30.6c-0.6-0.7-1.8-0.3-1.9,0.6     c-1.2,9.8-6.9,19.1-15.2,24.5c-0.8,0.5-1.8-0.3-1.7-1.3c1.2-8.8-9.2-17.7-18.2-15.2c-8.7,2.4-13.6,12.3-12.6,21.3     c0.1,1-1.4,1.9-2.2,1.3c-20.9-17.6-52.4-21.8-77-9.9c-0.7,0.3-1.5-0.2-1.5-0.9L16.9,91.6z" fill="#000000"/>
		</mask>
		<path class="st2" d="M16.9,91.6c0-1.1,1.8-1.6,2.5-0.8c7.7,8.6,26.7,17.3,28.1,16.2c7.4-5.9,10.4-16.5,12.2-25.5    c0.2-0.8,1.1-1.1,1.7-0.5c4.5,4.6,8.3,10,11.1,15.9c0.3,0.7,1.3,0.8,1.7,0.1c3.8-6,6.5-12.8,7.8-19.8c0.2-0.8,1.1-1.1,1.7-0.5    c3,3.1,5.7,6.5,8,10.1c0.4,0.6,1.4,0.6,1.8,0c4-6.9,8.7-13.4,14-19.4c0.4-0.5,1.2-0.4,1.6,0.1c9.9,13.7,24,24.4,39.8,30.4    c0.8,0.3,1.5-0.4,1.3-1.2c-2.9-12.2-0.4-25.5,6.6-35.9c0.5-0.8,1.7-0.4,1.9,0.5c2.8,14.8,19.4,23.7,34.4,27.9    c2.7,0.7,5.6,1.4,8.4,1.1c8.5-1.1,12.4-10.6,14.2-19.4c0.2-0.9,1.4-1.1,1.8-0.3c2.7,5.7,4.3,11.9,4.7,18.2    c0.1,0.9,1.2,1.3,1.8,0.7c5.1-5.5,9.6-11.6,13.3-18.2c0.4-0.7,1.4-0.7,1.7,0c2.2,4.1,3.6,8.5,4.3,13.1c0.1,0.8,1.1,1.2,1.6,0.6    c6.4-5.7,11.2-13,13.9-21.1c0.2-0.7,1-0.9,1.6-0.5c11.4,8.8,23.4,16.8,36,23.9c0.7,0.4,1.5-0.1,1.5-0.9c0-11.3,4.7-22.6,12.8-30.5    c0.6-0.6,1.6-0.2,1.7,0.6c2,11.8,13.4,21.5,25.4,21.4c0.5,0,0.9-0.4,1-0.9c1.2-8.4,5.2-16.4,11.3-22.4c0.4-0.4,1.1-0.3,1.5,0.1    c7.1,9.6,16.9,17.4,27.9,22.1c2.1,0.9,4.4,1.7,6.5,0.9c1.7-0.7,2.9-2.3,3.8-3.9c4.1-6.4,7.4-13.3,9.8-20.5    c0.2-0.7,1.2-0.9,1.7-0.4c11.8,12.3,25.8,22.5,41.1,30c0.7,0.3,1.5-0.2,1.5-0.9c0.1-11.5,6.1-22.8,15.7-29.2    c0.5-0.4,1.3-0.1,1.5,0.5c3.2,8.3,9.9,15.2,18.2,18.5c0.5,0.2,1.1-0.1,1.3-0.6c1.9-5.5,3.1-11.2,3.7-17c0.1-0.9,1.2-1.3,1.7-0.6    c4.5,5.2,8.4,11.1,11.4,17.4c0.2,0.5,0.9,0.7,1.4,0.5c15.9-8.7,30.3-20.1,42.3-33.7c0.5-0.5,1.3-0.4,1.6,0.2    c5.8,11.3,7.5,24.7,4.6,37.2c-0.2,0.9,0.7,1.6,1.5,1.1c9.3-6,16.4-15.3,19.8-25.8c0.3-0.9,1.7-1,2.1-0.2    c5.8,11.5,17.1,20.1,29.8,22.6c0.7,0.1,1.4-0.6,1.1-1.3c-1.8-6.5-0.8-13.8,2.8-19.6c0.4-0.6,1.3-0.6,1.7,0.1    c4.3,7.5,11.7,13.1,20,15.2c0.6,0.1,1.1-0.3,1.2-0.9c0.7-5.8,3.3-11.5,7.4-15.8c0.4-0.4,1.1-0.4,1.5,0.1c6,8,9.6,17.6,10.4,27.5    c0.1,0.7,0.8,1.2,1.5,0.8c21.9-11.2,40.3-28.9,52.2-50.4c0.4-0.8,1.6-0.7,1.9,0.2c6.8,20.3,26.4,35.8,47.8,37.6    c0.6,0.1,1.2-0.5,1.1-1.2c-1.4-10.6,3.7-21.9,12.6-27.8c0.6-0.4,1.5,0.1,1.6,0.8c0.6,9.1,8.1,17.5,17.1,19.1    c0.7,0.1,1.2-0.5,1.1-1.2c-1.3-6.8,2.3-14.3,8.4-17.5c0.6-0.3,1.2,0.1,1.4,0.7c2.8,13.7,15.2,25,29.1,26.4c0.4,0,0.8-0.2,1-0.6    c2.3-5.5,3.6-11.3,3.9-17.2c0-0.8,1-1.3,1.7-0.8c19.5,14.6,42.5,24.6,66.5,28.9c0.6,0.1,1.2-0.4,1.2-1c0-9.3,1.9-18.5,5.4-27    c0.3-0.7,1.1-0.8,1.6-0.3c8.7,8.9,19.8,15.5,31.8,18.7c0.7,0.2,1.4-0.4,1.3-1.2c-1.1-7.9,1.8-16.2,7.4-21.7c0.7-0.7,1.8,0,1.7,0.9    c-0.3,7.5,4.3,15,11.2,17.8c0.5,0.2,1.1-0.1,1.3-0.7c2.1-7.5,6.4-14.3,12.2-19.4c0.4-0.4,1.1-0.3,1.5,0.2    c13.5,18.7,35,31.4,57.8,34.1c0.1,0,0.3,0,0.4,0c16-4.8,29.9-16.3,37.8-31c0.3-0.6,1.2-0.7,1.6-0.2c6.5,7.5,10.5,17.1,11.2,27    c0.1,0.8,1,1.3,1.6,0.7c7.5-6.3,13.2-14.8,16.2-24.1c0.2-0.7,1.2-1,1.7-0.4c6.7,7.3,11.7,16.2,14.5,25.7c0.2,0.7,1,1,1.6,0.5    c16.4-12.5,32.8-25,49.2-37.5c0.8-0.6,1.9,0.2,1.7,1.2c-0.8,3.5-1.1,7.2-0.8,10.8c0.7,7.7,4.8,15.8,12.2,18    c5.8,1.8,12.7-2.2,14.4-7.5c0.3-1,2.4-1.9,3.1-1.1c1.9,2.2,3.9,4.4,5.8,6.6c0.4,0.4,1,0.5,1.4,0.1c7.7-7.5,12.9-17.5,14.6-28.1    c0.2-0.9,1.5-1.2,2-0.4c7.5,10.9,19.1,19.1,32,22.4c0.6,0.2,1.2-0.3,1.2-0.9c1.1-9.1,6.9-17.4,14.8-21.8c0.8-0.4,1.7,0.3,1.6,1.2    c-0.6,5.3,2.8,10.8,7.4,13.9c4.7,3.1,10.4,4.3,16.1,5.3c0.8,0.1,1.4-0.7,1.2-1.4c-1.4-5.5,1-11.9,5.8-15c0.5-0.3,1.2-0.1,1.4,0.5    c5,13.7,16.7,24.8,30.6,28.9c0.3,0.1,0.7,0,0.9-0.2c9.8-8.2,16-20.4,17-33.1c0.1-0.9,1.2-1.3,1.8-0.7c18.1,18,42.6,29.4,68,31.6    c0.5,0,1-0.3,1.1-0.8c1.3-7.6,3.8-15,7.3-21.8c0.3-0.6,1.2-0.7,1.7-0.2c8.8,9.6,23,13.9,35.6,10.9c0.3-0.1,0.6-0.3,0.7-0.7    c2-6.3,5.5-12.1,10.1-16.9c0.5-0.5,1.3-0.3,1.6,0.3c6.1,14.5,19.1,26,34.3,30.2c1.8,0.5,3.7,0.9,5.5,0.2c1.5-0.6,2.5-1.9,3.5-3.1    c8.5-10.5,17-21,25.5-31.5c0.5-0.6,1.4-0.4,1.7,0.3c4.6,11,13.5,20.1,24.4,24.9c0.5,0.2,1.1,0,1.3-0.6    c3.9-9.9,11.1-18.6,20.2-24.2c0.7-0.4,1.6,0.1,1.6,0.9c0,9.2,7,17.5,14.9,22.7c13,8.6,29.6,11.6,44.9,8.3c0.2-0.1,0.5-0.2,0.6-0.4    c5.1-8.1,3.3-19.7-3.3-26.5c-0.8-0.8-0.1-2.5,1-2.2c12.7,2.8,24.5,9.4,33.4,18.8c0.5,0.5,1.3,0.4,1.6-0.2    c2.6-4.8,4.8-9.9,6.7-15.1c0.2-0.7,1-0.9,1.6-0.4c8.3,7.1,14.9,16.1,19.3,26.1c0.3,0.8,1.5,0.8,1.9,0.1    c7.4-14,19.4-25.5,33.7-32.3c0.4-0.2,1-0.1,1.2,0.3c13.7,18.3,39.3,27,61.3,20.5c0.4-0.1,0.7-0.4,0.7-0.8    c1.7-11.5,7.1-22.5,15.3-30.8c0.5-0.5,1.5-0.3,1.7,0.4c3.6,11,14.1,19.6,25.6,20.9c0.5,0.1,0.9-0.3,1-0.7c1.1-5.3,0.8-10.9-1-16    c-0.3-0.9,0.6-1.8,1.5-1.3c8.7,4.7,16.3,11.2,22.4,19c0.5,0.6,1.4,0.5,1.7-0.2c4.4-8.5,10.7-16,18.3-21.9c0.7-0.5,1.6,0,1.6,0.8    c-0.1,3.8,0,7.7,1.7,11c2,4,7,6.8,11,4.9c1.6-0.8,2.9-2.2,4-3.6c4.6-5.6,8.6-11.7,11.8-18.1c0.3-0.7,1.3-0.8,1.7-0.2    c6.6,8.3,14.7,15.5,23.7,21.1c4.3,2.7,9.1,5,14.2,5.1c5.1,0.1,10.6-2.7,12.1-7.6c1.5-4.6-0.8-9.7-4.3-12.9c-1.4-1.3-3-2.3-4.6-3.2    c-1-0.6-0.6-2.2,0.6-1.9c19.4,4.4,37.3,15.3,50,30.6c0.6,0.7,1.8,0.3,1.9-0.6c1.2-9.8,6.9-19.1,15.2-24.5c0.8-0.5,1.8,0.3,1.7,1.3    c-1.2,8.8,9.2,17.7,18.2,15.2c8.7-2.4,13.6-12.3,12.6-21.3c-0.1-1,1.4-1.9,2.2-1.3c20.9,17.6,52.4,21.8,77.1,9.9    c0.7-0.3,1.5,0.2,1.5,0.9l-1.7,149.4c0,1.1-1.8,1.5-2.4,0.7c-7.2-9.2-24.6-20.4-26.6-19.6c-1.9,0.8-3.2,2.6-4.2,4.4    c-4.4,7.6-7.7,15.9-9.5,24.6c-0.2,0.8-1.1,1.1-1.7,0.5c-4.5-4.6-8.3-10-11.1-15.9c-0.3-0.7-1.3-0.8-1.7-0.1    c-3.8,6-6.5,12.8-7.8,19.8c-0.1,0.8-1.1,1.1-1.7,0.5c-3-3.1-5.7-6.5-8-10.1c-0.4-0.6-1.4-0.6-1.8,0c-4,6.9-8.7,13.4-14,19.4    c-0.4,0.5-1.2,0.4-1.6-0.1c-9.9-13.7-23.9-24.4-39.8-30.4c-0.8-0.3-1.5,0.4-1.3,1.2c2.9,12.2,0.4,25.5-6.6,35.9    c-0.5,0.8-1.7,0.4-1.9-0.5c-2.8-14.8-19.4-23.7-34.4-27.9c-2.8-0.7-5.6-1.4-8.4-1.1c-8.5,1.1-12.3,10.6-14.2,19.4    c-0.2,0.9-1.4,1.1-1.8,0.3c-2.7-5.7-4.3-11.9-4.8-18.2c-0.1-0.9-1.2-1.3-1.8-0.7c-5.1,5.5-9.6,11.6-13.4,18.2    c-0.4,0.7-1.4,0.7-1.7,0c-2.2-4.1-3.6-8.5-4.3-13.1c-0.1-0.8-1.1-1.2-1.7-0.6c-6.4,5.7-11.2,13-14,21.1c-0.2,0.7-1,0.9-1.6,0.5    c-11.4-8.8-23.4-16.8-36-23.9c-0.7-0.4-1.5,0.1-1.5,0.9c0,11.3-4.7,22.6-12.8,30.5c-0.6,0.6-1.6,0.2-1.7-0.6    c-2-11.8-13.4-21.5-25.4-21.4c-0.5,0-0.9,0.4-0.9,0.9c-1.2,8.4-5.2,16.4-11.3,22.4c-0.4,0.4-1.1,0.3-1.5-0.1    c-7.1-9.6-16.9-17.4-27.9-22.1c-2.1-0.9-4.4-1.7-6.5-0.9c-1.7,0.7-2.9,2.3-3.8,3.9c-4,6.4-7.4,13.3-9.8,20.5    c-0.2,0.7-1.2,0.9-1.7,0.4c-11.8-12.3-25.8-22.5-41.1-30c-0.7-0.3-1.5,0.2-1.5,0.9c0,11.5-6.1,22.8-15.7,29.2    c-0.5,0.4-1.2,0.1-1.5-0.5c-3.2-8.3-9.9-15.2-18.2-18.5c-0.5-0.2-1.1,0.1-1.3,0.6c-1.9,5.5-3.2,11.2-3.7,17    c-0.1,0.9-1.2,1.3-1.7,0.6c-4.6-5.2-8.4-11.1-11.4-17.4c-0.2-0.5-0.9-0.7-1.4-0.5c-15.9,8.7-30.3,20.1-42.3,33.7    c-0.5,0.5-1.3,0.4-1.6-0.2c-5.8-11.3-7.5-24.7-4.6-37.2c0.2-0.9-0.7-1.6-1.5-1.1c-9.3,6-16.4,15.3-19.8,25.8    c-0.3,0.9-1.7,1-2.1,0.2c-5.8-11.5-17.1-20.1-29.8-22.6c-0.7-0.1-1.3,0.6-1.1,1.3c1.8,6.5,0.8,13.8-2.8,19.6    c-0.4,0.6-1.3,0.6-1.7-0.1c-4.3-7.5-11.7-13.1-20-15.2c-0.6-0.1-1.2,0.3-1.2,0.9c-0.7,5.8-3.3,11.5-7.3,15.8    c-0.4,0.4-1.1,0.4-1.5-0.1c-6-8-9.6-17.6-10.4-27.5c-0.1-0.7-0.8-1.2-1.5-0.8c-21.9,11.2-40.3,29-52.2,50.4    c-0.4,0.8-1.6,0.7-1.9-0.2c-6.8-20.3-26.4-35.8-47.8-37.5c-0.6-0.1-1.2,0.5-1.1,1.2c1.4,10.6-3.8,21.9-12.6,27.8    c-0.7,0.4-1.5-0.1-1.6-0.8c-0.6-9.1-8.1-17.5-17.1-19.1c-0.7-0.1-1.2,0.5-1.1,1.2c1.3,6.8-2.3,14.3-8.4,17.5    c-0.6,0.3-1.2-0.1-1.4-0.7c-2.8-13.7-15.2-25-29.1-26.4c-0.4,0-0.8,0.2-1,0.6c-2.3,5.5-3.6,11.3-3.9,17.2c0,0.8-1,1.3-1.6,0.8    c-19.5-14.6-42.5-24.6-66.5-28.9c-0.6-0.1-1.2,0.4-1.2,1c0,9.3-1.9,18.5-5.4,27c-0.3,0.7-1.1,0.8-1.6,0.3    c-8.7-8.9-19.8-15.5-31.8-18.7c-0.7-0.2-1.4,0.4-1.3,1.2c1.1,7.9-1.8,16.2-7.4,21.7c-0.7,0.6-1.8,0-1.7-0.9    c0.3-7.5-4.3-15-11.2-17.8c-0.5-0.2-1.1,0.1-1.3,0.7c-2.1,7.5-6.4,14.3-12.2,19.4c-0.4,0.4-1.1,0.3-1.5-0.2    c-13.5-18.7-35-31.4-57.8-34.1c-0.1,0-0.3,0-0.4,0c-16,4.8-29.9,16.3-37.8,31c-0.3,0.6-1.2,0.7-1.6,0.2    c-6.5-7.5-10.5-17.1-11.2-27c-0.1-0.8-1-1.3-1.6-0.7c-7.5,6.3-13.2,14.8-16.2,24.1c-0.2,0.7-1.2,1-1.7,0.4    c-6.7-7.3-11.7-16.2-14.5-25.7c-0.2-0.7-1-1-1.6-0.5c-16.4,12.5-32.8,25-49.2,37.5c-0.8,0.6-1.9-0.2-1.7-1.2    c0.8-3.5,1.1-7.2,0.8-10.8c-0.7-7.7-4.9-15.8-12.2-18c-5.7-1.8-12.7,2.2-14.3,7.5c-0.3,1-2.4,1.9-3.1,1.1    c-1.9-2.2-3.9-4.4-5.8-6.6c-0.4-0.4-1-0.5-1.4-0.1c-7.7,7.5-12.9,17.5-14.6,28.1c-0.2,0.9-1.5,1.2-2,0.5    c-7.5-10.9-19.1-19.1-32-22.4c-0.6-0.2-1.2,0.3-1.3,0.9c-1.1,9.1-6.9,17.4-14.8,21.8c-0.8,0.4-1.6-0.3-1.6-1.2    c0.6-5.3-2.8-10.8-7.4-13.9c-4.7-3.1-10.4-4.3-16.1-5.3c-0.8-0.1-1.4,0.7-1.2,1.4c1.4,5.5-1,12-5.8,15c-0.5,0.3-1.2,0.1-1.4-0.5    c-5-13.7-16.7-24.8-30.6-28.9c-0.3-0.1-0.7,0-0.9,0.2c-9.8,8.2-16,20.4-17,33.1c-0.1,0.9-1.2,1.3-1.8,0.7    c-18.1-18-42.5-29.4-68-31.6c-0.5,0-1,0.3-1.1,0.8c-1.3,7.6-3.7,15-7.3,21.8c-0.3,0.6-1.2,0.7-1.7,0.2c-8.8-9.6-23-13.9-35.6-10.9    c-0.3,0.1-0.6,0.3-0.7,0.7c-2,6.3-5.5,12.1-10.1,16.9c-0.5,0.5-1.4,0.3-1.6-0.3c-6.1-14.5-19.1-26-34.3-30.2    c-1.8-0.5-3.7-0.9-5.5-0.2c-1.5,0.6-2.5,1.9-3.5,3.1c-8.5,10.5-17,21-25.5,31.5c-0.5,0.6-1.4,0.4-1.7-0.3    c-4.6-11-13.5-20.1-24.4-24.9c-0.5-0.2-1.1,0-1.3,0.6c-3.9,9.9-11.1,18.6-20.2,24.2c-0.7,0.4-1.6-0.1-1.6-0.9    c0-9.2-7-17.5-14.9-22.7c-13-8.6-29.6-11.6-44.9-8.3c-0.3,0.1-0.5,0.2-0.6,0.4c-5.1,8.1-3.3,19.7,3.3,26.5c0.8,0.8,0.1,2.5-1,2.2    c-12.7-2.8-24.5-9.4-33.4-18.8c-0.5-0.5-1.3-0.4-1.6,0.2c-2.6,4.8-4.8,9.9-6.7,15.1c-0.2,0.7-1.1,0.9-1.6,0.4    c-8.3-7.1-14.9-16.1-19.3-26.1c-0.3-0.8-1.5-0.8-1.9-0.1c-7.4,14-19.4,25.5-33.7,32.3c-0.4,0.2-0.9,0.1-1.2-0.3    c-13.7-18.3-39.3-27-61.3-20.5c-0.4,0.1-0.6,0.4-0.7,0.8c-1.7,11.5-7.1,22.5-15.3,30.8c-0.5,0.5-1.5,0.3-1.7-0.4    c-3.6-11.1-14.1-19.6-25.6-20.9c-0.5-0.1-0.9,0.3-1,0.7c-1.1,5.3-0.8,10.9,1,16c0.3,0.9-0.6,1.8-1.5,1.3    c-8.6-4.7-16.3-11.2-22.4-19c-0.5-0.6-1.4-0.5-1.7,0.2c-4.4,8.5-10.7,16-18.3,21.9c-0.7,0.5-1.6,0-1.6-0.8c0.1-3.8,0-7.7-1.7-11    c-2-4-7-6.8-11-4.9c-1.5,0.7-11.7,14.2-15.8,21.7c-0.4,0.7-1.3,0.7-1.7,0.2c-6.6-8.3-14.7-15.5-23.7-21.1c-4.3-2.7-9.1-5-14.2-5.1    c-5.1-0.1-10.6,2.7-12.1,7.6c-1.5,4.6,0.8,9.7,4.4,12.9c1.4,1.3,3,2.3,4.6,3.2c1,0.6,0.6,2.2-0.6,1.9c-19.4-4.4-37.3-15.3-50-30.6    c-0.6-0.7-1.8-0.3-1.9,0.6c-1.2,9.8-6.9,19.1-15.2,24.5c-0.8,0.5-1.8-0.3-1.7-1.3c1.2-8.8-9.2-17.7-18.2-15.2    c-8.7,2.4-13.6,12.3-12.6,21.3c0.1,1-1.4,1.9-2.2,1.3c-20.9-17.6-52.4-21.8-77-9.9c-0.7,0.3-1.5-0.2-1.5-0.9L16.9,91.6z" fill="#000000"/>
		<path class="st3" d="M572.6,189.4c2.3,6.8,8,21.6,12,26 M590.1,175.9c5.2,8.8,18.3,27.8,29.5,33 M702.1,52.9    c7.3,8.5,27,26.2,47,29 M749.1,189.4c16.3,4.3,51.1,14.3,59.5,19.5 M740.1,180.4c-0.8,5-2.9,16-4.5,20c-5.8-2.7-19.4-8.1-27-8.5     M292.6,192.4l-7,21l15.5-2.5 M315.6,80.9c1.8,2.8,7.2,9.3,14,12.5 M161.1,84.4c1.7,3.8,7.2,12.2,16,15 M566.1,104.9    c2-3,14.5-25,14.5-30.5l14,18.5 M1526.6,172.9c-14,6-31.2,18.8-38,24.5c0.7-9.3,2.7-28.8,5.5-32 M1639.1,175.4    c-0.5,5.7-0.4,18.5,4,24.5c2.3-2.5,8.1-7.9,12.5-9.5 M1668.6,53.9c1.2,7.5,2.8,23.8,0,29 M1536.1,65.4c-4.7,6.2-14.5,19.8-16.5,25     M1506.1,82.9c-1,3.8-3,12.9-3,18.5 M2005.1,143.9c2.2,6.8,6.7,23.9,7.5,37.5 M1170.1,181.4c7,3.7,22.3,12.2,27.5,17     M1297.1,181.4c8.3,2.3,26.6,8,33,12 M1792.6,175.4c5.2,2.8,17.6,11.1,26,21.5c2.3-6.2,7.1-20.7,7.5-29.5" fill="#000000"/>
	</g>
</g>
</svg>