<svg width="257" height="115" viewBox="0 0 257 115" fill="none" xmlns="http://www.w3.org/2000/svg">
<path d="M15.9516 105.9C11.0234 98.5536 11.8519 87.6452 18.161 81.3512C14.0146 86.7917 5.06049 87.6101 0 83.0114C4.85434 83.3154 9.37417 79.878 11.6069 75.552C13.8395 71.2222 14.1741 66.1636 13.9873 61.2959C10.5955 63.529 7.79495 66.6585 5.94735 70.2791C5.03327 61.7792 9.46752 52.9324 16.819 48.5909C12.8399 45.6368 6.982 45.5277 2.89782 48.3298C6.59692 41.8798 14.6058 38.232 21.8912 39.6779C14.9014 35.9911 9.80592 28.8903 8.54177 21.0763C11.8091 26.9144 19.8841 29.4554 25.8976 26.5442C24.0928 18.508 25.8743 10.0939 31.1331 3.76084C30.7831 11.5514 35.3612 19.3498 42.3277 22.8301C43.6774 19.2602 45.031 15.6903 46.3807 12.1165C49.4808 14.1782 52.1958 16.8127 54.3468 19.8487C57.4508 15.0044 61.395 10.7057 65.9537 7.20601C66.1404 12.4751 68.9877 17.5805 73.3713 20.5034C75.7168 16.7153 77.44 12.5374 78.4474 8.19591C82.9944 11.0682 86.5652 15.4604 88.4517 20.5073C89.9337 12.6855 97.3163 7.62302 104.069 3.43737C101.385 9.12346 105.901 15.4409 110.121 20.0981C111.288 16.1736 114.431 12.8921 118.297 11.5631C118.57 14.7589 120.106 17.8299 122.502 19.9578C123.805 18.0559 125.696 16.5672 127.847 15.7449C130.604 16.7114 132.923 18.8471 134.128 21.5089C137.598 17.1596 139.018 11.2319 137.894 5.77572C143.818 10.1952 149.139 15.4214 153.666 21.2673C157.91 13.1922 164.487 6.36421 172.391 1.83171C171.625 7.75163 174.43 13.9989 179.362 17.3505C181.093 13.7261 183.722 10.5343 186.943 8.14135C188.374 11.0487 190.556 13.5858 193.221 15.4253C198.063 12.1828 199.362 4.68839 195.893 0C202.206 4.73126 206.835 11.6723 208.779 19.3265C213.723 12.062 221.425 6.73444 229.955 4.68449C227.847 9.15853 228.002 14.6381 230.359 18.9835C235.642 13.5936 243.266 10.5927 250.796 10.9396C245.65 15.8033 242.032 19.7357 239.757 26.4467L239.574 26.9806C237.583 34.5686 243.872 43.1893 251.698 43.5751C246.525 45.0093 240.827 44.4286 236.046 41.9812C236.805 47.0982 241.037 51.506 246.109 52.4609C243.779 53.4313 241.118 53.5755 238.699 52.8701C244.736 56.2607 248.839 62.8782 249.197 69.8036C245.646 67.1457 241.476 65.3179 237.12 64.5033C236.408 69.7101 239.107 74.948 243.036 78.4321C246.965 81.9163 251.982 83.8961 257 85.4277C251.947 86.25 246.634 85.3692 242.122 82.9529C245.767 88.8767 245.463 96.9908 241.383 102.622C238.407 99.1304 234.343 96.5894 229.92 95.3929C228.967 98.9433 229.57 102.895 231.573 105.982C226.376 103.125 222.137 98.5497 219.678 93.1442C217.084 98.7095 214.49 104.275 211.895 109.84C212.93 103.717 210.487 97.1233 205.718 93.1598C202.614 96.34 201.373 101.227 202.583 105.506C194.461 105.007 186.834 99.5942 183.671 92.0842C181.377 100.697 176.791 108.686 170.505 115C172.753 109.731 171.528 103.16 167.533 99.0564C167.008 98.5185 166.347 97.9846 165.596 98.0509C164.993 98.1054 164.499 98.538 164.091 98.9862C161.959 101.328 161.049 104.731 161.73 107.829C157.704 106.313 154.184 103.488 151.823 99.8865C147.653 102.092 145.276 107.252 146.315 111.859C137.524 108.258 130.429 100.717 127.356 91.7139C124.929 97.9885 119.394 104.641 114.583 109.341C118.764 104.68 118.589 96.7492 114.209 92.2751C111.63 93.4404 109.841 96.1841 109.818 99.0213C105.489 98.8849 101.338 96.1841 99.4556 92.279C94.7063 94.8161 92.2869 101.028 94.0645 106.118C87.9032 105.311 82.5938 100.077 81.6836 93.9198C82.8739 100.28 79.2059 107.225 73.2858 109.817C74.4838 106.995 74.2776 103.612 72.7451 100.958C70.4969 103.881 68.2486 106.804 65.9965 109.727C67.8558 106.449 67.9452 102.233 66.226 98.8771C64.5067 95.5215 61.0332 93.1364 57.2874 92.7428C57.2874 92.7428 55.1053 95.8255 58.0732 105.327C51.8769 104.926 46.4313 99.4071 46.0968 93.1949C41.1102 96.1646 37.38 101.184 35.9719 106.827C35.439 104.852 34.91 102.88 34.3771 100.904C33.6731 98.2925 32.3 95.1279 29.6006 95.0967C29.6006 95.0967 29.2777 95.0967 28.8771 95.0851C23.1981 96.1178 18.1999 101.671 17.2819 107.638C16.7996 107.089 16.3601 106.512 15.9555 105.908L15.9516 105.9Z" fill="black"/>
</svg>
