<svg width="102" height="61" viewBox="0 0 102 61" fill="none" xmlns="http://www.w3.org/2000/svg">
<g id="Group 1000002370">
<path id="11" d="M26.1553 3.2227C32.1858 2.9871 37.2491 7.66166 37.4843 13.682L38.3491 35.8175C38.5819 41.7771 33.8988 46.8324 27.9291 47.0657L12.9441 47.6511C7.46181 47.8653 2.67312 43.9717 1.79161 38.5857L1.7307 38.5881L0.813636 15.1147C0.578431 9.09432 5.26154 4.03898 11.2312 3.80576L26.1553 3.2227ZM22.807 33.075L22.2011 17.568C22.175 16.899 21.603 16.3123 20.872 16.3409L17.5827 16.4694C16.8517 16.498 16.3272 17.1275 16.2924 17.7988L16.8983 33.3058C16.9877 34.0332 17.5597 34.6199 18.2906 34.5913L21.58 34.4628C22.311 34.4343 22.8355 33.8047 22.807 33.075Z" fill="black"/>
<path id="0" d="M88.4163 12.5008C94.4469 12.2652 99.5101 16.9397 99.7453 22.9601L100.61 45.0956C100.843 51.0552 96.1598 56.1105 90.1902 56.3437L75.2052 56.9292C69.7229 57.1434 64.9342 53.2498 64.0527 47.8638L63.9917 47.8661L63.0747 24.3928C62.8395 18.3724 67.5226 13.3171 73.4922 13.0838L88.4163 12.5008ZM85.068 42.3531L84.4622 26.846C84.4361 26.1771 83.8641 25.5904 83.1331 25.619L79.8437 25.7475C79.1127 25.776 78.5883 26.4056 78.5535 27.0769L79.1593 42.5839C79.2487 43.3113 79.8207 43.898 80.5517 43.8694L83.8411 43.7409C84.5721 43.7123 85.0965 43.0828 85.068 42.3531Z" fill="black"/>
<path id="/" d="M55.8765 1.67868L65.8852 1.28766L45.9191 58.4989L35.5397 58.9044L55.8765 1.67868Z" fill="black"/>
</g>
</svg>
