<svg xmlns="http://www.w3.org/2000/svg" width="41" height="42" viewBox="0 0 41 42" fill="none">
    <path id="?" d="M29.5195 40.8175L11.7649 41.3123L11.5772 34.5764L29.3318 34.0817L29.5195 40.8175ZM28.2283 0.63179C34.8506 0.447253 40.3342 4.50761 40.4781 9.67175L40.6377 15.3972C40.7222 18.4283 36.1981 22.1496 33.2686 23.6357C30.4517 25.0624 28.8766 25.9489 28.9204 27.5206L29.0565 32.4041L11.4732 32.8941L11.3121 27.1125C11.1369 20.8257 16.2076 18.2688 19.8699 16.4253C22.4631 15.1734 23.6432 14.4664 23.6166 13.5122L23.6026 13.007C23.5869 12.4456 22.9449 11.958 22.2027 11.9786L18.6061 12.0789C17.864 12.0995 17.3071 12.6206 17.3228 13.182L17.4104 16.3253L0.455012 16.7978L0.287645 10.7917C0.143741 5.62756 5.33569 1.26972 11.958 1.08518L28.2283 0.63179Z" fill="#f26938"/>
</svg>